<?xml version="1.0" encoding="utf-8"?>
<!-- Generator: Adobe Illustrator 26.2.1, SVG Export Plug-In . SVG Version: 6.00 Build 0)  -->
<svg version="1.1" id="Camada_1" xmlns="http://www.w3.org/2000/svg" xmlns:xlink="http://www.w3.org/1999/xlink" x="0px" y="0px"
	 viewBox="0 0 595.28 255.16" style="enable-background:new 0 0 595.28 255.16;" xml:space="preserve">
<style type="text/css">
	.st0{fill:#46537E;}
	.st1{fill:#384A40;}
	.st2{fill:#E67150;}
</style>
<g>
	
		<image style="overflow:visible;" width="1370" height="501" xlink:href="F36E9CA9.png"  transform="matrix(0.24 0 0 0.24 135 74.1171)">
	</image>
	<g>
		<g>
			<g>
				<g>
					<g>
						<g>
							<path class="st1" d="M164.13,120.47c1.98-0.59,3.76-1.52,5.41-2.9l9.1,41.49c0.46,2.18,1.65,3.23,3.63,3.23v1.12h-12.53
								v-1.12c2.18,0,2.84-0.46,2.57-2.51l-0.79-3.83l-0.79-2.37c-0.33-0.99-1.25-2.7-2.7-5.01c-1.38-2.37-3.03-4.29-4.81-5.8
								l-3.1,16.95c-0.2,1.38,0.46,2.51,3.1,2.57v1.12h-9.37v-1.12c2.64,0,3.56-1.19,4.16-3.63l3.3-17.15
								c-2.24-1.39-4.62-2.05-7.06-2.05c-4.75,0-7.85,2.44-7.85,5.94c0,2.57,1.58,4.42,3.89,4.42c1.72,0,2.57-0.79,2.57-2.44
								c0-1.19-0.59-1.91-1.78-2.18c0.59-0.72,1.32-1.12,2.18-1.12c1.38,0,2.7,0.99,2.7,2.84c0,2.31-2.24,4.22-4.95,4.22
								c-3.5,0-5.87-2.57-5.87-5.67c0-1.91,0.86-3.56,2.57-4.88c1.65-1.38,3.76-2.04,6.2-2.04c2.77,0,5.34,0.59,7.65,1.85
								l3.23-16.69L164.13,120.47z M163.41,141.57c2.57,1.85,4.88,4.55,6.79,8.05l-4.42-21.11L163.41,141.57z"/>
						</g>
					</g>
				</g>
			</g>
			<g>
				<g>
					<g>
						<g>
							<path class="st1" d="M198.04,159.9c0,1.28,0.54,1.89,1.62,1.89h2.84c1.82,0,2.9-0.34,4.25-1.49c1.42-1.28,2.43-4.19,2.9-8.58
								h1.22v11.55h-22.48v-1.15h0.88c1.69,0,2.5-1.22,2.5-3.58v-36.6c0.07-1.62-0.07-3.04-2.9-3.31h-0.41v-1.08h12.63v1.08h-0.61
								c-2.43,0.27-2.5,1.69-2.43,3.31V159.9z"/>
						</g>
					</g>
				</g>
			</g>
			<g>
				<g>
					<g>
						<g>
							<path class="st1" d="M384.85,117.56v1.08h-0.34c-2.57,0.27-2.63,1.69-2.63,3.31v36.6c0,1.89,0.07,3.38,2.5,3.58h0.61v1.15
								h-12.9v-1.15h0.81c2.57-0.2,2.77-1.69,2.7-3.58v-36.6c0.07-1.62-0.14-3.04-2.84-3.31h-0.47v-1.08H384.85z"/>
						</g>
					</g>
				</g>
			</g>
			<g>
				<g>
					<g>
						<g>
							<path class="st1" d="M356.39,125.62c-2.52,8.03-4.56,13.96-6.2,17.77c1.43,4.42,2.11,7.9,2.11,10.28
								c0,3.47-1.77,6.33-5.04,6.33c-2.52,0-3.95-1.91-3.95-4.9c0-1.57,0.75-3.81,2.18-6.81c-5.1-14.91-7.69-22.4-7.69-22.46v31.59
								c0,2.93,1.02,4.36,3,4.36h0.68v1.16h-9.67v-1.16h0.61c2.04,0,3.07-1.43,3.07-4.36v-34.92c0.07-2.31-0.14-4.29-2.59-4.56
								h-0.75v-1.09h9.67c3.61,11.85,6.06,19.74,7.42,23.76c0.82-2.38,1.84-5.51,3-9.46c1.23-3.95,2.25-7.28,3-10.08
								c0.82-2.79,1.23-4.22,1.16-4.22h9.26v1.09h-0.54c-1.57,0-2.38,1.16-2.38,3.47v36.76c0,2.38,0.82,3.61,2.45,3.61h0.68v1.16
								h-12.87v-1.16h0.61c2.59-0.2,2.86-1.7,2.79-3.61V125.62z M346.25,150.33c-0.88,1.98-1.36,3.68-1.36,5.11
								c0,1.84,0.48,2.72,1.36,2.72s1.36-0.82,1.36-2.45C347.61,154.83,347.13,153.06,346.25,150.33z"/>
						</g>
					</g>
				</g>
			</g>
			<g>
				<g>
					<g>
						<path class="st1" d="M392.33,117v1.09h0.75c2.6,0.27,2.73,1.71,2.67,3.35v16.61c0,0.48,0,0.96,0,1.43v19
							c0,2.39-0.82,3.62-2.53,3.62h-0.89v1.16h6.36c1.26,0.03,2.26,0.05,3.04,0.1c0.03,0,0.56,0.03,1.22-0.1
							c0.35-0.07,0.89-0.18,0.91-0.38c0.02-0.22-0.64-0.28-1.09-0.75c-0.5-0.54-0.64-1.26-0.66-1.86v-20.71c0-0.5,0-1,0-1.5
							c0-6.52,0-13.03,0-19.55h3.83c4.92,0,6.77,3.35,7.31,8.89h1.23V117H392.33z"/>
					</g>
				</g>
			</g>
			<g>
				<g>
					<path class="st1" d="M217.12,162.14c1.14-1.26,2.39-2.28,3.77-3.05c-3.53-4.37-5.62-11.79-5.62-19.27
						c-0.18-12.27,5.51-23.22,13.46-23.04c4.07,0,7.36,2.21,9.87,6.7c2.51,4.49,3.77,9.93,3.77,16.34c0,3.83-0.54,7.54-1.67,11.13
						c-1.08,3.53-2.57,6.4-4.49,8.56c2.04,0.78,4.67,1.91,7.96,3.47l8.62,4.07c2.45,1.14,5.38,2.21,8.74,3.11
						c3.35,0.9,6.52,1.37,9.57,1.37c3.77,0,7.18-1.14,10.23-3.41l0.36,0.24c-3.95,4.49-8.8,6.76-14.54,6.76
						c-2.93,0-5.98-0.54-9.1-1.67c-3.05-1.14-5.68-2.39-7.9-3.77s-4.79-2.93-7.72-4.79c-2.93-1.85-5.38-3.23-7.42-4.13
						c-1.91,1.67-4.01,2.51-6.28,2.51c-2.75,0-5.21-1.2-7.36-3.59c-0.96,0.54-2.21,1.55-3.77,2.93L217.12,162.14z M221.79,140.12
						c0,8.32,0.72,14.18,2.09,17.71c0.96-0.24,1.92-0.36,2.93-0.36c1.73,0,3.89,0.36,6.46,1.14c1.73-3.35,2.57-9.51,2.57-18.49
						c0-7.84-0.6-13.46-1.86-16.82c-1.2-3.35-2.93-5.03-5.27-5.03C224.12,118.28,221.79,125.58,221.79,140.12z M232.62,159.75
						c-2.33-0.9-4.43-1.38-6.34-1.38c-0.66,0-1.38,0.06-2.09,0.18c1.08,2.21,2.57,3.29,4.55,3.29
						C230.35,161.84,231.61,161.12,232.62,159.75z"/>
				</g>
			</g>
			<g>
				<g>
					<g>
						<path class="st1" d="M272.75,154.04c0,5.4-3.76,9.29-9.56,9.29c-3.21,0-5.81-0.55-8.54-2.12c-2.66-1.64-4.37-4.99-4.37-9.7
							v-30.67c0-1.44-0.07-3.42-2.87-3.42h-0.48v-1.09h12.5v0.41l0.14-0.41v1.09h-0.55c-1.57,0-2.39,1.16-2.39,3.42v32.11
							c0,5.53,2.39,8.27,7.17,8.27c4.03,0,6.63-2.8,6.63-7.65v-25.34c0-9.91,1.3-17.56,3.89-23.09c-1.37-0.89-3.69-2.53-7.04-4.92
							c-3.28-2.46-6.15-4.51-8.68-6.22c-2.46-1.71-5.4-3.35-8.88-4.78c-3.42-1.43-6.56-2.19-9.43-2.19c-4.3,0-7.72,1.23-10.25,3.76
							c-2.53,2.53-3.76,5.47-3.76,8.81c0,3.48,1.09,6.42,3.35,8.88c2.25,2.39,5.53,3.62,9.84,3.62c2.67,0,4.92-0.82,6.76-2.39
							c1.84-1.64,2.8-3.76,2.8-6.28c0-2.73-1.71-4.51-3.96-4.51c-1.84,0-2.94,1.23-2.94,2.6c0,0.75,0.14,1.3,0.41,1.5
							c-1.78-0.34-2.67-1.3-2.67-3.01c0-2.12,1.84-4.03,4.78-4.03c3.55,0,5.81,3.01,5.81,6.83c0,2.73-1.02,5.06-3.07,7.04
							c-2.05,1.91-4.65,2.87-7.79,2.87c-4.51,0-7.99-1.3-10.45-3.96c-2.46-2.67-3.69-5.74-3.69-9.22c0-3.76,1.44-7.11,4.3-9.97
							c2.87-2.87,6.76-4.3,11.68-4.3c2.12,0,4.23,0.27,6.35,0.89c4.3,1.09,7.24,2.46,11.55,5.19c2.19,1.37,3.96,2.6,5.33,3.62
							l5.46,4.23l5.19,3.89c4.65-7.86,12.57-12.98,21.79-12.98c4.58,0,8.06,1.09,10.32,3.28c2.25,2.19,3.41,4.78,3.41,7.79
							c0,3.62-1.43,6.42-4.23,8.54c-2.8,2.12-6.15,3.14-10.11,3.14c-6.35,0-13.32-2.25-20.84-6.83c-1.98,4.85-2.94,12.02-2.94,21.38
							V154.04z M307.04,93.78c-2.12-2.12-5.4-3.14-9.84-3.14c-8.95,0-16.53,5.12-20.63,13.32c7.52,5.4,14.28,8.13,20.36,8.13
							c3.55,0,6.63-0.96,9.29-2.94c2.67-1.98,4.03-4.58,4.03-7.93C310.26,98.36,309.16,95.9,307.04,93.78z"/>
					</g>
				</g>
			</g>
			<g>
				<g>
					<g>
						<path class="st1" d="M293.81,123.18c-0.34-3.47-1.5-5.56-4.58-5.56h-2.4v12.15c0.6-1.41,1.67-2.1,3.21-2.1
							c1.71,0,3.21,0.98,3.21,2.91c0,1.67-1.03,2.78-2.78,2.78c-0.73,0-1.33-0.17-1.8-0.47c0.98-0.17,1.5-0.73,1.5-1.71
							c0-1.07-0.81-1.63-1.71-1.63c-0.85,0-1.62,0.9-1.62,1.58v12.36c0,0.81,0.34,1.2,1.03,1.2h1.93c1.15,0,1.84-0.21,2.69-0.94
							c0.9-0.81,1.54-2.65,1.84-5.43h0.77v7.32c-0.12,0-7.61,0-7.73,0c-0.09,0-6.55,0-6.64,0c0-0.24,0-0.48,0-0.73h0.56
							c1.07,0,1.58-0.77,1.58-2.27v-23.19c0.04-1.03-0.04-1.93-1.67-2.1h-0.47v-0.68h13.86v6.5H293.81z"/>
					</g>
				</g>
			</g>
			<g>
				<g>
					<g>
						<path class="st1" d="M428.34,140.13c-0.34-3.47-1.5-5.56-4.58-5.56h-2.4v12.15c0.6-1.41,1.67-2.1,3.21-2.1
							c1.71,0,3.21,0.98,3.21,2.91c0,1.67-1.03,2.78-2.78,2.78c-0.73,0-1.33-0.17-1.8-0.47c0.98-0.17,1.5-0.73,1.5-1.71
							c0-1.07-0.81-1.63-1.71-1.63c-0.85,0-1.62,0.9-1.62,1.58v12.36c0,0.81,0.34,1.2,1.03,1.2h1.93c1.15,0,1.84-0.21,2.69-0.94
							c0.9-0.81,1.54-2.65,1.84-5.43h0.77v7.32h-14.37v-0.73h0.56c1.07,0,1.58-0.77,1.58-2.27v-23.19c0.04-1.03-0.04-1.93-1.67-2.1
							h-0.47v-0.68h13.86v6.5H428.34z"/>
					</g>
				</g>
			</g>
			<g>
				<g>
					<g>
						<path class="st1" d="M323.04,126.9c-0.55-5.55-2.4-8.91-7.33-8.91h-3.84v19.45c0.96-2.26,2.67-3.36,5.14-3.36
							c2.74,0,5.14,1.58,5.14,4.66c0,2.67-1.64,4.45-4.45,4.45c-1.16,0-2.12-0.27-2.88-0.75c1.57-0.27,2.4-1.16,2.4-2.74
							c0-1.71-1.3-2.6-2.74-2.6c-1.37,0-2.6,1.44-2.6,2.53v19.8c0,1.3,0.55,1.92,1.64,1.92h3.08c1.85,0,2.95-0.34,4.32-1.51
							c1.44-1.3,2.47-4.25,2.94-8.7h1.23v11.71h-23.02v-1.16h0.89c1.71,0,2.53-1.23,2.53-3.63v-37.13c0.07-1.64-0.07-3.08-2.67-3.36
							h-0.75v-1.1h22.19v10.41H323.04z"/>
					</g>
				</g>
			</g>
			<g>
				<path class="st1" d="M438.35,170.16c-0.72,0.22-2.83,0.81-6.05,0.84c-1.63,0.01-4.51-0.11-9.86-1.67
					c-4.9-1.43-8.53-3.06-11.44-4.46c-2.52-1.22-4.19-2.19-6.67-3.35c-1.84-0.86-2.64-1.75-3.19-1.39c-0.81,0.53-0.36,3.01,0.4,3.23
					c0.21,0.06,0.45-0.05,1.07,0.07c0.15,0.03,0.32,0.06,0.53,0.14c0,0,0.52,0.19,1.2,0.67c0,0,0.02,0.01,0.02,0.01
					c0,0,0.01,0,0.01,0c0.93,0.6,1.49,1.03,4.5,2.94c4.16,2.64,6.26,4,8.18,4.84c1.56,0.68,4.14,1.78,7.72,2.42
					c2.61,0.46,4.69,0.83,7.44,0.37c5.05-0.84,8.3-3.8,9.21-4.65c1.01-0.95,1.75-1.85,2.23-2.51
					C442.47,168.44,440.69,169.45,438.35,170.16z"/>
			</g>
			<g>
				<path class="st1" d="M311.84,139.16c0-0.56,0-1.11,0-1.67c0.16-0.44,0.48-1.13,1.11-1.78c1.43-1.47,3.33-1.54,3.86-1.56
					c0.72-0.02,2.3-0.08,3.67,1.08c1.39,1.17,1.6,2.77,1.63,3.04c0.16,1.39-0.29,3.12-1.59,4.08c-0.66,0.48-1.32,0.61-1.82,0.7
					c-1.76,0.33-3.21-0.25-3.86-0.56c0.26-0.02,0.7-0.09,1.15-0.37c0.96-0.6,1.15-1.65,1.19-1.85c0.04-0.22,0.26-1.44-0.59-2.37
					c-0.75-0.82-1.9-0.94-2.71-0.7c-0.74,0.22-1.21,0.75-1.41,0.96C312.14,138.53,311.94,138.9,311.84,139.16z"/>
			</g>
			<g>
				<path class="st1" d="M401.99,139.87c0-0.56,0-1.11,0-1.67c0.16-0.44,0.48-1.13,1.11-1.78c1.43-1.47,3.33-1.54,3.86-1.56
					c0.72-0.02,2.3-0.08,3.67,1.08c1.39,1.17,1.6,2.77,1.63,3.04c0.16,1.39-0.29,3.12-1.59,4.08c-0.66,0.48-1.32,0.61-1.82,0.7
					c-1.76,0.33-3.21-0.25-3.86-0.56c0.26-0.02,0.7-0.09,1.15-0.37c0.96-0.6,1.15-1.65,1.19-1.85c0.04-0.22,0.26-1.44-0.59-2.37
					c-0.75-0.82-1.9-0.94-2.71-0.7c-0.74,0.22-1.21,0.75-1.41,0.96C402.28,139.24,402.09,139.62,401.99,139.87z"/>
			</g>
			<g>
				<path class="st1" d="M275.94,151.68c0.14-0.36,0.4-0.92,0.89-1.46c0.74-0.81,1.58-1.12,1.97-1.26c0.58-0.21,1.6-0.45,3.87-0.06
					c1.6,0.28,1.79,0.52,4.2,1.2c1.92,0.54,2.99,0.84,4.49,0.96c1.41,0.12,2.64,0.21,4.14-0.28c0.63-0.21,1.95-0.65,3.09-1.9
					c0.73-0.8,1.11-1.62,1.31-2.16c-0.39,0.49-1.04,1.18-2.01,1.74c-1.36,0.79-2.61,0.9-4.21,1.03c-0.65,0.05-2.36,0.16-4.85-0.17
					c-2.25-0.3-2.33-0.58-4.84-0.9c-2.27-0.29-3.38-0.21-4.34-0.03c-2.05,0.4-2.74,1.17-2.91,1.38
					C276.17,150.46,276,151.22,275.94,151.68z"/>
			</g>
			<g>
				<path class="st1" d="M404.11,163.61c-0.14,0.02-0.74,0.08-1.28-0.32c-0.33-0.25-0.49-0.56-0.56-0.71"/>
			</g>
		</g>
	</g>
</g>
</svg>
