<?xml version="1.0" encoding="utf-8"?>
<!-- Generator: Adobe Illustrator 26.2.1, SVG Export Plug-In . SVG Version: 6.00 Build 0)  -->
<svg version="1.1" id="Camada_1" xmlns="http://www.w3.org/2000/svg" xmlns:xlink="http://www.w3.org/1999/xlink" x="0px" y="0px"
	 viewBox="0 0 95.02 129.78" style="enable-background:new 0 0 95.02 129.78;" xml:space="preserve">
<style type="text/css">
	.st0{fill:#ABA081;}
	.st1{fill:none;stroke:#ABA081;stroke-width:0.25;stroke-miterlimit:10;}
	.st2{fill-rule:evenodd;clip-rule:evenodd;fill:none;stroke:#ABA081;stroke-width:0.25;stroke-miterlimit:10;}
	.st3{fill-rule:evenodd;clip-rule:evenodd;fill:none;stroke:#B09D8A;stroke-width:0.3;stroke-miterlimit:10;}
	.st4{opacity:0.18;fill-rule:evenodd;clip-rule:evenodd;fill:none;stroke:#B09D8A;stroke-width:0.3;stroke-miterlimit:10;}
	.st5{opacity:0.18;fill:none;stroke:#ABA081;stroke-width:0.25;stroke-miterlimit:10;}
	.st6{opacity:0.18;fill-rule:evenodd;clip-rule:evenodd;fill:none;stroke:#ABA081;stroke-width:0.25;stroke-miterlimit:10;}
	.st7{clip-path:url(#SVGID_00000088818198461169772520000001451332296860620186_);}
	.st8{fill-rule:evenodd;clip-rule:evenodd;fill:#F9F7DE;stroke:#ABA081;stroke-width:0.25;stroke-miterlimit:10;}
	.st9{opacity:0.77;}
	.st10{fill:none;stroke:#A89D7F;stroke-width:0.1;stroke-miterlimit:10;}
	.st11{opacity:0.54;}
	.st12{fill:none;stroke:#ABA081;stroke-width:0.1;stroke-miterlimit:10;}
	.st13{fill:#AEA484;}
	.st14{fill:none;stroke:#AEA484;stroke-width:0.25;stroke-miterlimit:10;}
	.st15{fill-rule:evenodd;clip-rule:evenodd;fill:none;stroke:#AEA484;stroke-width:0.25;stroke-miterlimit:10;}
	.st16{fill-rule:evenodd;clip-rule:evenodd;fill:none;stroke:#B2A08D;stroke-width:0.3;stroke-miterlimit:10;}
	.st17{opacity:0.18;fill-rule:evenodd;clip-rule:evenodd;fill:none;stroke:#B2A08D;stroke-width:0.3;stroke-miterlimit:10;}
	.st18{opacity:0.18;fill:none;stroke:#AEA484;stroke-width:0.25;stroke-miterlimit:10;}
	.st19{opacity:0.18;fill-rule:evenodd;clip-rule:evenodd;fill:none;stroke:#AEA484;stroke-width:0.25;stroke-miterlimit:10;}
	.st20{clip-path:url(#SVGID_00000123419209372106630560000015139890143989962667_);}
	.st21{fill-rule:evenodd;clip-rule:evenodd;fill:#FFFBE2;stroke:#AEA484;stroke-width:0.25;stroke-miterlimit:10;}
	.st22{clip-path:url(#SVGID_00000149344390311023788580000015322418784457214861_);}
	.st23{fill:#ED7858;}
	.st24{fill:none;stroke:#A99F80;stroke-width:0.3;stroke-miterlimit:10;}
	.st25{fill:#A99F80;}
	.st26{fill:#FAF8DF;stroke:#A99F80;stroke-width:0.5;stroke-miterlimit:10;}
	.st27{fill:#FAF8DF;}
	.st28{fill:#A79D7E;}
</style>
<g>
	<g>
		<g>
			<g>
				<path class="st0" d="M67.93,45.04C67.9,64.96,44.61,75.28,30.45,60.81c-8.37-8.43-8.51-23.18-0.1-31.64
					C44.48,14.69,67.96,25.16,67.93,45.04L67.93,45.04z M67.88,45.04c-0.1-19.45-23.38-29.58-37.2-15.54
					c-8.31,8.23-8.46,22.91-0.1,31.19C44.37,74.72,67.85,64.43,67.88,45.04L67.88,45.04z"/>
			</g>
		</g>
		<g>
			<path class="st1" d="M44.54,18.75c0.03-0.19,0.06-0.38,0.09-0.57c-0.16-0.12-0.36-0.29-0.58-0.52c-0.22-0.24-0.6-0.66-0.82-1.33
				c-0.3-0.89-0.13-1.65-0.1-1.81c0.06-0.24,0.2-0.83,0.71-1.37c0.48-0.51,1.01-0.69,1.35-0.79c0.65-0.21,1.18-0.19,1.37-0.17
				c0.24,0.02,0.91,0.09,1.62,0.54c0.26,0.16,0.85,0.54,1.26,1.32c0.12,0.22,0.49,0.94,0.38,1.9c-0.03,0.29-0.12,1.03-0.71,1.62
				c-0.25,0.25-0.51,0.39-0.69,0.47c0.01,0.1,0.02,0.2,0.04,0.32c0.04,0.2,0.09,0.37,0.15,0.52"/>
			<path class="st1" d="M45.15,17.51c-0.18-0.11-0.44-0.3-0.69-0.59c-0.18-0.21-0.54-0.62-0.65-1.27c-0.03-0.15-0.15-0.97,0.37-1.72
				c0.46-0.66,1.13-0.84,1.45-0.92c0.87-0.23,1.58,0.03,1.73,0.09c0.22,0.09,1.03,0.43,1.48,1.33c0.1,0.21,0.32,0.65,0.28,1.24
				c-0.07,1.04-0.86,1.66-1,1.76c-0.14-0.15-0.38-0.38-0.75-0.51c-0.59-0.2-1.12-0.01-1.39,0.09C45.6,17.16,45.32,17.36,45.15,17.51
				z"/>
			<g>
				<g>
					<path class="st0" d="M71.08,51.03c-5.24,22.88-34.99,28.04-47.17,7.78c-11.8-19.67,5.25-44.93,28.04-39.54
						C65.74,22.36,74.45,37.49,71.08,51.03L71.08,51.03z M71.06,51.02c5.02-22.38-18.91-40.67-38.73-28.25
						c-11.86,7.29-15.71,24.22-8.34,35.99C36.14,78.78,65.78,73.68,71.06,51.02L71.06,51.02z"/>
				</g>
			</g>
			<g>
				<g>
					<path class="st0" d="M69.76,50.69c-4.95,21.65-33.1,26.54-44.63,7.37c-11.16-18.62,4.96-42.51,26.54-37.42
						C64.67,23.52,72.97,37.93,69.76,50.69L69.76,50.69z M69.73,50.68c4.75-21.17-17.89-38.47-36.64-26.72
						c-11.21,6.89-14.86,22.91-7.89,34.05C36.7,76.94,64.74,72.12,69.73,50.68L69.73,50.68z"/>
				</g>
			</g>
		</g>
		<path class="st24" d="M44.72,41.79c0.72-3.88,1.45-7.75,2.17-11.63c0.49,4.04,0.98,8.07,1.47,12.11c1.85-1.24,3.71-2.49,5.56-3.73
			c-1.37,1.68-2.73,3.37-4.1,5.05c3.8,0.73,7.6,1.45,11.4,2.18c-3.9,0.5-7.79,0.99-11.69,1.49c1.17,1.9,2.34,3.8,3.5,5.7
			c-1.65-1.4-3.29-2.8-4.94-4.2c-0.71,3.89-1.41,7.78-2.12,11.67c-0.49-4.04-0.98-8.07-1.47-12.11c-1.85,1.24-3.71,2.49-5.56,3.73
			c1.37-1.68,2.73-3.37,4.1-5.05c-3.8-0.73-7.6-1.45-11.4-2.18c3.94-0.5,7.89-1,11.83-1.5c-1.22-1.9-2.43-3.79-3.65-5.69
			C41.46,39.02,43.09,40.4,44.72,41.79z"/>
		<g>
			<path class="st25" d="M47.18,25.56c-0.18,0.37-0.61,0.52-0.97,0.34c-0.36-0.18-0.51-0.62-0.33-0.99
				c0.18-0.37,0.61-0.52,0.97-0.34C47.21,24.75,47.36,25.19,47.18,25.56z"/>
			<path class="st25" d="M46.35,65.76c-0.18,0.37-0.61,0.52-0.97,0.34c-0.36-0.18-0.51-0.62-0.33-0.99
				c0.18-0.37,0.61-0.52,0.97-0.34C46.38,64.95,46.52,65.39,46.35,65.76z"/>
			<path class="st25" d="M60.54,32.12c-0.38,0.13-0.79-0.07-0.92-0.46c-0.13-0.39,0.07-0.81,0.45-0.94
				c0.38-0.13,0.79,0.07,0.92,0.46C61.11,31.57,60.91,31.99,60.54,32.12z"/>
			<path class="st25" d="M32.16,59.94c-0.38,0.13-0.79-0.07-0.92-0.46c-0.13-0.39,0.07-0.81,0.45-0.94
				c0.38-0.13,0.79,0.07,0.92,0.46C32.74,59.39,32.54,59.81,32.16,59.94z"/>
			<path class="st25" d="M65.44,46.42c-0.36-0.18-0.51-0.62-0.33-0.99c0.18-0.37,0.61-0.52,0.97-0.34c0.36,0.18,0.51,0.62,0.33,0.99
				C66.24,46.45,65.8,46.6,65.44,46.42z"/>
			<path class="st25" d="M26.15,45.57c-0.36-0.18-0.51-0.62-0.33-0.99c0.18-0.37,0.61-0.52,0.97-0.34c0.36,0.18,0.51,0.62,0.33,0.99
				C26.94,45.6,26.51,45.75,26.15,45.57z"/>
			<path class="st25" d="M59.03,60.08c-0.13-0.39,0.07-0.81,0.45-0.94c0.38-0.13,0.79,0.07,0.92,0.46c0.13,0.39-0.07,0.81-0.45,0.94
				C59.57,60.68,59.16,60.47,59.03,60.08z"/>
			<path class="st25" d="M31.83,31.06c-0.13-0.39,0.07-0.81,0.45-0.94c0.38-0.13,0.79,0.07,0.92,0.46c0.13,0.39-0.07,0.81-0.45,0.94
				C32.37,31.65,31.96,31.44,31.83,31.06z"/>
			<g>
				<path class="st25" d="M63.9,49.48C61.91,59.1,51.84,66,42.15,63.37C26.61,59.49,23.29,38.12,36.7,29.5
					C50.8,20.6,67.56,33.61,63.9,49.48L63.9,49.48z M63.85,49.46c3.47-15.45-13.24-28.13-26.9-19.57
					c-8.22,5.01-10.99,16.78-5.85,24.94C39.47,68.64,60.23,65.08,63.85,49.46L63.85,49.46z"/>
			</g>
		</g>
		<g>
			<path class="st23" d="M47.9,45.81c1.69-5.12,3.39-10.23,5.08-15.35c-2.61,4.71-5.23,9.42-7.84,14.13
				C46.06,45,46.98,45.4,47.9,45.81z"/>
			<g>
				<path class="st27" d="M45.15,44.59c-1.48,5.01-2.96,10.01-4.45,15.02c2.38-4.61,4.76-9.21,7.14-13.82
					c-0.43-0.18-0.87-0.37-1.31-0.57C46.06,45.02,45.6,44.8,45.15,44.59z"/>
				<path class="st28" d="M45.15,44.6c-1.36,4.99-2.96,10.07-4.41,15.02c0.83-2.21,2.36-4.68,3.44-6.96
					c1.18-2.31,2.38-4.61,3.6-6.89c0,0,0.03,0.08,0.03,0.08C46.9,45.45,46.04,45.04,45.15,44.6L45.15,44.6z M45.14,44.58
					c0,0,2.72,1.16,2.72,1.16c0.06,0.03,0.07,0,0.03,0.08c-2.36,4.55-4.68,9.49-7.23,13.78C42.13,54.69,43.57,49.49,45.14,44.58
					L45.14,44.58z"/>
			</g>
		</g>
	</g>
</g>
</svg>
