<?xml version="1.0" encoding="utf-8"?>
<!-- Generator: Adobe Illustrator 26.2.1, SVG Export Plug-In . SVG Version: 6.00 Build 0)  -->
<svg version="1.1" id="Camada_1" xmlns="http://www.w3.org/2000/svg" xmlns:xlink="http://www.w3.org/1999/xlink" x="0px" y="0px"
	 viewBox="0 0 95.02 129.78" style="enable-background:new 0 0 95.02 129.78;" xml:space="preserve">
<style type="text/css">
	.st0{fill:#ABA081;}
	.st1{fill:none;stroke:#ABA081;stroke-width:0.25;stroke-miterlimit:10;}
	.st2{fill-rule:evenodd;clip-rule:evenodd;fill:none;stroke:#ABA081;stroke-width:0.25;stroke-miterlimit:10;}
	.st3{fill-rule:evenodd;clip-rule:evenodd;fill:none;stroke:#B09D8A;stroke-width:0.3;stroke-miterlimit:10;}
	.st4{opacity:0.18;fill-rule:evenodd;clip-rule:evenodd;fill:none;stroke:#B09D8A;stroke-width:0.3;stroke-miterlimit:10;}
	.st5{opacity:0.18;fill:none;stroke:#ABA081;stroke-width:0.25;stroke-miterlimit:10;}
	.st6{opacity:0.18;fill-rule:evenodd;clip-rule:evenodd;fill:none;stroke:#ABA081;stroke-width:0.25;stroke-miterlimit:10;}
	.st7{clip-path:url(#SVGID_00000168822096354446057000000014059394473468913593_);}
	.st8{fill-rule:evenodd;clip-rule:evenodd;fill:#F9F7DE;stroke:#ABA081;stroke-width:0.25;stroke-miterlimit:10;}
	.st9{opacity:0.77;}
	.st10{fill:none;stroke:#A89D7F;stroke-width:0.1;stroke-miterlimit:10;}
	.st11{opacity:0.54;}
	.st12{fill:none;stroke:#ABA081;stroke-width:0.1;stroke-miterlimit:10;}
	.st13{fill:none;stroke:#A99F80;stroke-width:0.3;stroke-miterlimit:10;}
	.st14{fill:#A99F80;}
	.st15{fill:#FAF8DF;stroke:#A99F80;stroke-width:0.5;stroke-miterlimit:10;}
	.st16{fill:#FAF8DF;}
	.st17{fill:#A79D7E;}
	.st18{fill:#AEA484;}
	.st19{fill:none;stroke:#AEA484;stroke-width:0.25;stroke-miterlimit:10;}
	.st20{fill-rule:evenodd;clip-rule:evenodd;fill:none;stroke:#AEA484;stroke-width:0.25;stroke-miterlimit:10;}
	.st21{fill-rule:evenodd;clip-rule:evenodd;fill:none;stroke:#B2A08D;stroke-width:0.3;stroke-miterlimit:10;}
	.st22{opacity:0.18;fill-rule:evenodd;clip-rule:evenodd;fill:none;stroke:#B2A08D;stroke-width:0.3;stroke-miterlimit:10;}
	.st23{opacity:0.18;fill:none;stroke:#AEA484;stroke-width:0.25;stroke-miterlimit:10;}
	.st24{opacity:0.18;fill-rule:evenodd;clip-rule:evenodd;fill:none;stroke:#AEA484;stroke-width:0.25;stroke-miterlimit:10;}
	.st25{clip-path:url(#SVGID_00000105416327097034839900000008950944944712193441_);}
	.st26{fill-rule:evenodd;clip-rule:evenodd;fill:#FFFBE2;stroke:#AEA484;stroke-width:0.25;stroke-miterlimit:10;}
	.st27{fill:#ED7858;}
	.st28{clip-path:url(#SVGID_00000124157346777724638470000006993245073270494621_);}
</style>
<g>
	<g>
		<g>
			<path class="st0" d="M67.96,45.06c-0.03,19.93-23.33,30.25-37.48,15.77c-8.37-8.43-8.51-23.18-0.1-31.64
				C44.51,14.71,67.99,25.19,67.96,45.06L67.96,45.06z M67.91,45.06c-0.1-19.45-23.38-29.58-37.2-15.54
				c-8.31,8.23-8.46,22.91-0.1,31.19C44.4,74.75,67.87,64.45,67.91,45.06L67.91,45.06z"/>
		</g>
	</g>
	<g>
		<path class="st1" d="M44.57,18.78c0.03-0.19,0.06-0.38,0.09-0.57c-0.16-0.12-0.36-0.29-0.58-0.52c-0.22-0.24-0.6-0.66-0.82-1.33
			c-0.3-0.89-0.13-1.65-0.1-1.81c0.06-0.24,0.2-0.83,0.71-1.37c0.48-0.51,1.01-0.69,1.35-0.79c0.65-0.21,1.18-0.19,1.37-0.17
			c0.24,0.02,0.91,0.09,1.62,0.54c0.26,0.16,0.85,0.54,1.26,1.32c0.12,0.22,0.49,0.94,0.38,1.9c-0.03,0.29-0.12,1.03-0.71,1.62
			c-0.25,0.25-0.51,0.39-0.69,0.47c0.01,0.1,0.02,0.2,0.04,0.32c0.04,0.2,0.09,0.37,0.15,0.52"/>
		<path class="st1" d="M45.17,17.54c-0.18-0.11-0.44-0.3-0.69-0.59c-0.18-0.21-0.54-0.62-0.65-1.27c-0.03-0.15-0.15-0.97,0.37-1.72
			c0.46-0.66,1.13-0.84,1.45-0.92c0.87-0.23,1.58,0.03,1.73,0.09c0.22,0.09,1.03,0.43,1.48,1.33c0.1,0.21,0.32,0.65,0.28,1.24
			c-0.07,1.04-0.86,1.66-1,1.76c-0.14-0.15-0.38-0.38-0.75-0.51c-0.59-0.2-1.12-0.01-1.39,0.09C45.62,17.18,45.35,17.38,45.17,17.54
			z"/>
		<g>
			<g>
				<path class="st0" d="M71.11,51.05c-5.24,22.88-34.99,28.04-47.17,7.78c-11.8-19.67,5.25-44.93,28.04-39.54
					C65.76,22.38,74.47,37.51,71.11,51.05L71.11,51.05z M71.08,51.05C76.1,28.67,52.18,10.37,32.36,22.8
					c-11.86,7.29-15.71,24.22-8.34,35.99C36.16,78.8,65.8,73.71,71.08,51.05L71.08,51.05z"/>
			</g>
		</g>
		<g>
			<g>
				<path class="st0" d="M69.78,50.71c-4.95,21.65-33.1,26.54-44.63,7.37c-11.16-18.62,4.96-42.51,26.54-37.42
					C64.69,23.54,72.99,37.95,69.78,50.71L69.78,50.71z M69.76,50.71c4.75-21.17-17.89-38.47-36.64-26.72
					c-11.21,6.89-14.86,22.91-7.89,34.05C36.72,76.96,64.76,72.14,69.76,50.71L69.76,50.71z"/>
			</g>
		</g>
	</g>
	<path class="st13" d="M44.75,41.81c0.72-3.88,1.45-7.75,2.17-11.63c0.49,4.04,0.98,8.07,1.47,12.11c1.85-1.24,3.71-2.49,5.56-3.73
		c-1.37,1.68-2.73,3.37-4.1,5.05c3.8,0.73,7.6,1.45,11.4,2.18c-3.9,0.5-7.79,0.99-11.69,1.49c1.17,1.9,2.34,3.8,3.5,5.7
		c-1.65-1.4-3.29-2.8-4.94-4.2c-0.71,3.89-1.41,7.78-2.12,11.67c-0.49-4.04-0.98-8.07-1.47-12.11c-1.85,1.24-3.71,2.49-5.56,3.73
		c1.37-1.68,2.73-3.37,4.1-5.05c-3.8-0.73-7.6-1.45-11.4-2.18c3.94-0.5,7.89-1,11.83-1.5c-1.22-1.9-2.43-3.79-3.65-5.69
		C41.49,39.04,43.12,40.43,44.75,41.81z"/>
	<path class="st13" d="M44.75,41.81c0.72-3.88,1.45-7.75,2.17-11.63c0.49,4.04,0.98,8.07,1.47,12.11c1.85-1.24,3.71-2.49,5.56-3.73
		c-1.37,1.68-2.73,3.37-4.1,5.05c3.8,0.73,7.6,1.45,11.4,2.18c-3.9,0.5-7.79,0.99-11.69,1.49c1.17,1.9,2.34,3.8,3.5,5.7
		c-1.65-1.4-3.29-2.8-4.94-4.2c-0.71,3.89-1.41,7.78-2.12,11.67c-0.49-4.04-0.98-8.07-1.47-12.11c-1.85,1.24-3.71,2.49-5.56,3.73
		c1.37-1.68,2.73-3.37,4.1-5.05c-3.8-0.73-7.6-1.45-11.4-2.18c3.94-0.5,7.89-1,11.83-1.5c-1.22-1.9-2.43-3.79-3.65-5.69
		C41.49,39.04,43.12,40.43,44.75,41.81z"/>
	<g>
		<path class="st14" d="M47.2,25.58c-0.18,0.37-0.61,0.52-0.97,0.34c-0.36-0.18-0.51-0.62-0.33-0.99c0.18-0.37,0.61-0.52,0.97-0.34
			C47.23,24.77,47.38,25.21,47.2,25.58z"/>
		<path class="st14" d="M46.37,65.78c-0.18,0.37-0.61,0.52-0.97,0.34c-0.36-0.18-0.51-0.62-0.33-0.99c0.18-0.37,0.61-0.52,0.97-0.34
			C46.4,64.97,46.55,65.41,46.37,65.78z"/>
		<path class="st14" d="M60.56,32.14c-0.38,0.13-0.79-0.07-0.92-0.46c-0.13-0.39,0.07-0.81,0.45-0.94s0.79,0.07,0.92,0.46
			C61.14,31.59,60.94,32.01,60.56,32.14z"/>
		<path class="st14" d="M32.19,59.97c-0.38,0.13-0.79-0.07-0.92-0.46c-0.13-0.39,0.07-0.81,0.45-0.94c0.38-0.13,0.79,0.07,0.92,0.46
			C32.77,59.41,32.57,59.83,32.19,59.97z"/>
		<path class="st14" d="M65.47,46.44c-0.36-0.18-0.51-0.62-0.33-0.99c0.18-0.37,0.61-0.52,0.97-0.34c0.36,0.18,0.51,0.62,0.33,0.99
			C66.26,46.47,65.83,46.62,65.47,46.44z"/>
		<path class="st14" d="M26.18,45.59c-0.36-0.18-0.51-0.62-0.33-0.99c0.18-0.37,0.61-0.52,0.97-0.34c0.36,0.18,0.51,0.62,0.33,0.99
			C26.97,45.62,26.53,45.77,26.18,45.59z"/>
		<path class="st14" d="M59.06,60.11c-0.13-0.39,0.07-0.81,0.45-0.94c0.38-0.13,0.79,0.07,0.92,0.46c0.13,0.39-0.07,0.81-0.45,0.94
			C59.59,60.7,59.18,60.49,59.06,60.11z"/>
		<path class="st14" d="M31.86,31.08c-0.13-0.39,0.07-0.81,0.45-0.94c0.38-0.13,0.79,0.07,0.92,0.46c0.13,0.39-0.07,0.81-0.45,0.94
			C32.4,31.67,31.99,31.47,31.86,31.08z"/>
		<g>
			<path class="st14" d="M63.92,49.5c-1.99,9.62-12.06,16.53-21.75,13.89c-15.53-3.88-18.86-25.25-5.45-33.87
				C50.83,20.63,67.58,33.63,63.92,49.5L63.92,49.5z M63.87,49.49c3.47-15.45-13.24-28.13-26.9-19.57
				c-8.22,5.01-10.99,16.78-5.85,24.94C39.49,68.67,60.26,65.11,63.87,49.49L63.87,49.49z"/>
		</g>
	</g>
	<g>
		<path class="st14" d="M47.18,47.14c5.27-2.65,10.54-5.31,15.81-7.96c-5.71,1.62-11.42,3.25-17.13,4.88
			C46.3,45.08,46.74,46.11,47.18,47.14z"/>
		<g>
			<path class="st16" d="M45.86,44.05c-5.13,2.78-10.25,5.56-15.38,8.34c5.54-1.76,11.07-3.51,16.61-5.27
				C46.68,46.1,46.27,45.07,45.86,44.05z"/>
			<path class="st17" d="M45.86,44.06c-5.01,2.87-10.29,5.61-15.35,8.37c5.12-2.02,11.11-3.64,16.56-5.39c0,0-0.05,0.1-0.05,0.1
				S45.86,44.06,45.86,44.06L45.86,44.06z M45.87,44.04l1.29,3.05c0.03,0.08,0.06,0.07-0.05,0.1c-5.48,1.73-11.25,3.83-16.66,5.15
				C35.5,49.62,40.75,46.66,45.87,44.04L45.87,44.04z"/>
		</g>
	</g>
	<g>
		<path class="st14" d="M47.18,47.14c5.27-2.65,10.54-5.31,15.81-7.96c-5.71,1.62-11.42,3.25-17.13,4.88
			C46.3,45.08,46.74,46.11,47.18,47.14z"/>
		<g>
			<path class="st16" d="M45.86,44.05c-5.13,2.78-10.25,5.56-15.38,8.34c5.54-1.76,11.07-3.51,16.61-5.27
				C46.68,46.1,46.27,45.07,45.86,44.05z"/>
			<path class="st17" d="M45.86,44.06c-5.01,2.87-10.29,5.61-15.35,8.37c5.12-2.02,11.11-3.64,16.56-5.39c0,0-0.05,0.1-0.05,0.1
				S45.86,44.06,45.86,44.06L45.86,44.06z M45.87,44.04l1.29,3.05c0.03,0.08,0.06,0.07-0.05,0.1c-5.48,1.73-11.25,3.83-16.66,5.15
				C35.5,49.62,40.75,46.66,45.87,44.04L45.87,44.04z"/>
		</g>
	</g>
</g>
</svg>
