<?xml version="1.0" encoding="utf-8"?>
<!-- Generator: Adobe Illustrator 26.2.1, SVG Export Plug-In . SVG Version: 6.00 Build 0)  -->
<svg version="1.1" id="Camada_1" xmlns="http://www.w3.org/2000/svg" xmlns:xlink="http://www.w3.org/1999/xlink" x="0px" y="0px"
	 viewBox="0 0 95.02 129.78" style="enable-background:new 0 0 95.02 129.78;" xml:space="preserve">
<style type="text/css">
	.st0{fill:#ABA081;}
	.st1{fill:none;stroke:#ABA081;stroke-width:0.25;stroke-miterlimit:10;}
	.st2{fill-rule:evenodd;clip-rule:evenodd;fill:none;stroke:#ABA081;stroke-width:0.25;stroke-miterlimit:10;}
	.st3{fill-rule:evenodd;clip-rule:evenodd;fill:none;stroke:#B09D8A;stroke-width:0.3;stroke-miterlimit:10;}
	.st4{opacity:0.18;fill-rule:evenodd;clip-rule:evenodd;fill:none;stroke:#B09D8A;stroke-width:0.3;stroke-miterlimit:10;}
	.st5{opacity:0.18;fill:none;stroke:#ABA081;stroke-width:0.25;stroke-miterlimit:10;}
	.st6{opacity:0.18;fill-rule:evenodd;clip-rule:evenodd;fill:none;stroke:#ABA081;stroke-width:0.25;stroke-miterlimit:10;}
	.st7{clip-path:url(#SVGID_00000170260877384605346080000000045802549075867321_);}
	.st8{fill-rule:evenodd;clip-rule:evenodd;fill:#F9F7DE;stroke:#ABA081;stroke-width:0.25;stroke-miterlimit:10;}
	.st9{opacity:0.77;}
	.st10{fill:none;stroke:#A89D7F;stroke-width:0.1;stroke-miterlimit:10;}
	.st11{opacity:0.54;}
	.st12{fill:none;stroke:#ABA081;stroke-width:0.1;stroke-miterlimit:10;}
	.st13{fill:#ED7858;}
</style>
<g>
	<g>
		<g>
			<g>
				<g>
					<g>
						<g>
							<path class="st12" d="M45.2,40.68c0,0,9.25-6.95,15.47-5.65c6.22,1.3,11.64,6.7,11.98,9.12c0.46,3.26-3.64,4.13-10.01,2.82
								S45.2,40.68,45.2,40.68z"/>
						</g>
						<g>
							<g>
								<path class="st12" d="M45.2,40.68c1.09-0.84,2.21-1.6,3.36-2.29c1.14-0.7,2.3-1.33,3.48-1.89c1.18-0.55,2.38-1.02,3.61-1.37
									c1.22-0.35,2.47-0.56,3.73-0.53c0.31,0.01,0.63,0.03,0.94,0.08c0.32,0.05,0.63,0.11,0.93,0.18
									c0.62,0.15,1.23,0.34,1.83,0.56c1.21,0.45,2.4,1.03,3.54,1.75c1.15,0.71,2.26,1.55,3.31,2.54c0.52,0.49,1.03,1.03,1.51,1.62
									c0.24,0.3,0.47,0.61,0.69,0.95c0.22,0.34,0.42,0.71,0.59,1.14c0.08,0.22,0.15,0.46,0.18,0.73c0.03,0.25,0.04,0.51,0.02,0.77
									c-0.02,0.26-0.08,0.52-0.16,0.76c-0.08,0.23-0.2,0.44-0.32,0.62c-0.25,0.36-0.55,0.6-0.85,0.79
									c-0.3,0.19-0.61,0.32-0.93,0.43c-0.62,0.21-1.25,0.31-1.88,0.36c-0.63,0.05-1.25,0.05-1.88,0.03
									c-1.25-0.06-2.49-0.24-3.72-0.48c-0.62-0.12-1.23-0.26-1.84-0.42c-0.61-0.16-1.22-0.34-1.83-0.53
									c-1.21-0.38-2.42-0.79-3.62-1.23c-1.2-0.44-2.4-0.92-3.59-1.4c-1.19-0.49-2.38-1-3.56-1.52l-1.77-0.79
									C46.38,41.24,45.79,40.97,45.2,40.68z M45.2,40.68c0.59,0.25,1.19,0.49,1.79,0.72l1.79,0.71c1.19,0.47,2.39,0.92,3.59,1.36
									c1.2,0.44,2.4,0.88,3.6,1.28c1.2,0.41,2.41,0.8,3.62,1.14c1.21,0.34,2.43,0.65,3.65,0.87c1.22,0.22,2.45,0.38,3.68,0.43
									c0.61,0.02,1.23,0.02,1.84-0.03c0.61-0.05,1.21-0.15,1.8-0.35c0.29-0.1,0.57-0.23,0.84-0.39c0.26-0.17,0.51-0.38,0.7-0.64
									c0.09-0.13,0.17-0.28,0.23-0.44c0.06-0.16,0.09-0.33,0.11-0.51c0.01-0.18,0.01-0.37-0.02-0.56
									c-0.02-0.17-0.07-0.34-0.13-0.52c-0.13-0.35-0.31-0.68-0.51-1c-0.2-0.31-0.42-0.61-0.65-0.9c-0.46-0.57-0.95-1.09-1.46-1.57
									c-1.02-0.97-2.11-1.79-3.23-2.5c-1.12-0.71-2.28-1.3-3.46-1.76c-0.59-0.23-1.19-0.42-1.79-0.58c-0.3-0.08-0.6-0.15-0.9-0.2
									c-0.3-0.05-0.61-0.08-0.91-0.1c-1.22-0.06-2.45,0.13-3.66,0.43c-1.21,0.3-2.41,0.74-3.59,1.24
									C49.74,37.84,47.44,39.16,45.2,40.68z"/>
							</g>
						</g>
					</g>
				</g>
				<g>
					<g>
						<g>
							<g>
								<path class="st12" d="M45.41,71.64c-0.81,0-1.51-0.01-2.07-0.03c-6.14-0.22-13.25-2.35-15.07-3.44
									c-1.06-0.63-1.33-1.74-1.37-2.56c-0.03-0.65,0.08-1.21,0.13-1.46L23.79,51.7c-0.01,0-0.02,0-0.03,0
									c-0.69,0-1.76-0.36-2.01-1.81c-0.13-0.72-0.08-1.29,0.14-1.69c0.02-0.03,0.04-0.06,0.05-0.09
									c-0.25-0.18-0.53-0.44-0.69-0.83c-0.16-0.38-0.2-0.81-0.1-1.27c0.27-1.35,0.94-3.45,3.59-6.06
									c1.97-1.94,6.18-4.83,12.34-2.44c1.59,0.62,3.52,1.41,5.55,2.25c5.14,2.12,10.96,4.51,13.98,5.13
									c1.21,0.25,2.56,0.6,3.99,0.96c3.42,0.88,7.31,1.88,9.44,1.43c1.47-0.32,2.08-0.99,2.33-1.5c0.24-0.48,0.19-0.89,0.19-0.9
									l-0.21-1.5l0.66,1.21c0.01,0.02,0.97,1.84,0.03,3.95c0.21,0.03,0.44,0.14,0.61,0.38c0.22,0.32,0.28,0.8,0.17,1.41
									c-0.29,1.67-1.73,2.25-2.19,2.4l-3.84,12.91c0.33,0.85,0.56,2.52-0.58,3.79C65.82,70.96,52.02,71.64,45.41,71.64z
									 M24.13,50.94l0.07,0.26l3.37,12.95l-0.04,0.13c-0.03,0.09-0.63,2.29,0.93,3.22c1.79,1.07,8.8,3.17,14.89,3.38
									c3.19,0.11,8.78-0.05,13.59-0.4c8.42-0.61,9.74-1.4,9.94-1.63c1.17-1.3,0.43-2.92,0.4-2.99l-0.08-0.16l4.05-13.61l0.14-0.03
									c0.02,0,1.66-0.42,1.92-1.9c0.04-0.24,0.07-0.56-0.04-0.72c-0.16-0.24-0.59-0.18-0.72-0.14l-0.77,0.24l0.52-0.83
									c0.67-1.07,0.69-2.07,0.58-2.76c-0.03,0.08-0.07,0.17-0.11,0.26c-0.45,0.91-1.34,1.51-2.67,1.8
									c-2.21,0.48-5.97-0.49-9.6-1.43c-1.42-0.37-2.77-0.71-3.97-0.96c-3.06-0.63-8.9-3.03-14.05-5.15
									c-2.03-0.84-3.95-1.63-5.54-2.24c-5.96-2.31-10.03,0.47-11.92,2.34c-2.52,2.48-3.14,4.42-3.39,5.67
									c-0.05,0.27-0.04,0.49,0.05,0.7c0.21,0.49,0.77,0.75,0.97,0.8l-0.05,0.72c0,0-0.2,0.01-0.32,0.23
									c-0.11,0.21-0.13,0.58-0.04,1.06c0.25,1.41,1.69,1.25,1.7,1.25L24.13,50.94z"/>
							</g>
						</g>
					</g>
				</g>
				<g>
					<g>
						<g>
							<path class="st12" d="M23.99,51.01c0.05-0.74,0.32-1.54,0.62-2.14c0.95-1.87,2.62-2.9,4.2-3.45
								c4.03-1.36,8.97-0.39,12.99,0.98c7.05,2.44,12.55,6.09,18.85,7.13c3.76,0.59,9.49,0.47,12.66-2.44
								c-3.02,3.04-8.75,3.52-12.7,2.97c-4.4-0.62-8.19-2.44-12.68-4.42c-4.79-2.13-12.85-5.72-19.07-3.87
								c-1.55,0.46-3.21,1.37-4.19,3.16C24.35,49.51,24.06,50.28,23.99,51.01z"/>
						</g>
					</g>
				</g>
				<g>
					<g>
						<g>
							<path class="st12" d="M27.15,63.49c7.65,2.74,18.89,4.48,30.87,3.77c2.91-0.26,6.58-0.61,9.33-2.25
								c-3.77,2.82-12.05,3.15-16.3,3.1c-3.97-0.08-4.84-0.15-8.27-0.51C37.75,66.91,31.97,65.71,27.15,63.49z"/>
						</g>
					</g>
				</g>
				<g>
					<g>
						<g>
							<path class="st12" d="M26.24,46.98c1.35,4.81,2.83,11.38,4.55,17.38C28.8,60.06,26.9,51.97,26.24,46.98z"/>
						</g>
					</g>
				</g>
				<g>
					<g>
						<g>
							<path class="st12" d="M29.85,45.21c1.18,6.57,1.96,13.01,3.82,20.24C31.65,60.05,30.03,50.99,29.85,45.21z"/>
						</g>
					</g>
				</g>
				<g>
					<g>
						<g>
							<path class="st12" d="M34.13,44.87c1.27,7.54,2.02,15.61,3.63,22.1C35.74,61.61,34.4,50.82,34.13,44.87z"/>
						</g>
					</g>
				</g>
				<g>
					<g>
						<g>
							<path class="st12" d="M39.44,45.9l0.61,5.24c0.11,0.87,0.2,1.74,0.32,2.61c0.11,0.87,0.22,1.74,0.33,2.6
								c0.05,0.43,0.12,0.87,0.17,1.3l0.18,1.3l0.36,2.6c0.25,1.73,0.48,3.47,0.75,5.2c-0.24-0.82-0.43-1.67-0.62-2.51
								c-0.18-0.85-0.35-1.7-0.51-2.56c-0.16-0.86-0.3-1.72-0.44-2.59c-0.14-0.86-0.26-1.73-0.38-2.61
								c-0.05-0.44-0.11-0.87-0.16-1.31c-0.05-0.44-0.1-0.88-0.15-1.32c-0.09-0.88-0.17-1.76-0.24-2.64
								C39.53,49.45,39.44,47.68,39.44,45.9z"/>
						</g>
					</g>
				</g>
				<g>
					<g>
						<g>
							<path class="st12" d="M46.26,49.16c0.17,1.53,0.28,3.06,0.39,4.6c0.1,1.54,0.18,3.07,0.24,4.61
								c0.06,1.54,0.11,3.08,0.14,4.62c0.02,1.54,0.03,3.09-0.01,4.63c-0.17-1.53-0.28-3.06-0.39-4.6c-0.1-1.54-0.18-3.07-0.24-4.61
								c-0.06-1.54-0.11-3.08-0.14-4.62C46.23,52.25,46.22,50.7,46.26,49.16z"/>
						</g>
					</g>
				</g>
				<g>
					<g>
						<g>
							<path class="st12" d="M52.48,67.62c-0.21-4.25-0.07-12.13,0.15-16.29C53.08,55.76,52.94,63.3,52.48,67.62z"/>
						</g>
					</g>
				</g>
				<g>
					<g>
						<g>
							<path class="st12" d="M58.24,67.84c0.1-3.84,0.85-10.47,1.52-14.12C59.75,57.6,59,64.2,58.24,67.84z"/>
						</g>
					</g>
				</g>
				<g>
					<g>
						<g>
							<path class="st12" d="M62.34,66.75c0.49-3.35,1.87-9.25,2.73-12.38C64.83,57.91,63.48,63.65,62.34,66.75z"/>
						</g>
					</g>
				</g>
				<g>
					<g>
						<g>
							<path class="st12" d="M65.83,65.88c0.66-3.51,2.29-9.32,3.34-12.6C68.76,56.86,67.1,62.77,65.83,65.88z"/>
						</g>
					</g>
				</g>
				<g>
					<g>
						<g>
							<path class="st12" d="M26.39,61.1c13.06,4.19,28.19,4.41,41.56,2.39c-4.92,1.21-12.16,2.11-20.87,1.88
								C38.87,65.04,31.1,63.07,26.39,61.1z"/>
						</g>
					</g>
				</g>
				<g>
					<g>
						<g>
							<path class="st12" d="M26.09,59.37c16.91,3.7,27.05,3.96,42.47,2.17c-6.46,1.3-13.47,1.87-19.97,1.75
								C40.88,62.94,32.32,61.31,26.09,59.37z"/>
						</g>
					</g>
				</g>
				<g>
					<g>
						<g>
							<path class="st12" d="M25.18,57.41c12.44,3.25,26.01,2.78,43.68,2.82c-5.87,0.48-15.05,0.79-24.65,0.5
								C38.05,60.38,31.09,59.5,25.18,57.41z"/>
						</g>
					</g>
				</g>
				<g>
					<g>
						<g>
							<path class="st12" d="M24.88,55.89c10.69,1.83,31.18,3,44.9,1.52C56.74,59.94,35.68,58.57,24.88,55.89z"/>
						</g>
					</g>
				</g>
				<g>
					<g>
						<g>
							<path class="st12" d="M24.42,53.94c8.64,1.86,31.67,3.03,46.26,1.09C57.64,57.86,34.75,56.9,24.42,53.94z"/>
						</g>
					</g>
				</g>
				<g>
					<g>
						<g>
							<path class="st12" d="M24.27,52.41c5.37,0.26,11.31,0.74,17.14,1.13c5.77,0.41,6.76,0.31,17.14,0.18
								c-8.83,1.05-13.79,0.76-17.16,0.55C34.61,53.78,28.54,53.07,24.27,52.41z"/>
						</g>
					</g>
				</g>
				<g>
					<g>
						<g>
							<path class="st12" d="M25.03,51.33c1.63-0.81,4.17-1.5,6.9-1.58c2.2-0.09,4.17,0.25,6.98,0.62
								c4.22,0.56,9.47,1.25,13.88,2.05C36.95,51.62,32.24,48.82,25.03,51.33z"/>
						</g>
					</g>
				</g>
				<g>
					<g>
						<g>
							<path class="st12" d="M24.42,50.02c0.78-0.73,1.62-1.23,2.48-1.69c8.02-4.34,17.7,2.27,22.09,1.48
								c-5.08,1.66-14.57-5.68-23.86-0.26C24.89,49.7,24.65,49.85,24.42,50.02z"/>
						</g>
					</g>
				</g>
				<g>
					<g>
						<g>
							<path class="st12" d="M45.34,44.87c0.74-0.19,1.48-0.27,2.23-0.31c0.75-0.04,1.49-0.02,2.24,0.05
								c0.75,0.08,1.49,0.21,2.23,0.44c0.37,0.12,0.73,0.27,1.09,0.45c0.35,0.19,0.7,0.41,1.01,0.72c-0.36-0.16-0.71-0.28-1.08-0.37
								c-0.36-0.1-0.73-0.16-1.09-0.23c-0.73-0.12-1.46-0.21-2.2-0.28c-0.73-0.08-1.47-0.14-2.21-0.21
								C46.82,45.05,46.08,44.99,45.34,44.87z"/>
						</g>
					</g>
				</g>
				<g>
					<g>
						<g>
							<path class="st12" d="M49.75,44.81c0.89,0.54,1.77,1.11,2.64,1.69c0.87,0.58,1.74,1.18,2.6,1.77
								c0.87,0.59,1.73,1.18,2.6,1.77c0.87,0.58,1.74,1.15,2.62,1.73c-0.95-0.28-1.87-0.72-2.78-1.2c-0.91-0.49-1.79-1.04-2.66-1.64
								c-0.87-0.59-1.73-1.24-2.57-1.91C51.37,46.33,50.54,45.61,49.75,44.81z"/>
						</g>
					</g>
				</g>
				<g>
					<g>
						<g>
							<path class="st12" d="M53.69,47.63c0.66-0.24,1.34-0.34,2.01-0.39c0.68-0.05,1.35-0.04,2.03,0.03
								c0.67,0.07,1.35,0.19,2.01,0.37c0.66,0.18,1.32,0.43,1.96,0.75c-0.34-0.01-0.67-0.06-1.01-0.08c-0.34-0.03-0.67-0.08-1-0.11
								c-0.66-0.08-1.33-0.14-1.99-0.22c-0.66-0.07-1.33-0.13-1.99-0.19L53.69,47.63z"/>
						</g>
					</g>
				</g>
				<g>
					<g>
						<g>
							<path class="st12" d="M57.49,47.85c0.77,0.45,1.53,0.93,2.28,1.39c0.76,0.47,1.51,0.92,2.27,1.36
								c0.76,0.43,1.53,0.85,2.3,1.21c0.39,0.18,0.78,0.35,1.18,0.49c0.4,0.15,0.8,0.26,1.21,0.34c-0.41,0.08-0.84,0.06-1.25,0.01
								c-0.42-0.06-0.83-0.15-1.24-0.29c-0.82-0.26-1.61-0.64-2.39-1.08c-0.77-0.44-1.53-0.95-2.26-1.52
								C58.87,49.18,58.15,48.57,57.49,47.85z"/>
						</g>
					</g>
				</g>
				<g>
					<g>
						<g>
							<path class="st12" d="M61.13,50.46c0.43-0.4,0.89-0.71,1.36-0.97c0.47-0.26,0.96-0.47,1.45-0.64c0.49-0.17,1-0.27,1.51-0.32
								c0.51-0.04,1.02-0.02,1.53,0.13c-0.5,0.16-0.99,0.29-1.47,0.44c-0.48,0.15-0.97,0.3-1.45,0.46l-1.45,0.48
								C62.12,50.19,61.63,50.34,61.13,50.46z"/>
						</g>
					</g>
				</g>
				<g>
					<g>
						<g>
							<path class="st12" d="M63.55,49.37c0.6,0.23,1.19,0.48,1.78,0.72c0.59,0.25,1.17,0.48,1.76,0.7
								c0.59,0.22,1.18,0.41,1.77,0.56c0.3,0.08,0.6,0.13,0.9,0.17c0.3,0.04,0.61,0.05,0.92,0.03c-0.29,0.18-0.6,0.27-0.91,0.33
								c-0.31,0.05-0.63,0.07-0.95,0.04c-0.63-0.04-1.25-0.2-1.86-0.42c-0.6-0.23-1.2-0.52-1.77-0.87
								C64.63,50.27,64.07,49.87,63.55,49.37z"/>
						</g>
					</g>
				</g>
				<g>
					<g>
						<g>
							<path class="st12" d="M66.89,51.11c0.26-0.43,0.55-0.8,0.85-1.15c0.3-0.34,0.62-0.66,0.95-0.94
								c0.33-0.28,0.67-0.54,1.03-0.75c0.36-0.21,0.73-0.39,1.13-0.46c-0.31,0.35-0.62,0.66-0.94,0.96
								c-0.32,0.3-0.63,0.59-0.96,0.87c-0.33,0.28-0.66,0.55-1,0.8C67.61,50.69,67.26,50.92,66.89,51.11z"/>
						</g>
					</g>
				</g>
				<g>
					<g>
						<g>
							<path class="st12" d="M68.86,48.94c0.34,0.05,0.65,0.11,0.96,0.16c0.31,0.05,0.62,0.1,0.92,0.13
								c0.31,0.03,0.61,0.03,0.91,0.01c0.31-0.02,0.61-0.09,0.95-0.16c-0.24,0.34-0.55,0.59-0.88,0.72
								c-0.33,0.13-0.68,0.18-1.01,0.15c-0.34-0.03-0.67-0.14-0.98-0.3C69.42,49.48,69.12,49.26,68.86,48.94z"/>
						</g>
					</g>
				</g>
				<g>
					<g>
						<g>
							<path class="st12" d="M41.26,41.12c0.83,0.62,1.63,1.3,2.43,1.98c0.8,0.69,1.59,1.39,2.38,2.09l2.35,2.14
								c0.39,0.36,0.78,0.72,1.18,1.06c0.4,0.35,0.79,0.69,1.21,0.98c-0.46-0.14-0.9-0.4-1.33-0.66c-0.43-0.28-0.85-0.57-1.26-0.89
								c-0.83-0.63-1.63-1.31-2.42-2.02c-0.79-0.71-1.56-1.46-2.32-2.23C42.72,42.79,41.97,41.99,41.26,41.12z"/>
						</g>
					</g>
				</g>
				<g>
					<g>
						<g>
							<path class="st12" d="M38.68,41.12c0.59-0.23,1.2-0.34,1.81-0.39c0.61-0.04,1.23-0.01,1.84,0.08
								c0.61,0.09,1.21,0.28,1.8,0.53c0.15,0.07,0.29,0.14,0.44,0.21c0.14,0.07,0.29,0.17,0.43,0.25l0.21,0.13
								c0.07,0.05,0.14,0.1,0.2,0.15c0.13,0.11,0.27,0.21,0.4,0.33c-0.6-0.19-1.18-0.39-1.77-0.53c-0.59-0.14-1.17-0.27-1.77-0.36
								c-0.59-0.09-1.19-0.17-1.78-0.24L38.68,41.12z"/>
						</g>
					</g>
				</g>
				<g>
					<g>
						<g>
							<path class="st12" d="M36.25,39.96c0.59,0.41,1.14,0.86,1.7,1.33c0.55,0.47,1.09,0.96,1.63,1.47
								c0.54,0.5,1.07,1.02,1.59,1.54l0.4,0.39c0.13,0.13,0.26,0.26,0.4,0.39l0.2,0.2c0.07,0.06,0.13,0.12,0.2,0.19
								c0.13,0.14,0.27,0.24,0.41,0.37c-0.16-0.05-0.32-0.1-0.47-0.18c-0.08-0.04-0.15-0.08-0.23-0.12l-0.23-0.13
								c-0.15-0.09-0.3-0.19-0.44-0.29c-0.15-0.1-0.29-0.2-0.43-0.31c-0.57-0.43-1.12-0.91-1.66-1.42c-0.54-0.51-1.06-1.04-1.58-1.6
								C37.22,41.2,36.72,40.61,36.25,39.96z"/>
						</g>
					</g>
				</g>
				<g>
					<g>
						<g>
							<path class="st12" d="M32.76,41.26c0.48-0.44,1-0.75,1.54-1c0.54-0.24,1.1-0.41,1.67-0.49c0.14-0.02,0.28-0.03,0.43-0.04
								c0.14,0,0.29-0.01,0.43,0c0.29,0.01,0.57,0.04,0.85,0.11c0.56,0.13,1.12,0.37,1.61,0.77c-0.56-0.12-1.1-0.19-1.65-0.21
								c-0.27-0.01-0.54-0.01-0.81,0.01c-0.27,0.02-0.54,0.04-0.81,0.08c-0.54,0.07-1.08,0.18-1.62,0.32
								C33.86,40.95,33.32,41.1,32.76,41.26z"/>
						</g>
					</g>
				</g>
				<g>
					<g>
						<g>
							<path class="st12" d="M28.98,40.54c0.84-0.15,1.7-0.12,2.54-0.01c0.85,0.12,1.69,0.33,2.51,0.65
								c0.21,0.08,0.41,0.17,0.61,0.26c0.2,0.1,0.41,0.19,0.6,0.3c0.4,0.21,0.79,0.46,1.17,0.73c0.76,0.55,1.48,1.23,2.1,2.06
								c-0.74-0.58-1.49-1.1-2.27-1.54c-0.1-0.06-0.19-0.11-0.29-0.16l-0.29-0.16c-0.2-0.09-0.39-0.2-0.59-0.29
								c-0.39-0.19-0.79-0.36-1.19-0.51c-0.8-0.31-1.61-0.56-2.43-0.78C30.65,40.87,29.82,40.7,28.98,40.54z"/>
						</g>
					</g>
				</g>
				<g>
					<g>
						<g>
							<path class="st12" d="M25.48,42.57c0.64-0.39,1.33-0.63,2.02-0.8c0.69-0.16,1.39-0.24,2.1-0.22c0.7,0.02,1.41,0.15,2.09,0.41
								c0.34,0.13,0.68,0.3,1,0.49c0.32,0.21,0.63,0.45,0.92,0.73c-0.34-0.14-0.66-0.29-1-0.4c-0.33-0.11-0.67-0.21-1-0.27
								c-0.67-0.14-1.34-0.22-2.02-0.24c-0.68-0.02-1.36,0-2.04,0.06C26.86,42.39,26.18,42.47,25.48,42.57z"/>
						</g>
					</g>
				</g>
				<g>
					<g>
						<g>
							<path class="st12" d="M22.75,44.31c0.56-0.32,1.14-0.52,1.73-0.67c0.59-0.14,1.19-0.22,1.78-0.23
								c0.6-0.02,1.2,0.05,1.79,0.19c0.15,0.04,0.29,0.08,0.44,0.12c0.15,0.04,0.29,0.11,0.44,0.16c0.14,0.06,0.29,0.12,0.43,0.2
								c0.14,0.08,0.28,0.16,0.42,0.24c-0.6-0.06-1.18-0.14-1.76-0.16c-0.58-0.03-1.16-0.05-1.74-0.03
								c-0.58,0.01-1.16,0.04-1.75,0.07C23.94,44.24,23.35,44.28,22.75,44.31z"/>
						</g>
					</g>
				</g>
				<g>
					<g>
						<g>
							<path class="st12" d="M27.15,44.16c-0.48,0.17-0.94,0.36-1.39,0.58c-0.45,0.22-0.88,0.49-1.29,0.8
								c-0.21,0.16-0.41,0.32-0.6,0.51c-0.19,0.18-0.38,0.38-0.57,0.59c-0.37,0.42-0.71,0.89-1.05,1.4
								c0.17-0.67,0.44-1.29,0.78-1.82c0.17-0.27,0.36-0.51,0.56-0.73c0.2-0.22,0.42-0.41,0.64-0.58c0.45-0.34,0.93-0.58,1.42-0.71
								c0.25-0.06,0.5-0.1,0.75-0.11C26.66,44.07,26.91,44.08,27.15,44.16z"/>
						</g>
					</g>
				</g>
				<g>
					<g>
						<g>
							<g>
								<g>
									<path class="st12" d="M35.26,36.94c-1.36-0.16-2.72-0.33-4.08-0.49l-0.03-0.19c-0.01-0.07-1.2-7.34,0.76-14.13
										c1.04-3.61,2.7-6.15,5.06-7.76c2.53-1.73,5.92-2.43,10.37-2.17c3.93,0.24,7.06,1.92,9.28,5.02
										c1.89,2.64,2.7,5.71,3.09,7.19c0.91,3.47,0.48,9.82,0.46,10.09l-0.01,0.18l-3.46,0.48l0.09-0.33
										c0.02-0.06,1.64-5.9,0.15-11.53c-1.6-6.08-5.24-7.88-8.93-8.93c-2.08-0.59-9.14-1.92-12.58,5.75
										c-2.82,6.28-0.47,15.95-0.44,16.05C35.07,36.43,35.16,36.69,35.26,36.94z M31.62,36.04c1,0.12,2.01,0.24,3.01,0.35
										c-0.35-1.31-0.81-3.31-1-5.8c-0.23-2.98-0.44-6.67,1.33-10.59c1.34-2.99,3.39-4.98,6.08-5.92
										c2.14-0.75,4.67-0.78,7.13-0.09c2.45,0.7,4.26,1.62,5.68,2.9c1.69,1.53,2.87,3.61,3.59,6.36
										c1.31,4.97,0.25,10.09-0.07,11.41l2.31-0.32c0.06-1.07,0.35-6.7-0.46-9.79c-0.81-3.1-2.97-11.33-11.91-11.86
										c-8.36-0.5-12.82,2.37-14.91,9.59C30.64,28.36,31.45,34.86,31.62,36.04z"/>
								</g>
							</g>
						</g>
					</g>
					<path class="st12" d="M31.36,35.84c0.01-0.39,0.09-0.77,0.21-1.14c0.12-0.37,0.28-0.73,0.48-1.07c0.2-0.34,0.44-0.67,0.71-0.97
						c0.27-0.3,0.57-0.58,0.93-0.81c-0.19,0.35-0.4,0.68-0.6,1.01c-0.2,0.33-0.4,0.65-0.59,0.98c-0.19,0.33-0.38,0.66-0.56,0.99
						C31.75,35.16,31.57,35.49,31.36,35.84z"/>
					<g>
						<g>
							<g>
								<path class="st12" d="M30.94,29.7c0.05-0.37,0.17-0.72,0.33-1.05c0.16-0.34,0.36-0.65,0.6-0.95
									c0.24-0.3,0.51-0.57,0.81-0.82c0.3-0.25,0.64-0.46,1.01-0.62c-0.24,0.3-0.48,0.58-0.72,0.86c-0.24,0.28-0.47,0.56-0.7,0.84
									c-0.23,0.28-0.45,0.57-0.67,0.86C31.4,29.1,31.19,29.4,30.94,29.7z"/>
							</g>
						</g>
					</g>
					<g>
						<g>
							<g>
								<path class="st12" d="M31.79,23.11c0.09-0.32,0.25-0.62,0.44-0.9c0.19-0.28,0.42-0.54,0.68-0.78
									c0.26-0.24,0.54-0.45,0.85-0.63c0.31-0.18,0.64-0.34,1-0.43c-0.25,0.25-0.5,0.48-0.75,0.7l-0.74,0.67
									c-0.24,0.22-0.48,0.45-0.73,0.68C32.31,22.65,32.06,22.88,31.79,23.11z"/>
							</g>
						</g>
					</g>
					<g>
						<g>
							<g>
								<path class="st12" d="M34.32,17.03c0.15-0.26,0.38-0.48,0.63-0.67c0.26-0.18,0.55-0.33,0.87-0.43
									c0.31-0.1,0.64-0.16,0.98-0.17c0.33-0.01,0.67,0.03,0.97,0.15c-0.32,0.07-0.62,0.13-0.92,0.2
									c-0.29,0.07-0.58,0.15-0.86,0.24c-0.28,0.09-0.56,0.19-0.83,0.31C34.89,16.77,34.61,16.89,34.32,17.03z"/>
							</g>
						</g>
					</g>
					<g>
						<g>
							<g>
								<path class="st12" d="M39,13.27c0.23-0.24,0.55-0.41,0.89-0.51c0.35-0.1,0.72-0.12,1.08-0.08c0.36,0.04,0.72,0.15,1.02,0.32
									c0.31,0.17,0.57,0.41,0.72,0.69c-0.3-0.16-0.6-0.28-0.9-0.38c-0.3-0.09-0.6-0.16-0.91-0.19c-0.31-0.04-0.62-0.04-0.94-0.02
									C39.66,13.13,39.34,13.19,39,13.27z"/>
							</g>
						</g>
					</g>
					<g>
						<g>
							<g>
								<path class="st12" d="M45.52,12.39c0.27-0.03,0.54,0,0.79,0.07c0.25,0.07,0.5,0.18,0.71,0.32c0.22,0.14,0.41,0.31,0.56,0.5
									c0.15,0.19,0.27,0.41,0.32,0.65c-0.22-0.14-0.41-0.28-0.61-0.41c-0.19-0.13-0.38-0.26-0.57-0.38
									c-0.19-0.12-0.38-0.24-0.58-0.37C45.94,12.65,45.74,12.53,45.52,12.39z"/>
							</g>
						</g>
					</g>
					<g>
						<g>
							<g>
								<path class="st12" d="M50.64,13.02c0.34,0.02,0.66,0.14,0.95,0.3c0.29,0.16,0.54,0.38,0.74,0.62
									c0.2,0.25,0.35,0.52,0.44,0.82c0.08,0.29,0.11,0.6,0.03,0.89c-0.13-0.28-0.25-0.53-0.4-0.77c-0.14-0.24-0.3-0.47-0.48-0.68
									c-0.18-0.21-0.37-0.42-0.58-0.61C51.13,13.4,50.9,13.21,50.64,13.02z"/>
							</g>
						</g>
					</g>
					<g>
						<g>
							<g>
								<path class="st12" d="M55.5,16.2c0.2,0.18,0.33,0.39,0.41,0.62c0.09,0.23,0.13,0.47,0.13,0.71c0,0.24-0.05,0.48-0.14,0.71
									c-0.09,0.23-0.22,0.44-0.42,0.61c0-0.24,0.02-0.47,0.03-0.68c0.01-0.22,0.02-0.43,0.02-0.64c0-0.21,0-0.43-0.01-0.64
									C55.51,16.66,55.5,16.44,55.5,16.2z"/>
							</g>
						</g>
					</g>
					<g>
						<g>
							<g>
								<path class="st12" d="M58.41,20.74c0.12,0.26,0.17,0.53,0.17,0.81c0,0.28-0.06,0.55-0.16,0.81
									c-0.1,0.26-0.25,0.51-0.43,0.73c-0.19,0.22-0.41,0.42-0.69,0.55c0.12-0.26,0.24-0.49,0.34-0.73c0.11-0.23,0.21-0.47,0.3-0.7
									c0.09-0.24,0.17-0.47,0.25-0.72C58.26,21.25,58.32,21,58.41,20.74z"/>
							</g>
						</g>
					</g>
					<g>
						<g>
							<g>
								<path class="st12" d="M59.68,25.71c-0.06,0.32-0.17,0.62-0.31,0.91c-0.14,0.29-0.3,0.57-0.49,0.84
									c-0.19,0.27-0.4,0.52-0.64,0.76c-0.24,0.24-0.49,0.46-0.8,0.64c0.14-0.3,0.3-0.58,0.47-0.85c0.17-0.27,0.35-0.53,0.53-0.79
									c0.18-0.26,0.37-0.52,0.57-0.77C59.23,26.2,59.43,25.95,59.68,25.71z"/>
							</g>
						</g>
					</g>
					<g>
						<g>
							<g>
								<path class="st12" d="M59.99,31.05c0.02,0.33-0.07,0.65-0.2,0.96c-0.14,0.31-0.33,0.59-0.57,0.85
									c-0.24,0.25-0.52,0.48-0.84,0.65c-0.32,0.17-0.67,0.3-1.04,0.35c0.28-0.21,0.55-0.41,0.79-0.63
									c0.25-0.21,0.48-0.43,0.7-0.66c0.22-0.23,0.42-0.47,0.61-0.72C59.63,31.6,59.81,31.33,59.99,31.05z"/>
							</g>
						</g>
					</g>
				</g>
				<g>
					<g>
						<g>
							<path class="st12" d="M27.33,41.94c0.3-0.45,0.63-0.84,0.97-1.2c0.34-0.37,0.69-0.71,1.04-1.03c0.36-0.32,0.72-0.62,1.1-0.9
								c0.38-0.27,0.76-0.53,1.18-0.72c-0.3,0.45-0.63,0.84-0.97,1.2c-0.34,0.37-0.69,0.71-1.04,1.03c-0.36,0.32-0.72,0.62-1.1,0.9
								C28.13,41.49,27.74,41.75,27.33,41.94z"/>
						</g>
					</g>
				</g>
				<g>
					<g>
						<g>
							<path class="st12" d="M28.06,38.84c-0.27,0.5-0.57,0.95-0.88,1.39c-0.31,0.43-0.62,0.85-0.95,1.26
								c-0.32,0.4-0.65,0.8-0.99,1.18l-0.5,0.58c-0.17,0.2-0.33,0.38-0.47,0.62c0.02-0.16,0.07-0.31,0.12-0.45
								c0.05-0.14,0.11-0.28,0.17-0.41c0.13-0.26,0.26-0.51,0.41-0.75c0.29-0.47,0.6-0.91,0.93-1.32c0.33-0.41,0.67-0.79,1.03-1.15
								C27.28,39.44,27.65,39.11,28.06,38.84z"/>
						</g>
					</g>
				</g>
			</g>
		</g>
		<g>
			<g>
				<g>
					<g>
						<g>
							<path class="st12" d="M45.2,40.68c0,0,9.25-6.95,15.47-5.65c6.22,1.3,11.64,6.7,11.98,9.12c0.46,3.26-3.64,4.13-10.01,2.82
								S45.2,40.68,45.2,40.68z"/>
						</g>
						<g>
							<g>
								<path class="st12" d="M45.2,40.68c1.09-0.84,2.21-1.6,3.36-2.29c1.14-0.7,2.3-1.33,3.48-1.89c1.18-0.55,2.38-1.02,3.61-1.37
									c1.22-0.35,2.47-0.56,3.73-0.53c0.31,0.01,0.63,0.03,0.94,0.08c0.32,0.05,0.63,0.11,0.93,0.18
									c0.62,0.15,1.23,0.34,1.83,0.56c1.21,0.45,2.4,1.03,3.54,1.75c1.15,0.71,2.26,1.55,3.31,2.54c0.52,0.49,1.03,1.03,1.51,1.62
									c0.24,0.3,0.47,0.61,0.69,0.95c0.22,0.34,0.42,0.71,0.59,1.14c0.08,0.22,0.15,0.46,0.18,0.73c0.03,0.25,0.04,0.51,0.02,0.77
									c-0.02,0.26-0.08,0.52-0.16,0.76c-0.08,0.23-0.2,0.44-0.32,0.62c-0.25,0.36-0.55,0.6-0.85,0.79
									c-0.3,0.19-0.61,0.32-0.93,0.43c-0.62,0.21-1.25,0.31-1.88,0.36c-0.63,0.05-1.25,0.05-1.88,0.03
									c-1.25-0.06-2.49-0.24-3.72-0.48c-0.62-0.12-1.23-0.26-1.84-0.42c-0.61-0.16-1.22-0.34-1.83-0.53
									c-1.21-0.38-2.42-0.79-3.62-1.23c-1.2-0.44-2.4-0.92-3.59-1.4c-1.19-0.49-2.38-1-3.56-1.52l-1.77-0.79
									C46.38,41.24,45.79,40.97,45.2,40.68z M45.2,40.68c0.59,0.25,1.19,0.49,1.79,0.72l1.79,0.71c1.19,0.47,2.39,0.92,3.59,1.36
									c1.2,0.44,2.4,0.88,3.6,1.28c1.2,0.41,2.41,0.8,3.62,1.14c1.21,0.34,2.43,0.65,3.65,0.87c1.22,0.22,2.45,0.38,3.68,0.43
									c0.61,0.02,1.23,0.02,1.84-0.03c0.61-0.05,1.21-0.15,1.8-0.35c0.29-0.1,0.57-0.23,0.84-0.39c0.26-0.17,0.51-0.38,0.7-0.64
									c0.09-0.13,0.17-0.28,0.23-0.44c0.06-0.16,0.09-0.33,0.11-0.51c0.01-0.18,0.01-0.37-0.02-0.56
									c-0.02-0.17-0.07-0.34-0.13-0.52c-0.13-0.35-0.31-0.68-0.51-1c-0.2-0.31-0.42-0.61-0.65-0.9c-0.46-0.57-0.95-1.09-1.46-1.57
									c-1.02-0.97-2.11-1.79-3.23-2.5c-1.12-0.71-2.28-1.3-3.46-1.76c-0.59-0.23-1.19-0.42-1.79-0.58c-0.3-0.08-0.6-0.15-0.9-0.2
									c-0.3-0.05-0.61-0.08-0.91-0.1c-1.22-0.06-2.45,0.13-3.66,0.43c-1.21,0.3-2.41,0.74-3.59,1.24
									C49.74,37.84,47.44,39.16,45.2,40.68z"/>
							</g>
						</g>
					</g>
				</g>
				<g>
					<g>
						<g>
							<g>
								<path class="st12" d="M45.41,71.64c-0.81,0-1.51-0.01-2.07-0.03c-6.14-0.22-13.25-2.35-15.07-3.44
									c-1.06-0.63-1.33-1.74-1.37-2.56c-0.03-0.65,0.08-1.21,0.13-1.46L23.79,51.7c-0.01,0-0.02,0-0.03,0
									c-0.69,0-1.76-0.36-2.01-1.81c-0.13-0.72-0.08-1.29,0.14-1.69c0.02-0.03,0.04-0.06,0.05-0.09
									c-0.25-0.18-0.53-0.44-0.69-0.83c-0.16-0.38-0.2-0.81-0.1-1.27c0.27-1.35,0.94-3.45,3.59-6.06
									c1.97-1.94,6.18-4.83,12.34-2.44c1.59,0.62,3.52,1.41,5.55,2.25c5.14,2.12,10.96,4.51,13.98,5.13
									c1.21,0.25,2.56,0.6,3.99,0.96c3.42,0.88,7.31,1.88,9.44,1.43c1.47-0.32,2.08-0.99,2.33-1.5c0.24-0.48,0.19-0.89,0.19-0.9
									l-0.21-1.5l0.66,1.21c0.01,0.02,0.97,1.84,0.03,3.95c0.21,0.03,0.44,0.14,0.61,0.38c0.22,0.32,0.28,0.8,0.17,1.41
									c-0.29,1.67-1.73,2.25-2.19,2.4l-3.84,12.91c0.33,0.85,0.56,2.52-0.58,3.79C65.82,70.96,52.02,71.64,45.41,71.64z
									 M24.13,50.94l0.07,0.26l3.37,12.95l-0.04,0.13c-0.03,0.09-0.63,2.29,0.93,3.22c1.79,1.07,8.8,3.17,14.89,3.38
									c3.19,0.11,8.78-0.05,13.59-0.4c8.42-0.61,9.74-1.4,9.94-1.63c1.17-1.3,0.43-2.92,0.4-2.99l-0.08-0.16l4.05-13.61l0.14-0.03
									c0.02,0,1.66-0.42,1.92-1.9c0.04-0.24,0.07-0.56-0.04-0.72c-0.16-0.24-0.59-0.18-0.72-0.14l-0.77,0.24l0.52-0.83
									c0.67-1.07,0.69-2.07,0.58-2.76c-0.03,0.08-0.07,0.17-0.11,0.26c-0.45,0.91-1.34,1.51-2.67,1.8
									c-2.21,0.48-5.97-0.49-9.6-1.43c-1.42-0.37-2.77-0.71-3.97-0.96c-3.06-0.63-8.9-3.03-14.05-5.15
									c-2.03-0.84-3.95-1.63-5.54-2.24c-5.96-2.31-10.03,0.47-11.92,2.34c-2.52,2.48-3.14,4.42-3.39,5.67
									c-0.05,0.27-0.04,0.49,0.05,0.7c0.21,0.49,0.77,0.75,0.97,0.8l-0.05,0.72c0,0-0.2,0.01-0.32,0.23
									c-0.11,0.21-0.13,0.58-0.04,1.06c0.25,1.41,1.69,1.25,1.7,1.25L24.13,50.94z"/>
							</g>
						</g>
					</g>
				</g>
				<g>
					<g>
						<g>
							<path class="st12" d="M23.99,51.01c0.05-0.74,0.32-1.54,0.62-2.14c0.95-1.87,2.62-2.9,4.2-3.45
								c4.03-1.36,8.97-0.39,12.99,0.98c7.05,2.44,12.55,6.09,18.85,7.13c3.76,0.59,9.49,0.47,12.66-2.44
								c-3.02,3.04-8.75,3.52-12.7,2.97c-4.4-0.62-8.19-2.44-12.68-4.42c-4.79-2.13-12.85-5.72-19.07-3.87
								c-1.55,0.46-3.21,1.37-4.19,3.16C24.35,49.51,24.06,50.28,23.99,51.01z"/>
						</g>
					</g>
				</g>
				<g>
					<g>
						<g>
							<path class="st12" d="M27.15,63.49c7.65,2.74,18.89,4.48,30.87,3.77c2.91-0.26,6.58-0.61,9.33-2.25
								c-3.77,2.82-12.05,3.15-16.3,3.1c-3.97-0.08-4.84-0.15-8.27-0.51C37.75,66.91,31.97,65.71,27.15,63.49z"/>
						</g>
					</g>
				</g>
				<g>
					<g>
						<g>
							<path class="st12" d="M26.24,46.98c1.35,4.81,2.83,11.38,4.55,17.38C28.8,60.06,26.9,51.97,26.24,46.98z"/>
						</g>
					</g>
				</g>
				<g>
					<g>
						<g>
							<path class="st12" d="M29.85,45.21c1.18,6.57,1.96,13.01,3.82,20.24C31.65,60.05,30.03,50.99,29.85,45.21z"/>
						</g>
					</g>
				</g>
				<g>
					<g>
						<g>
							<path class="st12" d="M34.13,44.87c1.27,7.54,2.02,15.61,3.63,22.1C35.74,61.61,34.4,50.82,34.13,44.87z"/>
						</g>
					</g>
				</g>
				<g>
					<g>
						<g>
							<path class="st12" d="M39.44,45.9l0.61,5.24c0.11,0.87,0.2,1.74,0.32,2.61c0.11,0.87,0.22,1.74,0.33,2.6
								c0.05,0.43,0.12,0.87,0.17,1.3l0.18,1.3l0.36,2.6c0.25,1.73,0.48,3.47,0.75,5.2c-0.24-0.82-0.43-1.67-0.62-2.51
								c-0.18-0.85-0.35-1.7-0.51-2.56c-0.16-0.86-0.3-1.72-0.44-2.59c-0.14-0.86-0.26-1.73-0.38-2.61
								c-0.05-0.44-0.11-0.87-0.16-1.31c-0.05-0.44-0.1-0.88-0.15-1.32c-0.09-0.88-0.17-1.76-0.24-2.64
								C39.53,49.45,39.44,47.68,39.44,45.9z"/>
						</g>
					</g>
				</g>
				<g>
					<g>
						<g>
							<path class="st12" d="M46.26,49.16c0.17,1.53,0.28,3.06,0.39,4.6c0.1,1.54,0.18,3.07,0.24,4.61
								c0.06,1.54,0.11,3.08,0.14,4.62c0.02,1.54,0.03,3.09-0.01,4.63c-0.17-1.53-0.28-3.06-0.39-4.6c-0.1-1.54-0.18-3.07-0.24-4.61
								c-0.06-1.54-0.11-3.08-0.14-4.62C46.23,52.25,46.22,50.7,46.26,49.16z"/>
						</g>
					</g>
				</g>
				<g>
					<g>
						<g>
							<path class="st12" d="M52.48,67.62c-0.21-4.25-0.07-12.13,0.15-16.29C53.08,55.76,52.94,63.3,52.48,67.62z"/>
						</g>
					</g>
				</g>
				<g>
					<g>
						<g>
							<path class="st12" d="M58.24,67.84c0.1-3.84,0.85-10.47,1.52-14.12C59.75,57.6,59,64.2,58.24,67.84z"/>
						</g>
					</g>
				</g>
				<g>
					<g>
						<g>
							<path class="st12" d="M62.34,66.75c0.49-3.35,1.87-9.25,2.73-12.38C64.83,57.91,63.48,63.65,62.34,66.75z"/>
						</g>
					</g>
				</g>
				<g>
					<g>
						<g>
							<path class="st12" d="M65.83,65.88c0.66-3.51,2.29-9.32,3.34-12.6C68.76,56.86,67.1,62.77,65.83,65.88z"/>
						</g>
					</g>
				</g>
				<g>
					<g>
						<g>
							<path class="st12" d="M26.39,61.1c13.06,4.19,28.19,4.41,41.56,2.39c-4.92,1.21-12.16,2.11-20.87,1.88
								C38.87,65.04,31.1,63.07,26.39,61.1z"/>
						</g>
					</g>
				</g>
				<g>
					<g>
						<g>
							<path class="st12" d="M26.09,59.37c16.91,3.7,27.05,3.96,42.47,2.17c-6.46,1.3-13.47,1.87-19.97,1.75
								C40.88,62.94,32.32,61.31,26.09,59.37z"/>
						</g>
					</g>
				</g>
				<g>
					<g>
						<g>
							<path class="st12" d="M25.18,57.41c12.44,3.25,26.01,2.78,43.68,2.82c-5.87,0.48-15.05,0.79-24.65,0.5
								C38.05,60.38,31.09,59.5,25.18,57.41z"/>
						</g>
					</g>
				</g>
				<g>
					<g>
						<g>
							<path class="st12" d="M24.88,55.89c10.69,1.83,31.18,3,44.9,1.52C56.74,59.94,35.68,58.57,24.88,55.89z"/>
						</g>
					</g>
				</g>
				<g>
					<g>
						<g>
							<path class="st12" d="M24.42,53.94c8.64,1.86,31.67,3.03,46.26,1.09C57.64,57.86,34.75,56.9,24.42,53.94z"/>
						</g>
					</g>
				</g>
				<g>
					<g>
						<g>
							<path class="st12" d="M24.27,52.41c5.37,0.26,11.31,0.74,17.14,1.13c5.77,0.41,6.76,0.31,17.14,0.18
								c-8.83,1.05-13.79,0.76-17.16,0.55C34.61,53.78,28.54,53.07,24.27,52.41z"/>
						</g>
					</g>
				</g>
				<g>
					<g>
						<g>
							<path class="st12" d="M25.03,51.33c1.63-0.81,4.17-1.5,6.9-1.58c2.2-0.09,4.17,0.25,6.98,0.62
								c4.22,0.56,9.47,1.25,13.88,2.05C36.95,51.62,32.24,48.82,25.03,51.33z"/>
						</g>
					</g>
				</g>
				<g>
					<g>
						<g>
							<path class="st12" d="M24.42,50.02c0.78-0.73,1.62-1.23,2.48-1.69c8.02-4.34,17.7,2.27,22.09,1.48
								c-5.08,1.66-14.57-5.68-23.86-0.26C24.89,49.7,24.65,49.85,24.42,50.02z"/>
						</g>
					</g>
				</g>
				<g>
					<g>
						<g>
							<path class="st12" d="M45.34,44.87c0.74-0.19,1.48-0.27,2.23-0.31c0.75-0.04,1.49-0.02,2.24,0.05
								c0.75,0.08,1.49,0.21,2.23,0.44c0.37,0.12,0.73,0.27,1.09,0.45c0.35,0.19,0.7,0.41,1.01,0.72c-0.36-0.16-0.71-0.28-1.08-0.37
								c-0.36-0.1-0.73-0.16-1.09-0.23c-0.73-0.12-1.46-0.21-2.2-0.28c-0.73-0.08-1.47-0.14-2.21-0.21
								C46.82,45.05,46.08,44.99,45.34,44.87z"/>
						</g>
					</g>
				</g>
				<g>
					<g>
						<g>
							<path class="st12" d="M49.75,44.81c0.89,0.54,1.77,1.11,2.64,1.69c0.87,0.58,1.74,1.18,2.6,1.77
								c0.87,0.59,1.73,1.18,2.6,1.77c0.87,0.58,1.74,1.15,2.62,1.73c-0.95-0.28-1.87-0.72-2.78-1.2c-0.91-0.49-1.79-1.04-2.66-1.64
								c-0.87-0.59-1.73-1.24-2.57-1.91C51.37,46.33,50.54,45.61,49.75,44.81z"/>
						</g>
					</g>
				</g>
				<g>
					<g>
						<g>
							<path class="st12" d="M53.69,47.63c0.66-0.24,1.34-0.34,2.01-0.39c0.68-0.05,1.35-0.04,2.03,0.03
								c0.67,0.07,1.35,0.19,2.01,0.37c0.66,0.18,1.32,0.43,1.96,0.75c-0.34-0.01-0.67-0.06-1.01-0.08c-0.34-0.03-0.67-0.08-1-0.11
								c-0.66-0.08-1.33-0.14-1.99-0.22c-0.66-0.07-1.33-0.13-1.99-0.19L53.69,47.63z"/>
						</g>
					</g>
				</g>
				<g>
					<g>
						<g>
							<path class="st12" d="M57.49,47.85c0.77,0.45,1.53,0.93,2.28,1.39c0.76,0.47,1.51,0.92,2.27,1.36
								c0.76,0.43,1.53,0.85,2.3,1.21c0.39,0.18,0.78,0.35,1.18,0.49c0.4,0.15,0.8,0.26,1.21,0.34c-0.41,0.08-0.84,0.06-1.25,0.01
								c-0.42-0.06-0.83-0.15-1.24-0.29c-0.82-0.26-1.61-0.64-2.39-1.08c-0.77-0.44-1.53-0.95-2.26-1.52
								C58.87,49.18,58.15,48.57,57.49,47.85z"/>
						</g>
					</g>
				</g>
				<g>
					<g>
						<g>
							<path class="st12" d="M61.13,50.46c0.43-0.4,0.89-0.71,1.36-0.97c0.47-0.26,0.96-0.47,1.45-0.64c0.49-0.17,1-0.27,1.51-0.32
								c0.51-0.04,1.02-0.02,1.53,0.13c-0.5,0.16-0.99,0.29-1.47,0.44c-0.48,0.15-0.97,0.3-1.45,0.46l-1.45,0.48
								C62.12,50.19,61.63,50.34,61.13,50.46z"/>
						</g>
					</g>
				</g>
				<g>
					<g>
						<g>
							<path class="st12" d="M63.55,49.37c0.6,0.23,1.19,0.48,1.78,0.72c0.59,0.25,1.17,0.48,1.76,0.7
								c0.59,0.22,1.18,0.41,1.77,0.56c0.3,0.08,0.6,0.13,0.9,0.17c0.3,0.04,0.61,0.05,0.92,0.03c-0.29,0.18-0.6,0.27-0.91,0.33
								c-0.31,0.05-0.63,0.07-0.95,0.04c-0.63-0.04-1.25-0.2-1.86-0.42c-0.6-0.23-1.2-0.52-1.77-0.87
								C64.63,50.27,64.07,49.87,63.55,49.37z"/>
						</g>
					</g>
				</g>
				<g>
					<g>
						<g>
							<path class="st12" d="M66.89,51.11c0.26-0.43,0.55-0.8,0.85-1.15c0.3-0.34,0.62-0.66,0.95-0.94
								c0.33-0.28,0.67-0.54,1.03-0.75c0.36-0.21,0.73-0.39,1.13-0.46c-0.31,0.35-0.62,0.66-0.94,0.96
								c-0.32,0.3-0.63,0.59-0.96,0.87c-0.33,0.28-0.66,0.55-1,0.8C67.61,50.69,67.26,50.92,66.89,51.11z"/>
						</g>
					</g>
				</g>
				<g>
					<g>
						<g>
							<path class="st12" d="M68.86,48.94c0.34,0.05,0.65,0.11,0.96,0.16c0.31,0.05,0.62,0.1,0.92,0.13
								c0.31,0.03,0.61,0.03,0.91,0.01c0.31-0.02,0.61-0.09,0.95-0.16c-0.24,0.34-0.55,0.59-0.88,0.72
								c-0.33,0.13-0.68,0.18-1.01,0.15c-0.34-0.03-0.67-0.14-0.98-0.3C69.42,49.48,69.12,49.26,68.86,48.94z"/>
						</g>
					</g>
				</g>
				<g>
					<g>
						<g>
							<path class="st12" d="M41.26,41.12c0.83,0.62,1.63,1.3,2.43,1.98c0.8,0.69,1.59,1.39,2.38,2.09l2.35,2.14
								c0.39,0.36,0.78,0.72,1.18,1.06c0.4,0.35,0.79,0.69,1.21,0.98c-0.46-0.14-0.9-0.4-1.33-0.66c-0.43-0.28-0.85-0.57-1.26-0.89
								c-0.83-0.63-1.63-1.31-2.42-2.02c-0.79-0.71-1.56-1.46-2.32-2.23C42.72,42.79,41.97,41.99,41.26,41.12z"/>
						</g>
					</g>
				</g>
				<g>
					<g>
						<g>
							<path class="st12" d="M38.68,41.12c0.59-0.23,1.2-0.34,1.81-0.39c0.61-0.04,1.23-0.01,1.84,0.08
								c0.61,0.09,1.21,0.28,1.8,0.53c0.15,0.07,0.29,0.14,0.44,0.21c0.14,0.07,0.29,0.17,0.43,0.25l0.21,0.13
								c0.07,0.05,0.14,0.1,0.2,0.15c0.13,0.11,0.27,0.21,0.4,0.33c-0.6-0.19-1.18-0.39-1.77-0.53c-0.59-0.14-1.17-0.27-1.77-0.36
								c-0.59-0.09-1.19-0.17-1.78-0.24L38.68,41.12z"/>
						</g>
					</g>
				</g>
				<g>
					<g>
						<g>
							<path class="st12" d="M36.25,39.96c0.59,0.41,1.14,0.86,1.7,1.33c0.55,0.47,1.09,0.96,1.63,1.47
								c0.54,0.5,1.07,1.02,1.59,1.54l0.4,0.39c0.13,0.13,0.26,0.26,0.4,0.39l0.2,0.2c0.07,0.06,0.13,0.12,0.2,0.19
								c0.13,0.14,0.27,0.24,0.41,0.37c-0.16-0.05-0.32-0.1-0.47-0.18c-0.08-0.04-0.15-0.08-0.23-0.12l-0.23-0.13
								c-0.15-0.09-0.3-0.19-0.44-0.29c-0.15-0.1-0.29-0.2-0.43-0.31c-0.57-0.43-1.12-0.91-1.66-1.42c-0.54-0.51-1.06-1.04-1.58-1.6
								C37.22,41.2,36.72,40.61,36.25,39.96z"/>
						</g>
					</g>
				</g>
				<g>
					<g>
						<g>
							<path class="st12" d="M32.76,41.26c0.48-0.44,1-0.75,1.54-1c0.54-0.24,1.1-0.41,1.67-0.49c0.14-0.02,0.28-0.03,0.43-0.04
								c0.14,0,0.29-0.01,0.43,0c0.29,0.01,0.57,0.04,0.85,0.11c0.56,0.13,1.12,0.37,1.61,0.77c-0.56-0.12-1.1-0.19-1.65-0.21
								c-0.27-0.01-0.54-0.01-0.81,0.01c-0.27,0.02-0.54,0.04-0.81,0.08c-0.54,0.07-1.08,0.18-1.62,0.32
								C33.86,40.95,33.32,41.1,32.76,41.26z"/>
						</g>
					</g>
				</g>
				<g>
					<g>
						<g>
							<path class="st12" d="M28.98,40.54c0.84-0.15,1.7-0.12,2.54-0.01c0.85,0.12,1.69,0.33,2.51,0.65
								c0.21,0.08,0.41,0.17,0.61,0.26c0.2,0.1,0.41,0.19,0.6,0.3c0.4,0.21,0.79,0.46,1.17,0.73c0.76,0.55,1.48,1.23,2.1,2.06
								c-0.74-0.58-1.49-1.1-2.27-1.54c-0.1-0.06-0.19-0.11-0.29-0.16l-0.29-0.16c-0.2-0.09-0.39-0.2-0.59-0.29
								c-0.39-0.19-0.79-0.36-1.19-0.51c-0.8-0.31-1.61-0.56-2.43-0.78C30.65,40.87,29.82,40.7,28.98,40.54z"/>
						</g>
					</g>
				</g>
				<g>
					<g>
						<g>
							<path class="st12" d="M25.48,42.57c0.64-0.39,1.33-0.63,2.02-0.8c0.69-0.16,1.39-0.24,2.1-0.22c0.7,0.02,1.41,0.15,2.09,0.41
								c0.34,0.13,0.68,0.3,1,0.49c0.32,0.21,0.63,0.45,0.92,0.73c-0.34-0.14-0.66-0.29-1-0.4c-0.33-0.11-0.67-0.21-1-0.27
								c-0.67-0.14-1.34-0.22-2.02-0.24c-0.68-0.02-1.36,0-2.04,0.06C26.86,42.39,26.18,42.47,25.48,42.57z"/>
						</g>
					</g>
				</g>
				<g>
					<g>
						<g>
							<path class="st12" d="M22.75,44.31c0.56-0.32,1.14-0.52,1.73-0.67c0.59-0.14,1.19-0.22,1.78-0.23
								c0.6-0.02,1.2,0.05,1.79,0.19c0.15,0.04,0.29,0.08,0.44,0.12c0.15,0.04,0.29,0.11,0.44,0.16c0.14,0.06,0.29,0.12,0.43,0.2
								c0.14,0.08,0.28,0.16,0.42,0.24c-0.6-0.06-1.18-0.14-1.76-0.16c-0.58-0.03-1.16-0.05-1.74-0.03
								c-0.58,0.01-1.16,0.04-1.75,0.07C23.94,44.24,23.35,44.28,22.75,44.31z"/>
						</g>
					</g>
				</g>
				<g>
					<g>
						<g>
							<path class="st12" d="M27.15,44.16c-0.48,0.17-0.94,0.36-1.39,0.58c-0.45,0.22-0.88,0.49-1.29,0.8
								c-0.21,0.16-0.41,0.32-0.6,0.51c-0.19,0.18-0.38,0.38-0.57,0.59c-0.37,0.42-0.71,0.89-1.05,1.4
								c0.17-0.67,0.44-1.29,0.78-1.82c0.17-0.27,0.36-0.51,0.56-0.73c0.2-0.22,0.42-0.41,0.64-0.58c0.45-0.34,0.93-0.58,1.42-0.71
								c0.25-0.06,0.5-0.1,0.75-0.11C26.66,44.07,26.91,44.08,27.15,44.16z"/>
						</g>
					</g>
				</g>
				<g>
					<g>
						<g>
							<g>
								<g>
									<path class="st12" d="M35.26,36.94c-1.36-0.16-2.72-0.33-4.08-0.49l-0.03-0.19c-0.01-0.07-1.2-7.34,0.76-14.13
										c1.04-3.61,2.7-6.15,5.06-7.76c2.53-1.73,5.92-2.43,10.37-2.17c3.93,0.24,7.06,1.92,9.28,5.02
										c1.89,2.64,2.7,5.71,3.09,7.19c0.91,3.47,0.48,9.82,0.46,10.09l-0.01,0.18l-3.46,0.48l0.09-0.33
										c0.02-0.06,1.64-5.9,0.15-11.53c-1.6-6.08-5.24-7.88-8.93-8.93c-2.08-0.59-9.14-1.92-12.58,5.75
										c-2.82,6.28-0.47,15.95-0.44,16.05C35.07,36.43,35.16,36.69,35.26,36.94z M31.62,36.04c1,0.12,2.01,0.24,3.01,0.35
										c-0.35-1.31-0.81-3.31-1-5.8c-0.23-2.98-0.44-6.67,1.33-10.59c1.34-2.99,3.39-4.98,6.08-5.92
										c2.14-0.75,4.67-0.78,7.13-0.09c2.45,0.7,4.26,1.62,5.68,2.9c1.69,1.53,2.87,3.61,3.59,6.36
										c1.31,4.97,0.25,10.09-0.07,11.41l2.31-0.32c0.06-1.07,0.35-6.7-0.46-9.79c-0.81-3.1-2.97-11.33-11.91-11.86
										c-8.36-0.5-12.82,2.37-14.91,9.59C30.64,28.36,31.45,34.86,31.62,36.04z"/>
								</g>
							</g>
						</g>
					</g>
					<path class="st12" d="M31.36,35.84c0.01-0.39,0.09-0.77,0.21-1.14c0.12-0.37,0.28-0.73,0.48-1.07c0.2-0.34,0.44-0.67,0.71-0.97
						c0.27-0.3,0.57-0.58,0.93-0.81c-0.19,0.35-0.4,0.68-0.6,1.01c-0.2,0.33-0.4,0.65-0.59,0.98c-0.19,0.33-0.38,0.66-0.56,0.99
						C31.75,35.16,31.57,35.49,31.36,35.84z"/>
					<g>
						<g>
							<g>
								<path class="st12" d="M30.94,29.7c0.05-0.37,0.17-0.72,0.33-1.05c0.16-0.34,0.36-0.65,0.6-0.95
									c0.24-0.3,0.51-0.57,0.81-0.82c0.3-0.25,0.64-0.46,1.01-0.62c-0.24,0.3-0.48,0.58-0.72,0.86c-0.24,0.28-0.47,0.56-0.7,0.84
									c-0.23,0.28-0.45,0.57-0.67,0.86C31.4,29.1,31.19,29.4,30.94,29.7z"/>
							</g>
						</g>
					</g>
					<g>
						<g>
							<g>
								<path class="st12" d="M31.79,23.11c0.09-0.32,0.25-0.62,0.44-0.9c0.19-0.28,0.42-0.54,0.68-0.78
									c0.26-0.24,0.54-0.45,0.85-0.63c0.31-0.18,0.64-0.34,1-0.43c-0.25,0.25-0.5,0.48-0.75,0.7l-0.74,0.67
									c-0.24,0.22-0.48,0.45-0.73,0.68C32.31,22.65,32.06,22.88,31.79,23.11z"/>
							</g>
						</g>
					</g>
					<g>
						<g>
							<g>
								<path class="st12" d="M34.32,17.03c0.15-0.26,0.38-0.48,0.63-0.67c0.26-0.18,0.55-0.33,0.87-0.43
									c0.31-0.1,0.64-0.16,0.98-0.17c0.33-0.01,0.67,0.03,0.97,0.15c-0.32,0.07-0.62,0.13-0.92,0.2
									c-0.29,0.07-0.58,0.15-0.86,0.24c-0.28,0.09-0.56,0.19-0.83,0.31C34.89,16.77,34.61,16.89,34.32,17.03z"/>
							</g>
						</g>
					</g>
					<g>
						<g>
							<g>
								<path class="st12" d="M39,13.27c0.23-0.24,0.55-0.41,0.89-0.51c0.35-0.1,0.72-0.12,1.08-0.08c0.36,0.04,0.72,0.15,1.02,0.32
									c0.31,0.17,0.57,0.41,0.72,0.69c-0.3-0.16-0.6-0.28-0.9-0.38c-0.3-0.09-0.6-0.16-0.91-0.19c-0.31-0.04-0.62-0.04-0.94-0.02
									C39.66,13.13,39.34,13.19,39,13.27z"/>
							</g>
						</g>
					</g>
					<g>
						<g>
							<g>
								<path class="st12" d="M45.52,12.39c0.27-0.03,0.54,0,0.79,0.07c0.25,0.07,0.5,0.18,0.71,0.32c0.22,0.14,0.41,0.31,0.56,0.5
									c0.15,0.19,0.27,0.41,0.32,0.65c-0.22-0.14-0.41-0.28-0.61-0.41c-0.19-0.13-0.38-0.26-0.57-0.38
									c-0.19-0.12-0.38-0.24-0.58-0.37C45.94,12.65,45.74,12.53,45.52,12.39z"/>
							</g>
						</g>
					</g>
					<g>
						<g>
							<g>
								<path class="st12" d="M50.64,13.02c0.34,0.02,0.66,0.14,0.95,0.3c0.29,0.16,0.54,0.38,0.74,0.62
									c0.2,0.25,0.35,0.52,0.44,0.82c0.08,0.29,0.11,0.6,0.03,0.89c-0.13-0.28-0.25-0.53-0.4-0.77c-0.14-0.24-0.3-0.47-0.48-0.68
									c-0.18-0.21-0.37-0.42-0.58-0.61C51.13,13.4,50.9,13.21,50.64,13.02z"/>
							</g>
						</g>
					</g>
					<g>
						<g>
							<g>
								<path class="st12" d="M55.5,16.2c0.2,0.18,0.33,0.39,0.41,0.62c0.09,0.23,0.13,0.47,0.13,0.71c0,0.24-0.05,0.48-0.14,0.71
									c-0.09,0.23-0.22,0.44-0.42,0.61c0-0.24,0.02-0.47,0.03-0.68c0.01-0.22,0.02-0.43,0.02-0.64c0-0.21,0-0.43-0.01-0.64
									C55.51,16.66,55.5,16.44,55.5,16.2z"/>
							</g>
						</g>
					</g>
					<g>
						<g>
							<g>
								<path class="st12" d="M58.41,20.74c0.12,0.26,0.17,0.53,0.17,0.81c0,0.28-0.06,0.55-0.16,0.81
									c-0.1,0.26-0.25,0.51-0.43,0.73c-0.19,0.22-0.41,0.42-0.69,0.55c0.12-0.26,0.24-0.49,0.34-0.73c0.11-0.23,0.21-0.47,0.3-0.7
									c0.09-0.24,0.17-0.47,0.25-0.72C58.26,21.25,58.32,21,58.41,20.74z"/>
							</g>
						</g>
					</g>
					<g>
						<g>
							<g>
								<path class="st12" d="M59.68,25.71c-0.06,0.32-0.17,0.62-0.31,0.91c-0.14,0.29-0.3,0.57-0.49,0.84
									c-0.19,0.27-0.4,0.52-0.64,0.76c-0.24,0.24-0.49,0.46-0.8,0.64c0.14-0.3,0.3-0.58,0.47-0.85c0.17-0.27,0.35-0.53,0.53-0.79
									c0.18-0.26,0.37-0.52,0.57-0.77C59.23,26.2,59.43,25.95,59.68,25.71z"/>
							</g>
						</g>
					</g>
					<g>
						<g>
							<g>
								<path class="st12" d="M59.99,31.05c0.02,0.33-0.07,0.65-0.2,0.96c-0.14,0.31-0.33,0.59-0.57,0.85
									c-0.24,0.25-0.52,0.48-0.84,0.65c-0.32,0.17-0.67,0.3-1.04,0.35c0.28-0.21,0.55-0.41,0.79-0.63
									c0.25-0.21,0.48-0.43,0.7-0.66c0.22-0.23,0.42-0.47,0.61-0.72C59.63,31.6,59.81,31.33,59.99,31.05z"/>
							</g>
						</g>
					</g>
				</g>
				<g>
					<g>
						<g>
							<path class="st12" d="M27.33,41.94c0.3-0.45,0.63-0.84,0.97-1.2c0.34-0.37,0.69-0.71,1.04-1.03c0.36-0.32,0.72-0.62,1.1-0.9
								c0.38-0.27,0.76-0.53,1.18-0.72c-0.3,0.45-0.63,0.84-0.97,1.2c-0.34,0.37-0.69,0.71-1.04,1.03c-0.36,0.32-0.72,0.62-1.1,0.9
								C28.13,41.49,27.74,41.75,27.33,41.94z"/>
						</g>
					</g>
				</g>
				<g>
					<g>
						<g>
							<path class="st12" d="M28.06,38.84c-0.27,0.5-0.57,0.95-0.88,1.39c-0.31,0.43-0.62,0.85-0.95,1.26
								c-0.32,0.4-0.65,0.8-0.99,1.18l-0.5,0.58c-0.17,0.2-0.33,0.38-0.47,0.62c0.02-0.16,0.07-0.31,0.12-0.45
								c0.05-0.14,0.11-0.28,0.17-0.41c0.13-0.26,0.26-0.51,0.41-0.75c0.29-0.47,0.6-0.91,0.93-1.32c0.33-0.41,0.67-0.79,1.03-1.15
								C27.28,39.44,27.65,39.11,28.06,38.84z"/>
						</g>
					</g>
				</g>
			</g>
		</g>
		<g class="st11">
			<g>
				<g>
					<g>
						<g>
							<path class="st12" d="M45.2,40.68c0,0,9.25-6.95,15.47-5.65c6.22,1.3,11.64,6.7,11.98,9.12c0.46,3.26-3.64,4.13-10.01,2.82
								S45.2,40.68,45.2,40.68z"/>
						</g>
						<g>
							<g>
								<path class="st12" d="M45.2,40.68c1.09-0.84,2.21-1.6,3.36-2.29c1.14-0.7,2.3-1.33,3.48-1.89c1.18-0.55,2.38-1.02,3.61-1.37
									c1.22-0.35,2.47-0.56,3.73-0.53c0.31,0.01,0.63,0.03,0.94,0.08c0.32,0.05,0.63,0.11,0.93,0.18
									c0.62,0.15,1.23,0.34,1.83,0.56c1.21,0.45,2.4,1.03,3.54,1.75c1.15,0.71,2.26,1.55,3.31,2.54c0.52,0.49,1.03,1.03,1.51,1.62
									c0.24,0.3,0.47,0.61,0.69,0.95c0.22,0.34,0.42,0.71,0.59,1.14c0.08,0.22,0.15,0.46,0.18,0.73c0.03,0.25,0.04,0.51,0.02,0.77
									c-0.02,0.26-0.08,0.52-0.16,0.76c-0.08,0.23-0.2,0.44-0.32,0.62c-0.25,0.36-0.55,0.6-0.85,0.79
									c-0.3,0.19-0.61,0.32-0.93,0.43c-0.62,0.21-1.25,0.31-1.88,0.36c-0.63,0.05-1.25,0.05-1.88,0.03
									c-1.25-0.06-2.49-0.24-3.72-0.48c-0.62-0.12-1.23-0.26-1.84-0.42c-0.61-0.16-1.22-0.34-1.83-0.53
									c-1.21-0.38-2.42-0.79-3.62-1.23c-1.2-0.44-2.4-0.92-3.59-1.4c-1.19-0.49-2.38-1-3.56-1.52l-1.77-0.79
									C46.38,41.24,45.79,40.97,45.2,40.68z M45.2,40.68c0.59,0.25,1.19,0.49,1.79,0.72l1.79,0.71c1.19,0.47,2.39,0.92,3.59,1.36
									c1.2,0.44,2.4,0.88,3.6,1.28c1.2,0.41,2.41,0.8,3.62,1.14c1.21,0.34,2.43,0.65,3.65,0.87c1.22,0.22,2.45,0.38,3.68,0.43
									c0.61,0.02,1.23,0.02,1.84-0.03c0.61-0.05,1.21-0.15,1.8-0.35c0.29-0.1,0.57-0.23,0.84-0.39c0.26-0.17,0.51-0.38,0.7-0.64
									c0.09-0.13,0.17-0.28,0.23-0.44c0.06-0.16,0.09-0.33,0.11-0.51c0.01-0.18,0.01-0.37-0.02-0.56
									c-0.02-0.17-0.07-0.34-0.13-0.52c-0.13-0.35-0.31-0.68-0.51-1c-0.2-0.31-0.42-0.61-0.65-0.9c-0.46-0.57-0.95-1.09-1.46-1.57
									c-1.02-0.97-2.11-1.79-3.23-2.5c-1.12-0.71-2.28-1.3-3.46-1.76c-0.59-0.23-1.19-0.42-1.79-0.58c-0.3-0.08-0.6-0.15-0.9-0.2
									c-0.3-0.05-0.61-0.08-0.91-0.1c-1.22-0.06-2.45,0.13-3.66,0.43c-1.21,0.3-2.41,0.74-3.59,1.24
									C49.74,37.84,47.44,39.16,45.2,40.68z"/>
							</g>
						</g>
					</g>
				</g>
				<g>
					<g>
						<g>
							<g>
								<path class="st12" d="M45.41,71.64c-0.81,0-1.51-0.01-2.07-0.03c-6.14-0.22-13.25-2.35-15.07-3.44
									c-1.06-0.63-1.33-1.74-1.37-2.56c-0.03-0.65,0.08-1.21,0.13-1.46L23.79,51.7c-0.01,0-0.02,0-0.03,0
									c-0.69,0-1.76-0.36-2.01-1.81c-0.13-0.72-0.08-1.29,0.14-1.69c0.02-0.03,0.04-0.06,0.05-0.09
									c-0.25-0.18-0.53-0.44-0.69-0.83c-0.16-0.38-0.2-0.81-0.1-1.27c0.27-1.35,0.94-3.45,3.59-6.06
									c1.97-1.94,6.18-4.83,12.34-2.44c1.59,0.62,3.52,1.41,5.55,2.25c5.14,2.12,10.96,4.51,13.98,5.13
									c1.21,0.25,2.56,0.6,3.99,0.96c3.42,0.88,7.31,1.88,9.44,1.43c1.47-0.32,2.08-0.99,2.33-1.5c0.24-0.48,0.19-0.89,0.19-0.9
									l-0.21-1.5l0.66,1.21c0.01,0.02,0.97,1.84,0.03,3.95c0.21,0.03,0.44,0.14,0.61,0.38c0.22,0.32,0.28,0.8,0.17,1.41
									c-0.29,1.67-1.73,2.25-2.19,2.4l-3.84,12.91c0.33,0.85,0.56,2.52-0.58,3.79C65.82,70.96,52.02,71.64,45.41,71.64z
									 M24.13,50.94l0.07,0.26l3.37,12.95l-0.04,0.13c-0.03,0.09-0.63,2.29,0.93,3.22c1.79,1.07,8.8,3.17,14.89,3.38
									c3.19,0.11,8.78-0.05,13.59-0.4c8.42-0.61,9.74-1.4,9.94-1.63c1.17-1.3,0.43-2.92,0.4-2.99l-0.08-0.16l4.05-13.61l0.14-0.03
									c0.02,0,1.66-0.42,1.92-1.9c0.04-0.24,0.07-0.56-0.04-0.72c-0.16-0.24-0.59-0.18-0.72-0.14l-0.77,0.24l0.52-0.83
									c0.67-1.07,0.69-2.07,0.58-2.76c-0.03,0.08-0.07,0.17-0.11,0.26c-0.45,0.91-1.34,1.51-2.67,1.8
									c-2.21,0.48-5.97-0.49-9.6-1.43c-1.42-0.37-2.77-0.71-3.97-0.96c-3.06-0.63-8.9-3.03-14.05-5.15
									c-2.03-0.84-3.95-1.63-5.54-2.24c-5.96-2.31-10.03,0.47-11.92,2.34c-2.52,2.48-3.14,4.42-3.39,5.67
									c-0.05,0.27-0.04,0.49,0.05,0.7c0.21,0.49,0.77,0.75,0.97,0.8l-0.05,0.72c0,0-0.2,0.01-0.32,0.23
									c-0.11,0.21-0.13,0.58-0.04,1.06c0.25,1.41,1.69,1.25,1.7,1.25L24.13,50.94z"/>
							</g>
						</g>
					</g>
				</g>
				<g>
					<g>
						<g>
							<path class="st12" d="M23.99,51.01c0.05-0.74,0.32-1.54,0.62-2.14c0.95-1.87,2.62-2.9,4.2-3.45
								c4.03-1.36,8.97-0.39,12.99,0.98c7.05,2.44,12.55,6.09,18.85,7.13c3.76,0.59,9.49,0.47,12.66-2.44
								c-3.02,3.04-8.75,3.52-12.7,2.97c-4.4-0.62-8.19-2.44-12.68-4.42c-4.79-2.13-12.85-5.72-19.07-3.87
								c-1.55,0.46-3.21,1.37-4.19,3.16C24.35,49.51,24.06,50.28,23.99,51.01z"/>
						</g>
					</g>
				</g>
				<g>
					<g>
						<g>
							<path class="st12" d="M27.15,63.49c7.65,2.74,18.89,4.48,30.87,3.77c2.91-0.26,6.58-0.61,9.33-2.25
								c-3.77,2.82-12.05,3.15-16.3,3.1c-3.97-0.08-4.84-0.15-8.27-0.51C37.75,66.91,31.97,65.71,27.15,63.49z"/>
						</g>
					</g>
				</g>
				<g>
					<g>
						<g>
							<path class="st12" d="M26.24,46.98c1.35,4.81,2.83,11.38,4.55,17.38C28.8,60.06,26.9,51.97,26.24,46.98z"/>
						</g>
					</g>
				</g>
				<g>
					<g>
						<g>
							<path class="st12" d="M29.85,45.21c1.18,6.57,1.96,13.01,3.82,20.24C31.65,60.05,30.03,50.99,29.85,45.21z"/>
						</g>
					</g>
				</g>
				<g>
					<g>
						<g>
							<path class="st12" d="M34.13,44.87c1.27,7.54,2.02,15.61,3.63,22.1C35.74,61.61,34.4,50.82,34.13,44.87z"/>
						</g>
					</g>
				</g>
				<g>
					<g>
						<g>
							<path class="st12" d="M39.44,45.9l0.61,5.24c0.11,0.87,0.2,1.74,0.32,2.61c0.11,0.87,0.22,1.74,0.33,2.6
								c0.05,0.43,0.12,0.87,0.17,1.3l0.18,1.3l0.36,2.6c0.25,1.73,0.48,3.47,0.75,5.2c-0.24-0.82-0.43-1.67-0.62-2.51
								c-0.18-0.85-0.35-1.7-0.51-2.56c-0.16-0.86-0.3-1.72-0.44-2.59c-0.14-0.86-0.26-1.73-0.38-2.61
								c-0.05-0.44-0.11-0.87-0.16-1.31c-0.05-0.44-0.1-0.88-0.15-1.32c-0.09-0.88-0.17-1.76-0.24-2.64
								C39.53,49.45,39.44,47.68,39.44,45.9z"/>
						</g>
					</g>
				</g>
				<g>
					<g>
						<g>
							<path class="st12" d="M46.26,49.16c0.17,1.53,0.28,3.06,0.39,4.6c0.1,1.54,0.18,3.07,0.24,4.61
								c0.06,1.54,0.11,3.08,0.14,4.62c0.02,1.54,0.03,3.09-0.01,4.63c-0.17-1.53-0.28-3.06-0.39-4.6c-0.1-1.54-0.18-3.07-0.24-4.61
								c-0.06-1.54-0.11-3.08-0.14-4.62C46.23,52.25,46.22,50.7,46.26,49.16z"/>
						</g>
					</g>
				</g>
				<g>
					<g>
						<g>
							<path class="st12" d="M52.48,67.62c-0.21-4.25-0.07-12.13,0.15-16.29C53.08,55.76,52.94,63.3,52.48,67.62z"/>
						</g>
					</g>
				</g>
				<g>
					<g>
						<g>
							<path class="st12" d="M58.24,67.84c0.1-3.84,0.85-10.47,1.52-14.12C59.75,57.6,59,64.2,58.24,67.84z"/>
						</g>
					</g>
				</g>
				<g>
					<g>
						<g>
							<path class="st12" d="M62.34,66.75c0.49-3.35,1.87-9.25,2.73-12.38C64.83,57.91,63.48,63.65,62.34,66.75z"/>
						</g>
					</g>
				</g>
				<g>
					<g>
						<g>
							<path class="st12" d="M65.83,65.88c0.66-3.51,2.29-9.32,3.34-12.6C68.76,56.86,67.1,62.77,65.83,65.88z"/>
						</g>
					</g>
				</g>
				<g>
					<g>
						<g>
							<path class="st12" d="M26.39,61.1c13.06,4.19,28.19,4.41,41.56,2.39c-4.92,1.21-12.16,2.11-20.87,1.88
								C38.87,65.04,31.1,63.07,26.39,61.1z"/>
						</g>
					</g>
				</g>
				<g>
					<g>
						<g>
							<path class="st12" d="M26.09,59.37c16.91,3.7,27.05,3.96,42.47,2.17c-6.46,1.3-13.47,1.87-19.97,1.75
								C40.88,62.94,32.32,61.31,26.09,59.37z"/>
						</g>
					</g>
				</g>
				<g>
					<g>
						<g>
							<path class="st12" d="M25.18,57.41c12.44,3.25,26.01,2.78,43.68,2.82c-5.87,0.48-15.05,0.79-24.65,0.5
								C38.05,60.38,31.09,59.5,25.18,57.41z"/>
						</g>
					</g>
				</g>
				<g>
					<g>
						<g>
							<path class="st12" d="M24.88,55.89c10.69,1.83,31.18,3,44.9,1.52C56.74,59.94,35.68,58.57,24.88,55.89z"/>
						</g>
					</g>
				</g>
				<g>
					<g>
						<g>
							<path class="st12" d="M24.42,53.94c8.64,1.86,31.67,3.03,46.26,1.09C57.64,57.86,34.75,56.9,24.42,53.94z"/>
						</g>
					</g>
				</g>
				<g>
					<g>
						<g>
							<path class="st12" d="M24.27,52.41c5.37,0.26,11.31,0.74,17.14,1.13c5.77,0.41,6.76,0.31,17.14,0.18
								c-8.83,1.05-13.79,0.76-17.16,0.55C34.61,53.78,28.54,53.07,24.27,52.41z"/>
						</g>
					</g>
				</g>
				<g>
					<g>
						<g>
							<path class="st12" d="M25.03,51.33c1.63-0.81,4.17-1.5,6.9-1.58c2.2-0.09,4.17,0.25,6.98,0.62
								c4.22,0.56,9.47,1.25,13.88,2.05C36.95,51.62,32.24,48.82,25.03,51.33z"/>
						</g>
					</g>
				</g>
				<g>
					<g>
						<g>
							<path class="st12" d="M24.42,50.02c0.78-0.73,1.62-1.23,2.48-1.69c8.02-4.34,17.7,2.27,22.09,1.48
								c-5.08,1.66-14.57-5.68-23.86-0.26C24.89,49.7,24.65,49.85,24.42,50.02z"/>
						</g>
					</g>
				</g>
				<g>
					<g>
						<g>
							<path class="st12" d="M45.34,44.87c0.74-0.19,1.48-0.27,2.23-0.31c0.75-0.04,1.49-0.02,2.24,0.05
								c0.75,0.08,1.49,0.21,2.23,0.44c0.37,0.12,0.73,0.27,1.09,0.45c0.35,0.19,0.7,0.41,1.01,0.72c-0.36-0.16-0.71-0.28-1.08-0.37
								c-0.36-0.1-0.73-0.16-1.09-0.23c-0.73-0.12-1.46-0.21-2.2-0.28c-0.73-0.08-1.47-0.14-2.21-0.21
								C46.82,45.05,46.08,44.99,45.34,44.87z"/>
						</g>
					</g>
				</g>
				<g>
					<g>
						<g>
							<path class="st12" d="M49.75,44.81c0.89,0.54,1.77,1.11,2.64,1.69c0.87,0.58,1.74,1.18,2.6,1.77
								c0.87,0.59,1.73,1.18,2.6,1.77c0.87,0.58,1.74,1.15,2.62,1.73c-0.95-0.28-1.87-0.72-2.78-1.2c-0.91-0.49-1.79-1.04-2.66-1.64
								c-0.87-0.59-1.73-1.24-2.57-1.91C51.37,46.33,50.54,45.61,49.75,44.81z"/>
						</g>
					</g>
				</g>
				<g>
					<g>
						<g>
							<path class="st12" d="M53.69,47.63c0.66-0.24,1.34-0.34,2.01-0.39c0.68-0.05,1.35-0.04,2.03,0.03
								c0.67,0.07,1.35,0.19,2.01,0.37c0.66,0.18,1.32,0.43,1.96,0.75c-0.34-0.01-0.67-0.06-1.01-0.08c-0.34-0.03-0.67-0.08-1-0.11
								c-0.66-0.08-1.33-0.14-1.99-0.22c-0.66-0.07-1.33-0.13-1.99-0.19L53.69,47.63z"/>
						</g>
					</g>
				</g>
				<g>
					<g>
						<g>
							<path class="st12" d="M57.49,47.85c0.77,0.45,1.53,0.93,2.28,1.39c0.76,0.47,1.51,0.92,2.27,1.36
								c0.76,0.43,1.53,0.85,2.3,1.21c0.39,0.18,0.78,0.35,1.18,0.49c0.4,0.15,0.8,0.26,1.21,0.34c-0.41,0.08-0.84,0.06-1.25,0.01
								c-0.42-0.06-0.83-0.15-1.24-0.29c-0.82-0.26-1.61-0.64-2.39-1.08c-0.77-0.44-1.53-0.95-2.26-1.52
								C58.87,49.18,58.15,48.57,57.49,47.85z"/>
						</g>
					</g>
				</g>
				<g>
					<g>
						<g>
							<path class="st12" d="M61.13,50.46c0.43-0.4,0.89-0.71,1.36-0.97c0.47-0.26,0.96-0.47,1.45-0.64c0.49-0.17,1-0.27,1.51-0.32
								c0.51-0.04,1.02-0.02,1.53,0.13c-0.5,0.16-0.99,0.29-1.47,0.44c-0.48,0.15-0.97,0.3-1.45,0.46l-1.45,0.48
								C62.12,50.19,61.63,50.34,61.13,50.46z"/>
						</g>
					</g>
				</g>
				<g>
					<g>
						<g>
							<path class="st12" d="M63.55,49.37c0.6,0.23,1.19,0.48,1.78,0.72c0.59,0.25,1.17,0.48,1.76,0.7
								c0.59,0.22,1.18,0.41,1.77,0.56c0.3,0.08,0.6,0.13,0.9,0.17c0.3,0.04,0.61,0.05,0.92,0.03c-0.29,0.18-0.6,0.27-0.91,0.33
								c-0.31,0.05-0.63,0.07-0.95,0.04c-0.63-0.04-1.25-0.2-1.86-0.42c-0.6-0.23-1.2-0.52-1.77-0.87
								C64.63,50.27,64.07,49.87,63.55,49.37z"/>
						</g>
					</g>
				</g>
				<g>
					<g>
						<g>
							<path class="st12" d="M66.89,51.11c0.26-0.43,0.55-0.8,0.85-1.15c0.3-0.34,0.62-0.66,0.95-0.94
								c0.33-0.28,0.67-0.54,1.03-0.75c0.36-0.21,0.73-0.39,1.13-0.46c-0.31,0.35-0.62,0.66-0.94,0.96
								c-0.32,0.3-0.63,0.59-0.96,0.87c-0.33,0.28-0.66,0.55-1,0.8C67.61,50.69,67.26,50.92,66.89,51.11z"/>
						</g>
					</g>
				</g>
				<g>
					<g>
						<g>
							<path class="st12" d="M68.86,48.94c0.34,0.05,0.65,0.11,0.96,0.16c0.31,0.05,0.62,0.1,0.92,0.13
								c0.31,0.03,0.61,0.03,0.91,0.01c0.31-0.02,0.61-0.09,0.95-0.16c-0.24,0.34-0.55,0.59-0.88,0.72
								c-0.33,0.13-0.68,0.18-1.01,0.15c-0.34-0.03-0.67-0.14-0.98-0.3C69.42,49.48,69.12,49.26,68.86,48.94z"/>
						</g>
					</g>
				</g>
				<g>
					<g>
						<g>
							<path class="st12" d="M41.26,41.12c0.83,0.62,1.63,1.3,2.43,1.98c0.8,0.69,1.59,1.39,2.38,2.09l2.35,2.14
								c0.39,0.36,0.78,0.72,1.18,1.06c0.4,0.35,0.79,0.69,1.21,0.98c-0.46-0.14-0.9-0.4-1.33-0.66c-0.43-0.28-0.85-0.57-1.26-0.89
								c-0.83-0.63-1.63-1.31-2.42-2.02c-0.79-0.71-1.56-1.46-2.32-2.23C42.72,42.79,41.97,41.99,41.26,41.12z"/>
						</g>
					</g>
				</g>
				<g>
					<g>
						<g>
							<path class="st12" d="M38.68,41.12c0.59-0.23,1.2-0.34,1.81-0.39c0.61-0.04,1.23-0.01,1.84,0.08
								c0.61,0.09,1.21,0.28,1.8,0.53c0.15,0.07,0.29,0.14,0.44,0.21c0.14,0.07,0.29,0.17,0.43,0.25l0.21,0.13
								c0.07,0.05,0.14,0.1,0.2,0.15c0.13,0.11,0.27,0.21,0.4,0.33c-0.6-0.19-1.18-0.39-1.77-0.53c-0.59-0.14-1.17-0.27-1.77-0.36
								c-0.59-0.09-1.19-0.17-1.78-0.24L38.68,41.12z"/>
						</g>
					</g>
				</g>
				<g>
					<g>
						<g>
							<path class="st12" d="M36.25,39.96c0.59,0.41,1.14,0.86,1.7,1.33c0.55,0.47,1.09,0.96,1.63,1.47
								c0.54,0.5,1.07,1.02,1.59,1.54l0.4,0.39c0.13,0.13,0.26,0.26,0.4,0.39l0.2,0.2c0.07,0.06,0.13,0.12,0.2,0.19
								c0.13,0.14,0.27,0.24,0.41,0.37c-0.16-0.05-0.32-0.1-0.47-0.18c-0.08-0.04-0.15-0.08-0.23-0.12l-0.23-0.13
								c-0.15-0.09-0.3-0.19-0.44-0.29c-0.15-0.1-0.29-0.2-0.43-0.31c-0.57-0.43-1.12-0.91-1.66-1.42c-0.54-0.51-1.06-1.04-1.58-1.6
								C37.22,41.2,36.72,40.61,36.25,39.96z"/>
						</g>
					</g>
				</g>
				<g>
					<g>
						<g>
							<path class="st12" d="M32.76,41.26c0.48-0.44,1-0.75,1.54-1c0.54-0.24,1.1-0.41,1.67-0.49c0.14-0.02,0.28-0.03,0.43-0.04
								c0.14,0,0.29-0.01,0.43,0c0.29,0.01,0.57,0.04,0.85,0.11c0.56,0.13,1.12,0.37,1.61,0.77c-0.56-0.12-1.1-0.19-1.65-0.21
								c-0.27-0.01-0.54-0.01-0.81,0.01c-0.27,0.02-0.54,0.04-0.81,0.08c-0.54,0.07-1.08,0.18-1.62,0.32
								C33.86,40.95,33.32,41.1,32.76,41.26z"/>
						</g>
					</g>
				</g>
				<g>
					<g>
						<g>
							<path class="st12" d="M28.98,40.54c0.84-0.15,1.7-0.12,2.54-0.01c0.85,0.12,1.69,0.33,2.51,0.65
								c0.21,0.08,0.41,0.17,0.61,0.26c0.2,0.1,0.41,0.19,0.6,0.3c0.4,0.21,0.79,0.46,1.17,0.73c0.76,0.55,1.48,1.23,2.1,2.06
								c-0.74-0.58-1.49-1.1-2.27-1.54c-0.1-0.06-0.19-0.11-0.29-0.16l-0.29-0.16c-0.2-0.09-0.39-0.2-0.59-0.29
								c-0.39-0.19-0.79-0.36-1.19-0.51c-0.8-0.31-1.61-0.56-2.43-0.78C30.65,40.87,29.82,40.7,28.98,40.54z"/>
						</g>
					</g>
				</g>
				<g>
					<g>
						<g>
							<path class="st12" d="M25.48,42.57c0.64-0.39,1.33-0.63,2.02-0.8c0.69-0.16,1.39-0.24,2.1-0.22c0.7,0.02,1.41,0.15,2.09,0.41
								c0.34,0.13,0.68,0.3,1,0.49c0.32,0.21,0.63,0.45,0.92,0.73c-0.34-0.14-0.66-0.29-1-0.4c-0.33-0.11-0.67-0.21-1-0.27
								c-0.67-0.14-1.34-0.22-2.02-0.24c-0.68-0.02-1.36,0-2.04,0.06C26.86,42.39,26.18,42.47,25.48,42.57z"/>
						</g>
					</g>
				</g>
				<g>
					<g>
						<g>
							<path class="st12" d="M22.75,44.31c0.56-0.32,1.14-0.52,1.73-0.67c0.59-0.14,1.19-0.22,1.78-0.23
								c0.6-0.02,1.2,0.05,1.79,0.19c0.15,0.04,0.29,0.08,0.44,0.12c0.15,0.04,0.29,0.11,0.44,0.16c0.14,0.06,0.29,0.12,0.43,0.2
								c0.14,0.08,0.28,0.16,0.42,0.24c-0.6-0.06-1.18-0.14-1.76-0.16c-0.58-0.03-1.16-0.05-1.74-0.03
								c-0.58,0.01-1.16,0.04-1.75,0.07C23.94,44.24,23.35,44.28,22.75,44.31z"/>
						</g>
					</g>
				</g>
				<g>
					<g>
						<g>
							<path class="st12" d="M27.15,44.16c-0.48,0.17-0.94,0.36-1.39,0.58c-0.45,0.22-0.88,0.49-1.29,0.8
								c-0.21,0.16-0.41,0.32-0.6,0.51c-0.19,0.18-0.38,0.38-0.57,0.59c-0.37,0.42-0.71,0.89-1.05,1.4
								c0.17-0.67,0.44-1.29,0.78-1.82c0.17-0.27,0.36-0.51,0.56-0.73c0.2-0.22,0.42-0.41,0.64-0.58c0.45-0.34,0.93-0.58,1.42-0.71
								c0.25-0.06,0.5-0.1,0.75-0.11C26.66,44.07,26.91,44.08,27.15,44.16z"/>
						</g>
					</g>
				</g>
				<g>
					<g>
						<g>
							<g>
								<g>
									<path class="st12" d="M35.26,36.94c-1.36-0.16-2.72-0.33-4.08-0.49l-0.03-0.19c-0.01-0.07-1.2-7.34,0.76-14.13
										c1.04-3.61,2.7-6.15,5.06-7.76c2.53-1.73,5.92-2.43,10.37-2.17c3.93,0.24,7.06,1.92,9.28,5.02
										c1.89,2.64,2.7,5.71,3.09,7.19c0.91,3.47,0.48,9.82,0.46,10.09l-0.01,0.18l-3.46,0.48l0.09-0.33
										c0.02-0.06,1.64-5.9,0.15-11.53c-1.6-6.08-5.24-7.88-8.93-8.93c-2.08-0.59-9.14-1.92-12.58,5.75
										c-2.82,6.28-0.47,15.95-0.44,16.05C35.07,36.43,35.16,36.69,35.26,36.94z M31.62,36.04c1,0.12,2.01,0.24,3.01,0.35
										c-0.35-1.31-0.81-3.31-1-5.8c-0.23-2.98-0.44-6.67,1.33-10.59c1.34-2.99,3.39-4.98,6.08-5.92
										c2.14-0.75,4.67-0.78,7.13-0.09c2.45,0.7,4.26,1.62,5.68,2.9c1.69,1.53,2.87,3.61,3.59,6.36
										c1.31,4.97,0.25,10.09-0.07,11.41l2.31-0.32c0.06-1.07,0.35-6.7-0.46-9.79c-0.81-3.1-2.97-11.33-11.91-11.86
										c-8.36-0.5-12.82,2.37-14.91,9.59C30.64,28.36,31.45,34.86,31.62,36.04z"/>
								</g>
							</g>
						</g>
					</g>
					<path class="st12" d="M31.36,35.84c0.01-0.39,0.09-0.77,0.21-1.14c0.12-0.37,0.28-0.73,0.48-1.07c0.2-0.34,0.44-0.67,0.71-0.97
						c0.27-0.3,0.57-0.58,0.93-0.81c-0.19,0.35-0.4,0.68-0.6,1.01c-0.2,0.33-0.4,0.65-0.59,0.98c-0.19,0.33-0.38,0.66-0.56,0.99
						C31.75,35.16,31.57,35.49,31.36,35.84z"/>
					<g>
						<g>
							<g>
								<path class="st12" d="M30.94,29.7c0.05-0.37,0.17-0.72,0.33-1.05c0.16-0.34,0.36-0.65,0.6-0.95
									c0.24-0.3,0.51-0.57,0.81-0.82c0.3-0.25,0.64-0.46,1.01-0.62c-0.24,0.3-0.48,0.58-0.72,0.86c-0.24,0.28-0.47,0.56-0.7,0.84
									c-0.23,0.28-0.45,0.57-0.67,0.86C31.4,29.1,31.19,29.4,30.94,29.7z"/>
							</g>
						</g>
					</g>
					<g>
						<g>
							<g>
								<path class="st12" d="M31.79,23.11c0.09-0.32,0.25-0.62,0.44-0.9c0.19-0.28,0.42-0.54,0.68-0.78
									c0.26-0.24,0.54-0.45,0.85-0.63c0.31-0.18,0.64-0.34,1-0.43c-0.25,0.25-0.5,0.48-0.75,0.7l-0.74,0.67
									c-0.24,0.22-0.48,0.45-0.73,0.68C32.31,22.65,32.06,22.88,31.79,23.11z"/>
							</g>
						</g>
					</g>
					<g>
						<g>
							<g>
								<path class="st12" d="M34.32,17.03c0.15-0.26,0.38-0.48,0.63-0.67c0.26-0.18,0.55-0.33,0.87-0.43
									c0.31-0.1,0.64-0.16,0.98-0.17c0.33-0.01,0.67,0.03,0.97,0.15c-0.32,0.07-0.62,0.13-0.92,0.2
									c-0.29,0.07-0.58,0.15-0.86,0.24c-0.28,0.09-0.56,0.19-0.83,0.31C34.89,16.77,34.61,16.89,34.32,17.03z"/>
							</g>
						</g>
					</g>
					<g>
						<g>
							<g>
								<path class="st12" d="M39,13.27c0.23-0.24,0.55-0.41,0.89-0.51c0.35-0.1,0.72-0.12,1.08-0.08c0.36,0.04,0.72,0.15,1.02,0.32
									c0.31,0.17,0.57,0.41,0.72,0.69c-0.3-0.16-0.6-0.28-0.9-0.38c-0.3-0.09-0.6-0.16-0.91-0.19c-0.31-0.04-0.62-0.04-0.94-0.02
									C39.66,13.13,39.34,13.19,39,13.27z"/>
							</g>
						</g>
					</g>
					<g>
						<g>
							<g>
								<path class="st12" d="M45.52,12.39c0.27-0.03,0.54,0,0.79,0.07c0.25,0.07,0.5,0.18,0.71,0.32c0.22,0.14,0.41,0.31,0.56,0.5
									c0.15,0.19,0.27,0.41,0.32,0.65c-0.22-0.14-0.41-0.28-0.61-0.41c-0.19-0.13-0.38-0.26-0.57-0.38
									c-0.19-0.12-0.38-0.24-0.58-0.37C45.94,12.65,45.74,12.53,45.52,12.39z"/>
							</g>
						</g>
					</g>
					<g>
						<g>
							<g>
								<path class="st12" d="M50.64,13.02c0.34,0.02,0.66,0.14,0.95,0.3c0.29,0.16,0.54,0.38,0.74,0.62
									c0.2,0.25,0.35,0.52,0.44,0.82c0.08,0.29,0.11,0.6,0.03,0.89c-0.13-0.28-0.25-0.53-0.4-0.77c-0.14-0.24-0.3-0.47-0.48-0.68
									c-0.18-0.21-0.37-0.42-0.58-0.61C51.13,13.4,50.9,13.21,50.64,13.02z"/>
							</g>
						</g>
					</g>
					<g>
						<g>
							<g>
								<path class="st12" d="M55.5,16.2c0.2,0.18,0.33,0.39,0.41,0.62c0.09,0.23,0.13,0.47,0.13,0.71c0,0.24-0.05,0.48-0.14,0.71
									c-0.09,0.23-0.22,0.44-0.42,0.61c0-0.24,0.02-0.47,0.03-0.68c0.01-0.22,0.02-0.43,0.02-0.64c0-0.21,0-0.43-0.01-0.64
									C55.51,16.66,55.5,16.44,55.5,16.2z"/>
							</g>
						</g>
					</g>
					<g>
						<g>
							<g>
								<path class="st12" d="M58.41,20.74c0.12,0.26,0.17,0.53,0.17,0.81c0,0.28-0.06,0.55-0.16,0.81
									c-0.1,0.26-0.25,0.51-0.43,0.73c-0.19,0.22-0.41,0.42-0.69,0.55c0.12-0.26,0.24-0.49,0.34-0.73c0.11-0.23,0.21-0.47,0.3-0.7
									c0.09-0.24,0.17-0.47,0.25-0.72C58.26,21.25,58.32,21,58.41,20.74z"/>
							</g>
						</g>
					</g>
					<g>
						<g>
							<g>
								<path class="st12" d="M59.68,25.71c-0.06,0.32-0.17,0.62-0.31,0.91c-0.14,0.29-0.3,0.57-0.49,0.84
									c-0.19,0.27-0.4,0.52-0.64,0.76c-0.24,0.24-0.49,0.46-0.8,0.64c0.14-0.3,0.3-0.58,0.47-0.85c0.17-0.27,0.35-0.53,0.53-0.79
									c0.18-0.26,0.37-0.52,0.57-0.77C59.23,26.2,59.43,25.95,59.68,25.71z"/>
							</g>
						</g>
					</g>
					<g>
						<g>
							<g>
								<path class="st12" d="M59.99,31.05c0.02,0.33-0.07,0.65-0.2,0.96c-0.14,0.31-0.33,0.59-0.57,0.85
									c-0.24,0.25-0.52,0.48-0.84,0.65c-0.32,0.17-0.67,0.3-1.04,0.35c0.28-0.21,0.55-0.41,0.79-0.63
									c0.25-0.21,0.48-0.43,0.7-0.66c0.22-0.23,0.42-0.47,0.61-0.72C59.63,31.6,59.81,31.33,59.99,31.05z"/>
							</g>
						</g>
					</g>
				</g>
				<g>
					<g>
						<g>
							<path class="st12" d="M27.33,41.94c0.3-0.45,0.63-0.84,0.97-1.2c0.34-0.37,0.69-0.71,1.04-1.03c0.36-0.32,0.72-0.62,1.1-0.9
								c0.38-0.27,0.76-0.53,1.18-0.72c-0.3,0.45-0.63,0.84-0.97,1.2c-0.34,0.37-0.69,0.71-1.04,1.03c-0.36,0.32-0.72,0.62-1.1,0.9
								C28.13,41.49,27.74,41.75,27.33,41.94z"/>
						</g>
					</g>
				</g>
				<g>
					<g>
						<g>
							<path class="st12" d="M28.06,38.84c-0.27,0.5-0.57,0.95-0.88,1.39c-0.31,0.43-0.62,0.85-0.95,1.26
								c-0.32,0.4-0.65,0.8-0.99,1.18l-0.5,0.58c-0.17,0.2-0.33,0.38-0.47,0.62c0.02-0.16,0.07-0.31,0.12-0.45
								c0.05-0.14,0.11-0.28,0.17-0.41c0.13-0.26,0.26-0.51,0.41-0.75c0.29-0.47,0.6-0.91,0.93-1.32c0.33-0.41,0.67-0.79,1.03-1.15
								C27.28,39.44,27.65,39.11,28.06,38.84z"/>
						</g>
					</g>
				</g>
			</g>
		</g>
	</g>
	<g>
		<g>
			<g>
				<ellipse transform="matrix(0.866 -0.5 0.5 0.866 -9.0176 39.5085)" class="st13" cx="69.22" cy="36.58" rx="6.6" ry="6.61"/>
				<g>
					<g>
						<path class="st13" d="M72.14,29.94c-0.08-0.15-0.13-0.23-0.21-0.38c-0.19-0.13-0.5-0.25-0.77-0.36
							c-0.29-0.08-0.55-0.15-0.64-0.23c0.01-0.05,0.81-0.35,0.95-0.29c0.67,0.09,1.09,0.36,1.45,0.71c0.36,0.36,0.68,0.76,1.12,1.29
							c0.06,0.11,0.55,0.18,0.94,0.4c0,0-0.05-0.13-0.11-0.27c0.58,0.27,0.99,1.15,1.37,1.75c0-0.18-0.01-0.17,0.01-0.29
							c-0.03,0.71,0.42,1.8,0.44,2.67c-0.03,0.18-0.06,0.3-0.1,0.43c0.04,0.76-0.09,1.48-0.24,2.34c-0.16,0.72-0.56,1.68-1,2.53
							c-0.4,0.72-0.95,1.41-1.58,2.02c-0.63,0.61-1.32,1.12-1.98,1.71c-0.22,0.19-0.71,0.45-1.2,0.38c-0.45,0.44-1.24,0.7-2.1,0.72
							c-0.86,0.02-1.76-0.24-2.48-0.52c-0.54-0.19-0.75-0.63-0.83-0.91c-1.4-0.37-2.89-1.37-3.63-2.81c-0.5-0.89-0.82-1.9-0.86-2.95
							c-0.03-1.04,0.23-2.12,0.82-3.04c0.13-0.26,0.37-0.74,0.47-0.99l0.32-0.26c0.7-0.94,1.48-1.61,2.26-2.1
							c1.06-0.67,1.22-0.62,1.36-0.65c-0.53,0.35-1.02,0.75-1.43,1.33c-0.41,0.58-0.66,1.32-1,2.14c-0.24,0.45-0.19,1.25-0.06,1.84
							c0.18,0.49-0.1,1.07,0.44,1.41c-0.2,0.33-0.26,0.9-0.15,1.53c0.13,0.61,0.5,1.24,0.98,1.58c0.02,0.11-0.1,0.07-0.03,0.24
							c0.77,0.41,1.47,0.83,2.27,1.16c0.79,0.33,1.68,0.53,2.58,0.46c0.87-0.1,2.02-0.11,2.99-0.78c0.04-0.04,0.18-0.09,0.35-0.16
							c0.16-0.08,0.34-0.18,0.46-0.28c0.08-0.07,0.14-0.17,0.21-0.25c0.66-0.51,1.17-1.33,1.48-1.85c0.36-0.63,0.46-1.28,0.54-1.89
							c0.08-0.46,0.03-1.08-0.1-1.65c-0.11-0.58-0.32-1.1-0.31-1.53c0.01-0.11-0.18-0.39-0.27-0.57c0-0.11,0-0.23-0.02-0.34
							c-0.11-0.19-0.39-0.17-0.51-0.34c-0.74-1.17-2.16-2.1-2.67-2.79C71.77,30.08,72.26,30.17,72.14,29.94z"/>
						<path class="st13" d="M66.18,30.46c0.05-0.04-0.15,0.07-0.27,0.13c0.11-0.05,0.19-0.07,0.42-0.19l-0.36,0.19
							c-0.18,0.12,0.35-0.18,0.15-0.06c-0.2,0.1-0.36,0.17-0.27,0.12c0.04-0.01,0.12-0.06,0.24-0.12c0.01-0.03-0.18,0.07-0.3,0.11
							c0.19-0.09,0.38-0.19,0.56-0.3L66.18,30.46z"/>
						<path class="st13" d="M67.48,29.87l-0.13,0.05c-0.05,0.04,0.07,0,0.19-0.04c-0.54,0.21-0.02-0.05-0.34,0.06
							C67.2,29.96,67.53,29.82,67.48,29.87z"/>
						<path class="st13" d="M66.82,30.24c-0.23,0.08-0.45,0.2-0.51,0.21c0.19-0.1,0.4-0.17,0.59-0.25L66.82,30.24z"/>
						<path class="st13" d="M71.21,29.25c0.23-0.03,0.11-0.01,0.46,0.05l-0.51-0.07L71.21,29.25z"/>
						<path class="st13" d="M76.38,36.77c0.11-0.27,0.21-0.49,0.27-0.94C76.61,36.29,76.41,36.69,76.38,36.77z"/>
						<path class="st13" d="M74.72,40.47c-0.02-0.03-0.1,0.08-0.01-0.08c0.06-0.06,0.05,0.08,0.18-0.18L74.72,40.47z"/>
						<path class="st13" d="M74.4,40.64l-0.16,0.1C74.25,40.75,74.31,40.72,74.4,40.64z"/>
						<path class="st13" d="M74.13,29.63l0,0.05c0.02,0,0.06,0.01,0.09,0.01C74.19,29.68,74.16,29.65,74.13,29.63z"/>
						<path class="st13" d="M74.68,30.17c-0.1-0.15-0.21-0.31-0.32-0.45c-0.05-0.01-0.09-0.01-0.13-0.02
							C74.5,29.92,74.3,29.97,74.68,30.17z"/>
						<path class="st13" d="M74.14,29.78l0-0.09c-0.47-0.12-0.5-0.46-1.16-0.62C73.37,29.34,73.8,29.57,74.14,29.78z"/>
						<path class="st13" d="M73.59,29.65c-0.07,0-0.14,0-0.21,0c-0.13-0.08-0.09-0.14-0.06-0.17l-0.33-0.1
							c-0.1,0.04,0.09,0.16,0.32,0.29c0.23,0.13,0.49,0.32,0.6,0.4C73.81,29.93,73.7,29.79,73.59,29.65z"/>
						<polygon class="st13" points="70.4,29.92 70.41,29.92 70.4,29.92 						"/>
						<path class="st13" d="M71.1,30.37l0.1-0.19c-0.34-0.09-0.38-0.21-0.78-0.26l-0.01,0C70.5,30.13,70.89,30.1,71.1,30.37z"/>
						<path class="st13" d="M74.93,30.8c-0.29-0.32-0.57-0.5-0.76-0.47c0.19,0.18,0.39,0.35,0.54,0.56
							C74.59,30.6,74.81,30.82,74.93,30.8z"/>
						<path class="st13" d="M74.96,31.65c-0.07-0.09-0.16-0.18-0.24-0.26l0.04,0.17C74.8,31.55,74.87,31.57,74.96,31.65z"/>
						<path class="st13" d="M74.76,31.57c-0.04,0.02-0.03,0.08,0.03,0.19C74.78,31.7,74.78,31.63,74.76,31.57z"/>
						<path class="st13" d="M74.12,31.23c0.02,0.29,0.17,0.11,0.39,0.42C74.69,31.54,74.26,31.37,74.12,31.23z"/>
						<polygon class="st13" points="75.06,32.49 75,32.67 75.18,32.59 						"/>
						<path class="st13" d="M76.62,34.92c-0.15-0.35-0.11,0.25-0.19,0.3L76.62,34.92z"/>
						<path class="st13" d="M74.9,33.07l0.09-0.19l-0.11,0c-0.05-0.08-0.13-0.18-0.11-0.3C74.55,32.65,74.84,32.9,74.9,33.07z"/>
						<path class="st13" d="M75.84,34.15c0,0.13,0.01,0.25,0,0.37"/>
						<path class="st13" d="M73.92,32.82c-0.07,0.05,0.01,0.53-0.25,0.11c0.1,0.16,0.29,0.35,0.05,0.32
							c0.18,0.24,0.18-0.1,0.37,0.01C73.91,33.19,73.98,32.97,73.92,32.82z"/>
						<path class="st13" d="M74.24,33.54c0.06,0.14,0.09,0.34,0.21,0.37C74.36,33.78,74.44,33.58,74.24,33.54z"/>
						<polygon class="st13" points="73.94,33.87 73.95,33.63 73.86,33.83 						"/>
						<line class="st13" x1="75.88" y1="36.58" x2="76.01" y2="36.57"/>
						<path class="st13" d="M74.41,34.58c-0.09-0.15-0.19-0.29-0.31-0.43c0.06,0.14,0.12,0.28,0.17,0.43
							c0.24,0.21,0.22,0.07,0.17-0.13C74.45,34.51,74.44,34.56,74.41,34.58z"/>
						<path class="st13" d="M74.38,33.98l-0.15-0.1c-0.04,0.02,0.09,0.22,0.18,0.4C74.36,34.14,74.33,34.02,74.38,33.98z"/>
						<path class="st13" d="M74.4,34.28c0.01,0.06,0.03,0.12,0.04,0.17C74.44,34.4,74.42,34.34,74.4,34.28z"/>
						<path class="st13" d="M75.73,38.09c0.04-0.19,0.11-0.37,0.13-0.56C75.81,37.74,75.75,37.91,75.73,38.09z"/>
						<path class="st13" d="M74.43,34.97l0.03,0.07l0.16-0.02C74.53,34.88,74.46,34.97,74.43,34.97z"/>
						<path class="st13" d="M74.47,35.58c-0.02,0.13,0.2,0.37,0.24,0.48c0.04-0.17-0.07-0.35-0.13-0.55
							C74.64,35.72,74.53,35.58,74.47,35.58z"/>
						<path class="st13" d="M74.59,36.19c-0.06-0.14-0.11-0.27-0.19-0.4C74.31,35.88,74.51,36.01,74.59,36.19z"/>
						<path class="st13" d="M74.85,36.89c0.02,0.04,0.04,0.01,0.08,0.09c0.02-0.07-0.03-0.22-0.04-0.33L74.85,36.89z"/>
						<path class="st13" d="M74.56,32.7c0.09,0.13,0.18,0.24,0.26,0.36c-0.08-0.21-0.15-0.42-0.26-0.61
							C74.55,32.53,74.54,32.62,74.56,32.7z"/>
						<path class="st13" d="M63.23,32.33c-0.24,0.28-0.64,0.67-0.96,1.13c-0.34,0.46-0.63,0.97-0.79,1.36
							c-0.36,0.62-0.51,1.42-0.45,2.24c0.04,0.83,0.33,1.64,0.63,2.39l-0.09,0.02c0.12,0.64,0.51,1.3,0.96,1.9
							c0.49,0.58,1.06,1.1,1.64,1.51l0.02-0.15c-0.17-0.16-0.4-0.35-0.15-0.37c0.2,0.23,0.48,0.54,0.51,0.65l0.3-0.02
							c0.11,0.18-0.27,0.47,0.3,0.62c0.48-0.21,1.02,0.77,1.25,0.29c0.1,0.35,0.69,0.24,0.94,0.3l-0.12-0.25
							c0.49,0.23,0.98,0.6,1.26,0.55c0.7-0.01,1.65-0.15,2.33-0.48c0.21,0.16-0.75,0.22-0.25,0.3c0.66-0.39,1.42-0.68,2.13-1.15
							c0.72-0.45,1.35-1.07,1.8-1.72c-0.04,0.03-0.13,0.13-0.08,0.04c0.24-0.19,0.43-0.57,0.72-0.98c-0.08,0.04-0.44,0.58-0.6,0.76
							c-0.04-0.23,0.12-0.07,0.42-0.63c-0.03,0.03-0.09,0.1-0.1,0.08c0.3-0.55,0.21-0.15,0.43-0.58c-0.05,0.07-0.11,0.14-0.17,0.21
							c0.23-0.4,0.05-0.14,0.28-0.61c0.03,0.1,0.2-0.1,0.26-0.22c-0.01-0.07,0.22-0.52,0.13-0.49c0.37-0.55,0.22-0.77,0.55-1.32
							c-0.01-0.27-0.15,0.23-0.21,0.2c0.1-0.62,0.14-0.18,0.22-0.4c0.02-0.2,0.15-1.02,0.25-1.4l-0.09-0.02
							c0.19-0.57,0.14-1.55,0.28-1.83c-0.2-0.2-0.14,0.28-0.11,0.69c-0.07,0.1-0.17-0.3-0.16-0.51c0.01,0.1-0.06,0.16,0.01,0.25
							c-0.1,0.05-0.07-0.25-0.11-0.35c-0.07-0.71,0.12,0.24,0.13-0.06c-0.07-0.25-0.22-0.91-0.31-0.57
							c-0.16-0.54,0.12-0.29,0.1-0.61c0.04,0.47,0.29,0.54,0.22,0.92c0.08,0.09,0.12,0.04,0.14-0.13c-0.1-0.47-0.29-1.44-0.47-1.32
							l0.01-0.29L76,32.13l-0.01-0.11c-0.07,0.33,0.04,0.78-0.07,1.04c-0.07,0.08-0.13-0.22-0.23-0.35l0.09-0.2
							c-0.16-0.38-0.4-0.11-0.66-0.58c0.39,0.14-0.07-0.72-0.26-1.12c-0.6,0-0.19,0.26-0.7,0.29c-0.29-0.27-0.83-0.54-1.19-0.86
							c0.99,0.57-0.34-0.53,0.55-0.18c-0.15-0.14-0.33-0.17-0.52-0.25c0-0.33,0.41-0.09,0.26-0.4l-0.18,0.15
							c-0.19-0.25-0.27-0.52-0.85-0.68c-0.1,0.06-0.44,0.13-0.68,0.06c-0.05-0.11-0.07-0.2-0.63-0.16c-0.55,0.18-0.3,0.23,0.08,0.32
							c0.38,0.09,0.89,0.29,0.92,0.46c0.67,0.21,0.87,0.62,1.05,1.03c0.17,0.44,0.31,0.9,0.74,1.49c0.25,0.08,0.25-0.03,0.58,0.27
							c0.23,0.01,0.19-0.17,0.08-0.4c-0.13-0.22-0.33-0.49-0.36-0.68c0.15,0.06,0.3,0.13,0.35,0.27l0.07-0.29
							c0.64,0.52,0.02,0.57,0.52,1.04l-0.14-0.09c0.1,0.09,0.2,0.18,0.28,0.28l-0.01-0.1c0.14,0.2,0.32,0.17,0.43,0.54l-0.28-0.19
							c0.2,0.12,0,0.3,0.18,0.53c-0.14-0.11-0.26-0.1-0.31-0.18c0.1,0.42,0.24,0.76,0.33,1.1c0.52,1.11,0.47,2.36,0.24,3.47
							c0.02-0.06,0.04-0.11,0.05-0.13c0.01,0.21-0.08,0.33-0.14,0.44c-0.05,0.21-0.12,0.41-0.21,0.6c-0.12,0.44-0.26,0.79-0.55,1.28
							c-0.05,0-0.04-0.04-0.01-0.1c-0.09,0.18-0.14,0.29,0,0.14c-0.17,0.31-0.31,0.4-0.46,0.61l0.28-0.52
							c-0.17,0.18-0.08,0.23-0.3,0.48c-0.32,0.41,0.21-0.13,0.21-0.05c-0.04,0.06-0.08,0.12-0.13,0.17
							c0.08-0.04,0.14-0.09,0.21-0.13c-0.3,0.37-0.53,0.49-0.71,0.59c0.09-0.06,0.17-0.15,0.25-0.22c0.01-0.16-0.39,0.4-0.56,0.44
							l0.03-0.04c-0.38,0.34,0.13-0.03-0.12,0.22c-0.19,0.1-0.38,0.19-0.57,0.27l0.14,0.02c-0.25,0.27-0.95,0.48-1.51,0.61
							c-0.32,0.07-0.7,0.28-1.11,0.38c0.09,0.03,0.25,0.03,0.22,0.09c-0.25,0.05-0.8,0.12-0.63-0.08c-0.11,0.07-0.22,0.1-0.34,0.16
							c-0.13,0.01-0.23-0.02-0.31-0.05l0.1,0.08c-0.14,0.04-0.29,0.04-0.43,0.06c0.01-0.04-0.15-0.13,0.06-0.13
							c-0.45-0.22-1.09,0.1-1.79-0.22l0.24-0.03c-0.46,0.01-0.39-0.32-0.86-0.39l0.03,0.19c-0.36-0.05-0.82-0.58-0.66-0.63
							c-0.26,0.34-0.09-0.21-0.46-0.02l0.06-0.43c-0.23-0.04-0.43-0.13-0.44,0.11c-0.16-0.35-0.3-0.57-0.63-0.53c0,0-0.01,0-0.01,0
							l-0.01,0l0,0c-0.08-0.03-0.24-0.34-0.29-0.1c-0.51-0.64,0.04-0.56-0.39-1.16l-0.27,0.12c-0.21-0.54-0.68-0.97-0.95-1.39
							l0.21-0.12c-0.13-0.29-0.23,0.12-0.37-0.36c0.03-0.08,0.09-0.15,0.15-0.15c-0.11-0.47-0.02-1.11,0.05-1.8
							c0.04,0.01,0.06,0.1,0.08,0.15c0-0.3-0.02-0.79,0.02-1.15c0.45-0.73,0.88-1.76,1.52-2.64c0.43-0.73,0.9-1.08,0.91-1.19
							C65.08,31.2,64.33,31.59,63.23,32.33z"/>
					</g>
				</g>
			</g>
		</g>
	</g>
</g>
</svg>
