<?xml version="1.0" encoding="utf-8"?>
<!-- Generator: Adobe Illustrator 26.2.1, SVG Export Plug-In . SVG Version: 6.00 Build 0)  -->
<svg version="1.1" id="Camada_1" xmlns="http://www.w3.org/2000/svg" xmlns:xlink="http://www.w3.org/1999/xlink" x="0px" y="0px"
	 viewBox="0 0 95 129.8" style="enable-background:new 0 0 95 129.8;" xml:space="preserve">
<style type="text/css">
	.st0{fill:#AEA484;}
	.st1{fill:none;stroke:#AEA484;stroke-width:0.25;stroke-miterlimit:10;}
	.st2{fill:none;stroke:#B2A08D;stroke-width:0.3;stroke-miterlimit:10;}
	.st3{opacity:0.18;fill:none;stroke:#B2A08D;stroke-width:0.3;stroke-miterlimit:10;enable-background:new    ;}
	.st4{opacity:0.18;fill:none;stroke:#AEA484;stroke-width:0.25;stroke-miterlimit:10;enable-background:new    ;}
	.st5{clip-path:url(#SVGID_00000114783731857689611660000016013213760953483392_);}
	.st6{fill-rule:evenodd;clip-rule:evenodd;fill:#FFFBE2;stroke:#AEA484;stroke-width:0.25;stroke-miterlimit:10;}
</style>
<g>
	<g>
		<g>
			<g>
				<g>
					<path class="st0" d="M73.1,71.1c-3.3,0-6.6,0.1-9.9,0c-0.8,0-0.7-1.3-0.7-1.9c0-1.5,0.1-3.1,0.1-4.6c0.2-0.2,0.5-0.3,0.8-0.3
						c1.8-0.3,3.6-0.2,5.4-0.2c1.2,0,3.1,0.2,4.3,0.1c0.3-0.1,0.6,0.3,0.6,0.6c0.3,1.3,0.1,2.8,0.1,4.1c0,0.5-0.1,1.1,0,1.6
						C73.7,70.7,73.4,71.1,73.1,71.1L73.1,71.1z M73.1,71c0.3,0,0.6-0.3,0.6-0.6c-0.1-0.6,0-1.1,0-1.6c0-1.3,0.2-2.8-0.1-4.1
						c-0.1-0.3-0.3-0.5-0.4-0.5c-1.3,0.2-3.1,0-4.4,0c-2,0-4-0.3-5.9,0.3c-0.2,0.1-0.3,0.2-0.2,0.4c0.1,1.8-0.3,3.6,0,5.4
						c0.1,0.3,0.2,0.8,0.6,0.8C66.4,71,69.7,71,73.1,71L73.1,71z"/>
					<path class="st0" d="M63.2,64.4c-0.3,0-0.3,0.4-0.4,0.6c-0.2,1.2,0,2.7,0,3.9c0,0.5,0.1,1.1,0,1.6c0,0.2,0.2,0.4,0.4,0.4
						c1.4-0.1,3.7,0.1,5.2,0.1c1.6,0,3.3,0.1,4.9-0.2c0.1,0,0.2-0.1,0.2-0.2c-0.2-1.8,0.2-3.7-0.1-5.4c0-0.2-0.1-0.6-0.3-0.6
						C69.9,64.4,66.4,64.4,63.2,64.4L63.2,64.4z M63.2,64.4c3.3,0,6.6,0,9.9,0c0.2,0,0.3,0.1,0.3,0.2c0.1,0.4,0.2,0.8,0.2,1.2
						c0.1,1.5-0.2,3.2-0.1,4.6c0.1,0.2-0.1,0.2-0.2,0.3c-1.6,0.4-3.3,0.2-4.9,0.2c-1.5,0-3.8-0.2-5.2,0c-0.2,0-0.5-0.2-0.5-0.5
						c0.1-0.5,0-1,0-1.6c0-1.2-0.1-2.7,0-3.9C62.8,64.8,62.8,64.4,63.2,64.4L63.2,64.4z"/>
				</g>
			</g>
			<g>
				<g>
					<path class="st0" d="M32,71.1c-3.3,0-6.6,0.1-9.9,0c-0.8,0-0.7-1.3-0.7-1.9c0-1.5,0.1-3.1,0.1-4.6c0.2-0.2,0.5-0.3,0.8-0.3
						c1.8-0.3,3.6-0.2,5.4-0.2c1.2,0,3.1,0.2,4.3,0.1c0.3-0.1,0.5,0.3,0.6,0.6c0.3,1.3,0.1,2.8,0.1,4.1c0,0.5-0.1,1.1,0,1.6
						C32.6,70.7,32.3,71.1,32,71.1L32,71.1z M32,71c0.3,0,0.6-0.3,0.6-0.6c-0.1-0.6,0-1.1,0-1.6c0-1.3,0.2-2.8-0.1-4.1
						c-0.1-0.3-0.3-0.5-0.5-0.5c-1.3,0.2-3.1,0-4.4,0c-2,0-4-0.3-5.9,0.3c-0.2,0.1-0.3,0.2-0.2,0.4c0.1,1.8-0.3,3.6,0,5.4
						c0.1,0.3,0.2,0.8,0.6,0.8C25.4,71,28.7,71,32,71L32,71z"/>
					<path class="st0" d="M22.1,64.4c-0.3,0-0.3,0.4-0.4,0.6c-0.2,1.2,0,2.7,0,3.9c0,0.5,0.1,1.1,0,1.6c0,0.2,0.2,0.4,0.4,0.4
						c1.4-0.1,3.7,0.1,5.2,0.1c1.6,0,3.3,0.1,4.9-0.2c0.1,0,0.2-0.1,0.2-0.2c-0.2-1.5,0.1-3.2,0-4.7c0-0.3,0-1.2-0.4-1.3
						C28.8,64.4,25.3,64.4,22.1,64.4L22.1,64.4z M22.1,64.4c3.3,0,6.6,0,9.9,0c0.2,0,0.3,0.1,0.3,0.2c0.1,0.4,0.2,0.8,0.2,1.2
						c0.1,1.5-0.2,3.2,0,4.6c0.1,0.2-0.1,0.2-0.2,0.3c-1.6,0.4-3.3,0.2-4.9,0.2c-1.5,0-3.8-0.2-5.2,0c-0.2,0-0.5-0.2-0.5-0.5
						c0.1-0.5,0-1,0-1.6c0-1.2-0.1-2.7,0.1-3.9C21.7,64.8,21.8,64.3,22.1,64.4L22.1,64.4z"/>
				</g>
			</g>
			<g>
				<g>
					<path class="st0" d="M32.4,63.6c-1.8-0.2-3.8,0.4-5.5-0.1c-0.2-0.1-0.5-0.3-0.5-0.6c0.1-0.3,0-0.7,0-1c0-0.7-0.1-1.4,0-2.1
						c0-0.3,0.2-0.8,0.6-0.7c1.8,0.2,3.7-0.4,5.5,0.1c0.2,0.1,0.5,0.3,0.5,0.6c-0.1,0.3,0,0.7,0,1c0,0.7,0.1,1.4,0,2.1
						C33,63.2,32.8,63.6,32.4,63.6L32.4,63.6z M32.4,63.6c0.4,0,0.6-0.4,0.6-0.7c0.1-0.7,0-1.4,0-2.1c-0.1-0.8,0.3-1.3-0.5-1.5
						c-1.7-0.5-3.8,0.1-5.5-0.1c-0.4,0-0.5,0.4-0.6,0.7c-0.1,0.7,0,1.4,0,2.1c0.1,0.7-0.3,1.3,0.5,1.5
						C28.7,63.9,30.6,63.3,32.4,63.6L32.4,63.6z"/>
					<path class="st0" d="M27.1,59.4c-0.4,0-0.4,0.5-0.4,0.7c-0.1,0.5,0,1.3,0,1.9c0,0.3,0.1,0.7,0,1c0,0.2,0.3,0.3,0.5,0.3
						c1.7,0.3,3.5,0,5.2,0.1c0.3,0,0.3-0.4,0.4-0.7c0.1-0.5,0-1.3,0-1.9c0-0.3,0-0.7,0-1c0-0.2-0.3-0.3-0.5-0.3
						C30.6,59.2,28.7,59.5,27.1,59.4L27.1,59.4z M27.1,59.3c1.8,0.1,3.8-0.4,5.6,0.1c0.1,0,0.3,0.2,0.2,0.3c0,0.3,0,0.6,0,0.9
						c0,0.7,0.1,1.7-0.1,2.4c0,0.1-0.2,0.3-0.4,0.3c-1.8-0.2-3.8,0.3-5.6-0.1c-0.1,0-0.3-0.2-0.2-0.3c0-0.3,0-0.6,0-0.9
						c0-0.7-0.1-1.7,0.1-2.4C26.8,59.5,26.9,59.3,27.1,59.3L27.1,59.3z"/>
				</g>
			</g>
			<g>
				<g>
					<path class="st0" d="M68.1,63.6c-1.8-0.2-3.8,0.4-5.5-0.1c-0.2-0.1-0.5-0.3-0.5-0.6c0.1-0.3,0-0.7,0-1c0-0.7-0.1-1.4,0-2.1
						c0-0.3,0.2-0.8,0.6-0.7c1.8,0.2,3.7-0.4,5.5,0.1c0.2,0.1,0.6,0.3,0.5,0.6c-0.1,0.3,0,0.7,0,1c0,0.7,0.1,1.4,0,2.1
						C68.6,63.2,68.4,63.6,68.1,63.6L68.1,63.6z M68.1,63.6c0.4,0,0.6-0.4,0.6-0.7c0.1-0.7,0-1.4,0-2.1c-0.1-0.8,0.3-1.3-0.4-1.5
						c-1.7-0.5-3.8,0.1-5.5-0.1c-0.4,0-0.5,0.4-0.6,0.7c-0.1,0.7,0,1.4,0,2.1c0.1,0.7-0.3,1.3,0.5,1.5
						C64.3,63.9,66.3,63.3,68.1,63.6L68.1,63.6z"/>
					<path class="st0" d="M62.7,59.4c-0.3,0-0.4,0.5-0.4,0.7c-0.1,0.5,0,1.3,0,1.9c0,0.3,0.1,0.7,0,1c0,0.2,0.3,0.3,0.5,0.3
						c1.7,0.3,3.5,0,5.2,0.1c0.3,0,0.3-0.4,0.4-0.7c0.1-0.5,0-1.3,0-1.9c0-0.3-0.1-0.7,0-1c0-0.2-0.3-0.3-0.5-0.3
						C66.2,59.2,64.4,59.5,62.7,59.4L62.7,59.4z M62.7,59.3c1.8,0.1,3.8-0.4,5.6,0.1c0.1,0,0.3,0.2,0.2,0.3c-0.1,0.3,0,0.6,0,0.9
						c0,0.7,0.1,1.7-0.1,2.4c-0.1,0.1-0.2,0.3-0.4,0.3c-1.8-0.2-3.8,0.3-5.6-0.1c-0.1,0-0.3-0.2-0.2-0.3c0-0.3,0-0.6,0-0.9
						c0-0.7-0.1-1.7,0.1-2.4C62.4,59.5,62.5,59.3,62.7,59.3L62.7,59.3z"/>
				</g>
			</g>
			<g>
				<g>
					<path class="st0" d="M73.1,58.6c-3.3,0-6.6,0.1-9.9,0c-0.8,0-0.7-1.3-0.7-1.9c0-1.5,0.1-3.1,0.1-4.6c0.2-0.2,0.5-0.3,0.8-0.3
						c1.8-0.3,3.6-0.2,5.4-0.2c1.2,0,3.1,0.2,4.3,0.1c0.3-0.1,0.6,0.3,0.6,0.5c0.3,1.3,0.1,2.8,0.1,4.1c0,0.5-0.1,1.1,0,1.6
						C73.7,58.2,73.4,58.6,73.1,58.6L73.1,58.6z M73.1,58.5c0.3,0,0.6-0.3,0.6-0.6c-0.1-0.5,0-1.1,0-1.6c0-1.3,0.2-2.8-0.1-4.1
						c-0.1-0.3-0.3-0.5-0.4-0.5c-1.3,0.2-3.1,0-4.4,0c-2,0-4-0.3-5.9,0.3c-0.2,0.1-0.3,0.2-0.2,0.4c0.1,1.8-0.3,3.6,0,5.4
						c0.1,0.3,0.2,0.8,0.6,0.8C66.4,58.5,69.7,58.5,73.1,58.5L73.1,58.5z"/>
					<path class="st0" d="M63.2,51.9c-0.3,0-0.3,0.4-0.4,0.6c-0.2,1.2,0,2.7,0,3.9c0,0.5,0.1,1.1,0,1.5c0,0.2,0.2,0.4,0.4,0.4
						c1.4-0.1,3.7,0.1,5.2,0.1c1.6,0,3.3,0.1,4.9-0.2c0.1,0,0.2-0.1,0.2-0.2c-0.2-1.8,0.2-3.7-0.1-5.4c0-0.2-0.1-0.6-0.3-0.6
						C69.9,51.9,66.4,51.9,63.2,51.9L63.2,51.9z M63.2,51.9c3.3,0,6.6,0,9.9,0c0.2,0,0.3,0.1,0.3,0.2c0.1,0.4,0.2,0.8,0.2,1.2
						c0.1,1.5-0.2,3.2-0.1,4.6c0.1,0.2-0.1,0.2-0.2,0.3c-1.6,0.4-3.3,0.2-4.9,0.2c-1.5,0-3.8-0.2-5.2,0c-0.2,0-0.5-0.2-0.5-0.5
						c0.1-0.5,0-1,0-1.5c0-1.2-0.1-2.7,0-3.9C62.8,52.3,62.8,51.9,63.2,51.9L63.2,51.9z"/>
				</g>
			</g>
			<g>
				<g>
					<path class="st0" d="M73.1,46.1c-3.3,0-6.6,0.1-9.9,0c-0.8,0-0.7-1.3-0.7-1.9c0-1.5,0.1-3.1,0.1-4.6c0.2-0.2,0.5-0.3,0.8-0.3
						c1.8-0.3,3.6-0.2,5.4-0.2c1.2,0,3.1,0.2,4.3,0.1c0.3-0.1,0.6,0.3,0.6,0.5c0.3,1.3,0.1,2.8,0.1,4.1c0,0.5-0.1,1.1,0,1.6
						C73.7,45.7,73.4,46.1,73.1,46.1L73.1,46.1z M73.1,46c0.3,0,0.6-0.3,0.6-0.6c-0.1-0.5,0-1.1,0-1.6c0-1.3,0.2-2.8-0.1-4.1
						c-0.1-0.3-0.3-0.5-0.4-0.5c-1.3,0.2-3.1,0-4.4,0c-2,0-4-0.3-5.9,0.3c-0.2,0.1-0.3,0.2-0.2,0.4c0.1,1.8-0.3,3.6,0,5.4
						c0.1,0.3,0.2,0.8,0.6,0.8C66.4,46,69.7,46,73.1,46L73.1,46z"/>
					<path class="st0" d="M63.2,39.4c-0.3,0-0.3,0.4-0.4,0.6c-0.2,1.2,0,2.7,0,3.9c0,0.5,0.1,1.1,0,1.5c0,0.2,0.2,0.4,0.4,0.4
						c1.4-0.1,3.7,0.1,5.2,0.1c1.6,0,3.3,0.1,4.9-0.2c0.1,0,0.2-0.1,0.2-0.2c-0.2-1.8,0.2-3.7-0.1-5.4c0-0.2-0.1-0.6-0.3-0.6
						C69.9,39.4,66.4,39.4,63.2,39.4L63.2,39.4z M63.2,39.4c3.3,0,6.6,0,9.9,0c0.2,0,0.3,0.1,0.3,0.2c0.1,0.4,0.2,0.8,0.2,1.2
						c0.1,1.5-0.2,3.2-0.1,4.6c0.1,0.2-0.1,0.2-0.2,0.3c-1.6,0.4-3.3,0.2-4.9,0.2c-1.5,0-3.8-0.2-5.2,0c-0.2,0-0.5-0.2-0.5-0.5
						c0.1-0.5,0-1,0-1.5c0-1.2-0.1-2.7,0-3.9C62.8,39.8,62.8,39.4,63.2,39.4L63.2,39.4z"/>
				</g>
			</g>
			<g>
				<g>
					<path class="st0" d="M32,58.6c-3.3,0-6.6,0.1-9.9,0c-0.8,0-0.7-1.3-0.7-1.9c0-1.5,0.1-3.1,0.1-4.6c0.2-0.2,0.5-0.3,0.8-0.3
						c1.8-0.3,3.6-0.2,5.4-0.2c1.2,0,3.1,0.2,4.3,0.1c0.3-0.1,0.5,0.3,0.6,0.5c0.3,1.3,0.1,2.8,0.1,4.1c0,0.5-0.1,1.1,0,1.6
						C32.6,58.2,32.3,58.6,32,58.6L32,58.6z M32,58.5c0.3,0,0.6-0.3,0.6-0.6c-0.1-0.5,0-1.1,0-1.6c0-1.3,0.2-2.8-0.1-4.1
						c-0.1-0.3-0.3-0.5-0.5-0.5c-1.3,0.2-3.1,0-4.4,0c-2,0-4-0.3-5.9,0.3c-0.2,0.1-0.3,0.2-0.2,0.4c0.1,1.8-0.3,3.6,0,5.4
						c0.1,0.3,0.2,0.8,0.6,0.8C25.4,58.5,28.7,58.5,32,58.5L32,58.5z"/>
					<path class="st0" d="M22.1,51.9c-0.3,0-0.3,0.4-0.4,0.6c-0.2,1.2,0,2.7,0,3.9c0,0.5,0.1,1.1,0,1.5c0,0.2,0.2,0.4,0.4,0.4
						c1.4-0.1,3.7,0.1,5.2,0.1c1.6,0,3.3,0.1,4.9-0.2c0.1,0,0.2-0.1,0.2-0.2c-0.2-1.8,0.2-3.7,0-5.4c0-0.2-0.1-0.6-0.3-0.6
						C28.8,51.9,25.3,51.9,22.1,51.9L22.1,51.9z M22.1,51.9c3.3,0,6.6,0,9.9,0c0.2,0,0.3,0.1,0.3,0.2c0.1,0.4,0.2,0.8,0.2,1.2
						c0.1,1.5-0.2,3.2,0,4.6c0.1,0.2-0.1,0.2-0.2,0.3c-1.6,0.4-3.3,0.2-4.9,0.2c-1.5,0-3.8-0.2-5.2,0c-0.2,0-0.5-0.2-0.5-0.5
						c0.1-0.5,0-1,0-1.5c0-1.2-0.1-2.7,0.1-3.9C21.7,52.3,21.8,51.9,22.1,51.9L22.1,51.9z"/>
				</g>
			</g>
			<g>
				<g>
					<path class="st0" d="M32,46.1c-3.3,0-6.6,0.1-9.9,0c-0.8,0-0.7-1.3-0.7-1.9c0-1.5,0.1-3.1,0.1-4.6c0.2-0.2,0.5-0.3,0.8-0.3
						c1.8-0.3,3.6-0.2,5.4-0.2c1.2,0,3.1,0.2,4.3,0.1c0.3-0.1,0.5,0.3,0.6,0.5c0.3,1.3,0.1,2.8,0.1,4.1c0,0.5-0.1,1.1,0,1.6
						C32.6,45.7,32.3,46.1,32,46.1L32,46.1z M32,46c0.3,0,0.6-0.3,0.6-0.6c-0.1-0.5,0-1.1,0-1.6c0-1.3,0.2-2.8-0.1-4.1
						c-0.1-0.3-0.3-0.5-0.5-0.5c-1.3,0.2-3.1,0-4.4,0c-2,0-4-0.3-5.9,0.3c-0.2,0.1-0.3,0.2-0.2,0.4c0.1,1.8-0.3,3.6,0,5.4
						c0.1,0.3,0.2,0.8,0.6,0.8C25.4,46,28.7,46,32,46L32,46z"/>
					<path class="st0" d="M22.1,39.4c-0.3,0-0.3,0.4-0.4,0.6c-0.2,1.2,0,2.7,0,3.9c0,0.5,0.1,1.1,0,1.5c0,0.2,0.2,0.4,0.4,0.4
						c1.4-0.1,3.7,0.1,5.2,0.1c1.6,0,3.3,0.1,4.9-0.2c0.1,0,0.2-0.1,0.2-0.2c-0.2-1.5,0.1-3.2,0-4.7c0-0.3,0-1.2-0.4-1.3
						C28.8,39.4,25.3,39.4,22.1,39.4L22.1,39.4z M22.1,39.4c3.3,0,6.6,0,9.9,0c0.2,0,0.3,0.1,0.3,0.2c0.1,0.4,0.2,0.8,0.2,1.2
						c0.1,1.5-0.2,3.2,0,4.6c0.1,0.2-0.1,0.2-0.2,0.3c-1.6,0.4-3.3,0.2-4.9,0.2c-1.5,0-3.8-0.2-5.2,0c-0.2,0-0.5-0.2-0.5-0.5
						c0.1-0.5,0-1,0-1.5c0-1.2-0.1-2.7,0.1-3.9C21.7,39.8,21.8,39.4,22.1,39.4L22.1,39.4z"/>
				</g>
			</g>
			<g>
				<g>
					<path class="st0" d="M32.4,34.9c-1.5-0.7-11.3-1.8-10.9-3.4c0.8-2.2,2.3-6.8,3-9c0.1-0.2,0.3-0.5,0.5-0.5
						c0.4-0.1,1,0.4,1.4,0.5c2.4,1.2,6.8,3.3,9.2,4.5c0.5,0.1,0.9,0.7,0.5,1.2C34.1,30,34.1,33,32.4,34.9L32.4,34.9z M32.4,34.9
						c1.7-2,1.7-5,3.6-6.8c0.3-0.4,0-0.9-0.4-1c-2.4-1.2-6.8-3.3-9.2-4.5c-1.2-0.6-1.6-1-2,0.6c-0.6,1.8-2.2,6.5-2.8,8.3
						c-0.1,0.2,0.1,0.4,0.3,0.5C25.1,33.7,29,33.8,32.4,34.9L32.4,34.9z"/>
					<path class="st0" d="M25.2,22.2c-0.5,0-0.5,0.7-0.6,1c-0.3,0.8-0.9,2.8-1.2,3.6l-1.6,4.8c-0.1,0.1,0,0.2,0.1,0.2
						c2.3,1.1,5.2,1.5,7.7,2.1c0.8,0.2,2,0.4,2.7,0.7c0.8-1,1.2-2.2,1.6-3.4c0.5-1.2,1-2.4,1.9-3.3c0.2-0.2,0.1-0.5-0.1-0.6
						C32.3,25.8,28.6,23.8,25.2,22.2L25.2,22.2z M25.2,22.2c3.5,1.5,7.2,3.5,10.6,5.1c0.3,0.1,0.3,0.5,0.2,0.7
						c-0.9,0.9-1.5,2.1-1.9,3.2c-0.5,1.2-0.9,2.4-1.7,3.5c-0.8-0.3-1.8-0.5-2.7-0.7c-2.5-0.7-5.4-1-7.7-2.1c-0.1,0-0.2-0.2-0.1-0.3
						l1.6-4.8c0.3-0.8,0.9-2.8,1.2-3.6C24.7,22.9,24.7,22.2,25.2,22.2L25.2,22.2z"/>
				</g>
			</g>
			<g>
				<g>
					<path class="st0" d="M62.7,34.9C61,33,61,30,59,28.2c-0.4-0.5,0-1.1,0.5-1.2l1.4-0.7l2.8-1.3l5.5-2.7c0.3-0.1,0.7-0.5,1.1-0.2
						c1.2,2.4,1.9,5,2.8,7.5c0.2,0.7,0.4,1.5,0.6,2.2c0.1,0.3-0.2,0.5-0.4,0.6C70.1,33.1,65.7,34.3,62.7,34.9L62.7,34.9z M62.7,34.9
						c3.4-0.8,7-1.8,10.4-2.6c0.6-0.1,0.3-0.8,0.2-1.2c-0.9-3-1.7-6.1-3.1-9c-0.3-0.2-0.7,0.1-1,0.2L63.7,25L61,26.3L59.6,27
						c-0.5,0.2-0.8,0.6-0.5,1.1C61.1,29.9,61,32.9,62.7,34.9L62.7,34.9z"/>
					<path class="st0" d="M69.9,22.2c-3.5,1.5-7.1,3.5-10.6,5.1c-0.2,0.1-0.3,0.4-0.1,0.6c1,0.9,1.5,2.1,1.9,3.3
						c0.4,1.2,1,2.5,1.6,3.4c0.9-0.4,1.8-0.5,2.7-0.7c2.4-0.6,5.2-1,7.4-2c0.2-0.1,0.5-0.2,0.4-0.4l-1.6-4.8
						c-0.3-0.8-0.9-2.8-1.2-3.6C70.4,23,70.4,22.2,69.9,22.2L69.9,22.2z M69.9,22.2c0.4,0,0.5,0.7,0.6,1c0.3,0.7,0.9,2.8,1.2,3.6
						l1.6,4.8c0.1,0.2-0.1,0.3-0.1,0.4c-2.3,1.2-5.2,1.5-7.7,2.1c-0.9,0.2-1.9,0.4-2.7,0.7c-0.8-1-1.2-2.3-1.7-3.5
						c-0.5-1.2-1-2.4-1.9-3.2c-0.2-0.2-0.1-0.6,0.2-0.7C62.8,25.7,66.5,23.7,69.9,22.2L69.9,22.2z"/>
				</g>
			</g>
			<g>
				<g>
					<path class="st0" d="M40.8,24.2c-0.1,0.1-0.2-0.1-0.3-0.2c-0.2-0.3-0.3-0.7-0.5-1c-0.8-2.2-1.4-5-2-7.3c-0.3-1-0.5-2-0.8-2.9
						c-0.1-0.4,0.2-0.9,0.7-0.9c2.8,0.1,7.1,0,10,0c1.7,0,5.8-0.1,7.5,0c0.7,0.1,2-0.1,2.5,0.3C53.8,33.9,54.8,17.6,40.8,24.2
						L40.8,24.2z M40.8,24.1c14.2-6.7,12.9,9.6,17-12c-1.5-0.4-3.3-0.2-4.9-0.3c-2.9,0-7.1,0.1-10,0.1c-1.7,0-3.4,0.1-5,0
						c-0.4,0-0.7,0.5-0.6,0.8c0.9,2.8,1.4,6,2.3,8.8c0.3,0.8,0.5,1.7,0.9,2.5C40.5,24.1,40.6,24.2,40.8,24.1L40.8,24.1z"/>
					<path class="st0" d="M37.8,12.2c-0.1,0-0.2,0.1-0.2,0.2c0,0.4,0,0.8,0.1,1.1c0.4,2.3,1.3,5,2,7.2c0.2,0.9,0.7,2,0.8,2.9l0-0.1
						c1.2,0.1,2.4-0.4,3.6-0.8c1.1-0.4,2.4-0.8,3.6-0.5c1.2-0.2,2.5,0.2,3.6,0.6c1.2,0.4,2.3,0.9,3.6,0.8c0.1-0.8,0.5-1.9,0.7-2.8
						c0.4-1.4,1.2-4.2,1.6-5.6c0.2-0.8,0.6-2.1,0.6-2.8c-1.3-0.2-3.5-0.1-4.9-0.2C48.1,12.1,42.4,12.3,37.8,12.2L37.8,12.2z
						 M37.8,12.2c5.5,0.1,11.8-0.2,17.3-0.1l1.2,0c0.4,0.1,0.9,0,1.3,0.2c0,0.2,0,0.5,0,0.8c-0.1,0.4-0.4,1.7-0.5,2.1
						c-0.7,2.6-1.7,5.9-2.4,8.4c-2.5,0.2-4.7-1.8-7.2-1.3c-2.5-0.5-4.7,1.5-7.2,1.3h0l0-0.1c-0.6-2.7-1.8-5.9-2.4-8.6
						c-0.2-0.9-0.4-1.7-0.4-2.6C37.6,12.3,37.7,12.1,37.8,12.2L37.8,12.2z"/>
				</g>
			</g>
			<g>
				<g>
					<path class="st0" d="M33,38.6c-2-0.2-4.1,0.4-6-0.1c-0.3-0.1-0.6-0.2-0.6-0.6c0-0.3,0-0.6,0-0.9c0-0.5-0.1-1.3,0-1.8
						c0-0.3,0-0.6,0.3-0.9l0,0c0.1-0.2,0.3-0.1,0.4-0.1c0.9,0.1,1.8,0.3,2.7,0.5c0.9,0.2,2.1,0.6,3,0.8c0.3,0.1,0.5,0.4,0.5,0.7
						C33.3,37,32.9,37.8,33,38.6L33,38.6z M33,38.6c-0.2-0.8,0.2-1.6,0.1-2.4c0-0.2-0.3-0.5-0.4-0.6c-0.9-0.2-2.1-0.5-3-0.8
						c-0.9-0.2-1.7-0.5-2.6-0.6c-0.1,0-0.3,0-0.3,0.1c-0.4,0.4-0.2,1.2-0.2,1.7c0,0.5,0.1,1.3,0,1.8c0,0.6,0.9,0.6,1.4,0.7
						C29.5,38.8,31.4,38.4,33,38.6L33,38.6z"/>
					<path class="st0" d="M27.1,34.5c-0.2,0-0.3,0.2-0.4,0.4c-0.1,0.6,0,1.2,0,1.9c0,0.4,0.1,0.8,0,1.2c0,0.2,0.3,0.2,0.5,0.2
						c1.9,0.3,3.8,0,5.6,0.1l-0.1,0c-0.2-0.8,0.5-1.9-0.2-2.5C30.9,35.5,28.9,34.9,27.1,34.5L27.1,34.5z M27.1,34.5
						c1.9,0.4,3.7,0.8,5.6,1.3c0.7,0.7,0,1.8,0.2,2.6c0,0.1,0,0-0.1,0c-1.8-0.1-3.8,0.2-5.6,0c-0.2-0.1-0.5,0-0.6-0.3
						c0.1-0.4,0-0.8,0-1.3c0-0.6-0.1-1.3,0.1-1.9C26.7,34.7,26.8,34.4,27.1,34.5L27.1,34.5z"/>
				</g>
			</g>
			<g>
				<g>
					<path class="st0" d="M68.1,51.1c-1.8-0.2-3.8,0.4-5.5-0.1c-0.2-0.1-0.5-0.3-0.5-0.6c0.1-0.3,0-0.7,0-1c0-0.7-0.1-1.4,0-2.1
						c0-0.3,0.2-0.8,0.6-0.7c1.8,0.2,3.7-0.4,5.5,0.1c0.2,0.1,0.6,0.3,0.5,0.6c-0.1,0.3,0,0.7,0,1c0,0.7,0.1,1.4,0,2.1
						C68.6,50.7,68.4,51.1,68.1,51.1L68.1,51.1z M68.1,51.1c0.4,0,0.6-0.4,0.6-0.7c0.1-0.7,0-1.4,0-2.1c-0.1-0.8,0.3-1.3-0.4-1.5
						c-1.7-0.5-3.8,0.1-5.5-0.1c-0.4,0-0.5,0.3-0.6,0.7c-0.1,0.7,0,1.4,0,2.1c0.1,0.7-0.3,1.3,0.5,1.5
						C64.3,51.4,66.3,50.8,68.1,51.1L68.1,51.1z"/>
					<path class="st0" d="M62.7,46.9c-0.3,0-0.4,0.5-0.4,0.7c-0.1,0.5,0,1.3,0,1.9c0,0.3,0.1,0.7,0,1c0,0.2,0.3,0.3,0.5,0.3
						c1.7,0.3,3.5,0,5.2,0.1c0.3,0,0.3-0.4,0.4-0.7c0.1-0.5,0-1.3,0-1.9c0-0.3-0.1-0.7,0-1c0-0.2-0.3-0.3-0.5-0.3
						C66.2,46.7,64.4,47,62.7,46.9L62.7,46.9z M62.7,46.8c1.8,0.1,3.8-0.4,5.6,0.1c0.1,0,0.3,0.2,0.2,0.3c-0.1,0.3,0,0.6,0,0.9
						c0,0.7,0.1,1.7-0.1,2.4c-0.1,0.1-0.2,0.3-0.4,0.3c-1.8-0.2-3.8,0.3-5.6-0.1c-0.1,0-0.3-0.2-0.2-0.3c0-0.3,0-0.6,0-0.9
						c0-0.7-0.1-1.7,0.1-2.4C62.4,47,62.5,46.8,62.7,46.8L62.7,46.8z"/>
				</g>
			</g>
			<g>
				<g>
					<path class="st0" d="M32.4,51.1c-1.8-0.2-3.8,0.4-5.5-0.1c-0.2-0.1-0.5-0.3-0.5-0.6c0.1-0.3,0-0.7,0-1c0-0.7-0.1-1.4,0-2.1
						c0-0.3,0.2-0.8,0.6-0.7c1.8,0.2,3.7-0.4,5.5,0.1c0.2,0.1,0.5,0.3,0.5,0.6c-0.1,0.3,0,0.7,0,1c0,0.7,0.1,1.4,0,2.1
						C33,50.7,32.8,51.1,32.4,51.1L32.4,51.1z M32.4,51.1c0.4,0,0.6-0.4,0.6-0.7c0.1-0.7,0-1.4,0-2.1c-0.1-0.8,0.3-1.3-0.5-1.5
						c-1.7-0.5-3.8,0.1-5.5-0.1c-0.4,0-0.5,0.3-0.6,0.7c-0.1,0.7,0,1.4,0,2.1c0.1,0.7-0.3,1.3,0.5,1.5
						C28.7,51.4,30.6,50.8,32.4,51.1L32.4,51.1z"/>
					<path class="st0" d="M27.1,46.9c-0.4,0-0.4,0.5-0.4,0.7c-0.1,0.5,0,1.3,0,1.9c0,0.3,0.1,0.7,0,1c0,0.2,0.3,0.3,0.5,0.3
						c1.7,0.3,3.5,0,5.2,0.1c0.3,0,0.3-0.4,0.4-0.7c0.1-0.5,0-1.3,0-1.9c0-0.3,0-0.7,0-1c0-0.2-0.3-0.3-0.5-0.3
						C30.6,46.7,28.7,47,27.1,46.9L27.1,46.9z M27.1,46.8c1.8,0.1,3.8-0.4,5.6,0.1c0.1,0,0.3,0.2,0.2,0.3c0,0.3,0,0.6,0,0.9
						c0,0.7,0.1,1.7-0.1,2.4c0,0.1-0.2,0.3-0.4,0.3c-1.8-0.2-3.8,0.3-5.6-0.1c-0.1,0-0.3-0.2-0.2-0.3c0-0.3,0-0.6,0-0.9
						c0-0.7-0.1-1.7,0.1-2.4C26.8,47,26.9,46.8,27.1,46.8L27.1,46.8z"/>
				</g>
			</g>
			<g>
				<g>
					<path class="st0" d="M57.8,27.2c-0.9-0.7-2.3-1.2-2.6-2.4c0.6-1.7,0.9-3.5,1.3-5.3c0.5-1.6,0.8-3.4,1.7-4.8
						c0.1-0.1,0.2-0.2,0.3-0.1c1.9,0.3,4.6-0.1,6,1.6c1,1.9,1.4,4,2.4,5.9c0.1,0.3-0.1,0.5-0.2,0.6C64.1,24.7,60.7,25.7,57.8,27.2
						L57.8,27.2z M57.8,27.1c2.9-1.5,6.3-2.5,8.8-4.5c0.2-0.1,0.3-0.4,0.2-0.5c-0.9-1.9-1.4-4.1-2.3-5.9c-1.3-1.7-4.1-1.3-6-1.6
						c-0.2-0.1-0.4,0.2-0.5,0.4c-0.7,1.4-1,3-1.4,4.5c-0.4,1.6-0.8,3.8-1.4,5.3C55.5,25.9,56.9,26.5,57.8,27.1L57.8,27.1z"/>
					<path class="st0" d="M58.5,14.8c-0.1,0-0.2,0.1-0.2,0.2c-0.3,0.7-0.6,1.5-0.8,2.3c-0.6,2-1.2,4.6-1.7,6.7c0,0.3-0.2,1-0.1,1.3
						c0.5,0.2,0.8,0.6,1.1,0.9c0.3,0.3,0.8,0.7,1.2,0.7l8.5-4.2c0.1,0,0.1-0.2,0.1-0.4c-0.5-2.3-1.8-4.4-2.5-6.6
						c-0.3-0.2-0.9-0.3-1.3-0.4C61.4,15.1,59.8,15.1,58.5,14.8L58.5,14.8z M58.5,14.8c1.6,0.2,3.4,0.3,5,0.6
						c0.2,0.1,0.6,0.1,0.7,0.3c0.6,1.7,1.6,3.6,2.1,5.2c0.2,0.5,0.4,1.1,0.4,1.6c0,0.1-0.1,0.2-0.2,0.2h0L58,26.9
						c-0.5,0-0.9-0.4-1.2-0.7c-0.3-0.3-0.8-0.7-1.1-0.9c-0.1,0-0.1-0.1-0.1-0.2c0-0.1,0-0.4,0-0.5c0.5-2.9,1.3-5.8,2.3-8.6
						c0.1-0.3,0.2-0.6,0.4-1C58.3,14.9,58.3,14.8,58.5,14.8L58.5,14.8z"/>
				</g>
			</g>
			<g>
				<g>
					<path class="st0" d="M37.3,27.2c-2.3-1.1-5-2.1-7.2-3.3c-0.6-0.3-1.2-0.6-1.6-1.1c-0.1-0.1-0.3-0.4-0.2-0.6
						c1-2.1,1.8-4.5,2.9-6.5c0.1-0.1,0.2-0.4,0.5-0.4c1.1-0.1,3.8-0.5,4.9-0.6c0.2-0.1,0.4,0.2,0.5,0.4c1.4,3.1,1.8,6.6,2.8,9.8
						C39.7,26,38.2,26.5,37.3,27.2L37.3,27.2z M37.3,27.1c0.9-0.6,2.3-1.3,2.5-2.4c-0.5-1.5-1-3.7-1.4-5.2C38.1,18,37.7,16.5,37,15
						c-0.1-0.2-0.3-0.4-0.4-0.3c-1.1,0.1-3.8,0.4-4.8,0.6c-0.2,0-0.3,0-0.3,0.1c-1.4,2.1-2,4.6-3.1,6.9c-0.1,0.2,0.1,0.4,0.2,0.5
						c0.5,0.5,1.1,0.8,1.6,1.1C32.4,25,35.1,26,37.3,27.1L37.3,27.1z"/>
					<path class="st0" d="M37.2,26.9c1-0.4,2-1.2,2.5-2c-1.1-3.1-1.4-7.1-3-10c-0.9,0.2-2.5,0.3-3.4,0.4c-0.6,0.1-1.4,0.1-1.9,0.4
						c0,0-2.8,6.6-2.8,6.6c-0.1,0.1,0.1,0.3,0.3,0.4c0.5,0.4,1,0.7,1.6,1C32.6,24.8,35.1,25.7,37.2,26.9L37.2,26.9z M37.2,26.9
						c-2.7-1.6-6.2-2.4-8.6-4.3c-0.1-0.1-0.1-0.3-0.1-0.3l2.8-6.5l0,0c0.1-0.2,0.3-0.2,0.4-0.3c0.5-0.1,1-0.2,1.5-0.2
						c0.9-0.1,2.6-0.2,3.5-0.4c0.6,0.6,0.7,1.5,1,2.3c0.8,2.5,1.3,5.2,2,7.7C39.2,25.8,38.2,26.5,37.2,26.9L37.2,26.9z"/>
				</g>
			</g>
			<g>
				<g>
					<path class="st0" d="M68.7,38.2c-2,0.1-4.1,0.4-6,0.4c0.2-1-0.8-2.3,0.2-3c1.1-0.3,3.8-1.3,4.8-1.6c0.3-0.1,0.5-0.2,0.8-0.2
						c0.3,0.1,0.5,0.3,0.6,0.6c0,0.3,0,0.7,0.1,1c0.1,0.7,0.2,1.3,0.1,2C69.3,37.8,69.1,38.2,68.7,38.2L68.7,38.2z M68.7,38.2
						c0.4,0,0.5-0.4,0.6-0.7c0.1-1-0.3-2.1-0.2-3c-0.1-0.8-0.7-0.6-1.3-0.4l-1.6,0.5c0,0-3.3,1-3.2,1c-1,0.7,0,2-0.2,3
						C64.6,38.3,66.8,38.3,68.7,38.2L68.7,38.2z"/>
					<path class="st0" d="M63,38.3c1.9-0.2,3.8-0.3,5.7-0.4c0.2,0,0.2-0.2,0.3-0.3c0.2-1.1,0-2.4-0.3-3.5c-0.8,0-2.1,0.6-2.8,0.8
						c-0.8,0.3-2.1,0.8-2.8,0.9C62.4,36.5,63.2,37.5,63,38.3L63,38.3z M63,38.3c0.1-0.8-0.7-1.9,0-2.6c0.8-0.2,2-0.7,2.8-1
						c0.8-0.2,1.9-0.7,2.7-0.8c0.1,0,0.1,0,0.2,0.1l0,0c0.3,1.1,0.4,2.3,0.3,3.5c-0.1,0.2-0.1,0.4-0.3,0.4
						C66.8,38.1,64.9,38.2,63,38.3L63,38.3z"/>
				</g>
			</g>
		</g>
	</g>
	<g>
		<g>
			<g>
				<g>
					<path class="st0" d="M73.1,71.1c-3.3,0-6.6,0.1-9.9,0c-0.8,0-0.7-1.3-0.7-1.9c0-1.5,0.1-3.1,0.1-4.6c0.2-0.2,0.5-0.3,0.8-0.3
						c1.8-0.3,3.6-0.2,5.4-0.2c1.2,0,3.1,0.2,4.3,0.1c0.3-0.1,0.6,0.3,0.6,0.6c0.3,1.3,0.1,2.8,0.1,4.1c0,0.5-0.1,1.1,0,1.6
						C73.7,70.7,73.4,71.1,73.1,71.1L73.1,71.1z M73.1,71c0.3,0,0.6-0.3,0.6-0.6c-0.1-0.6,0-1.1,0-1.6c0-1.3,0.2-2.8-0.1-4.1
						c-0.1-0.3-0.3-0.5-0.4-0.5c-1.3,0.2-3.1,0-4.4,0c-2,0-4-0.3-5.9,0.3c-0.2,0.1-0.3,0.2-0.2,0.4c0.1,1.8-0.3,3.6,0,5.4
						c0.1,0.3,0.2,0.8,0.6,0.8C66.4,71,69.7,71,73.1,71L73.1,71z"/>
					<path class="st0" d="M63.2,64.4c-0.3,0-0.3,0.4-0.4,0.6c-0.2,1.2,0,2.7,0,3.9c0,0.5,0.1,1.1,0,1.6c0,0.2,0.2,0.4,0.4,0.4
						c1.4-0.1,3.7,0.1,5.2,0.1c1.6,0,3.3,0.1,4.9-0.2c0.1,0,0.2-0.1,0.2-0.2c-0.2-1.8,0.2-3.7-0.1-5.4c0-0.2-0.1-0.6-0.3-0.6
						C69.9,64.4,66.4,64.4,63.2,64.4L63.2,64.4z M63.2,64.4c3.3,0,6.6,0,9.9,0c0.2,0,0.3,0.1,0.3,0.2c0.1,0.4,0.2,0.8,0.2,1.2
						c0.1,1.5-0.2,3.2-0.1,4.6c0.1,0.2-0.1,0.2-0.2,0.3c-1.6,0.4-3.3,0.2-4.9,0.2c-1.5,0-3.8-0.2-5.2,0c-0.2,0-0.5-0.2-0.5-0.5
						c0.1-0.5,0-1,0-1.6c0-1.2-0.1-2.7,0-3.9C62.8,64.8,62.8,64.4,63.2,64.4L63.2,64.4z"/>
				</g>
			</g>
			<g>
				<g>
					<path class="st0" d="M32,71.1c-3.3,0-6.6,0.1-9.9,0c-0.8,0-0.7-1.3-0.7-1.9c0-1.5,0.1-3.1,0.1-4.6c0.2-0.2,0.5-0.3,0.8-0.3
						c1.8-0.3,3.6-0.2,5.4-0.2c1.2,0,3.1,0.2,4.3,0.1c0.3-0.1,0.5,0.3,0.6,0.6c0.3,1.3,0.1,2.8,0.1,4.1c0,0.5-0.1,1.1,0,1.6
						C32.6,70.7,32.3,71.1,32,71.1L32,71.1z M32,71c0.3,0,0.6-0.3,0.6-0.6c-0.1-0.6,0-1.1,0-1.6c0-1.3,0.2-2.8-0.1-4.1
						c-0.1-0.3-0.3-0.5-0.5-0.5c-1.3,0.2-3.1,0-4.4,0c-2,0-4-0.3-5.9,0.3c-0.2,0.1-0.3,0.2-0.2,0.4c0.1,1.8-0.3,3.6,0,5.4
						c0.1,0.3,0.2,0.8,0.6,0.8C25.4,71,28.7,71,32,71L32,71z"/>
					<path class="st0" d="M22.1,64.4c-0.3,0-0.3,0.4-0.4,0.6c-0.2,1.2,0,2.7,0,3.9c0,0.5,0.1,1.1,0,1.6c0,0.2,0.2,0.4,0.4,0.4
						c1.4-0.1,3.7,0.1,5.2,0.1c1.6,0,3.3,0.1,4.9-0.2c0.1,0,0.2-0.1,0.2-0.2c-0.2-1.5,0.1-3.2,0-4.7c0-0.3,0-1.2-0.4-1.3
						C28.8,64.4,25.3,64.4,22.1,64.4L22.1,64.4z M22.1,64.4c3.3,0,6.6,0,9.9,0c0.2,0,0.3,0.1,0.3,0.2c0.1,0.4,0.2,0.8,0.2,1.2
						c0.1,1.5-0.2,3.2,0,4.6c0.1,0.2-0.1,0.2-0.2,0.3c-1.6,0.4-3.3,0.2-4.9,0.2c-1.5,0-3.8-0.2-5.2,0c-0.2,0-0.5-0.2-0.5-0.5
						c0.1-0.5,0-1,0-1.6c0-1.2-0.1-2.7,0.1-3.9C21.7,64.8,21.8,64.3,22.1,64.4L22.1,64.4z"/>
				</g>
			</g>
			<g>
				<g>
					<path class="st0" d="M32.4,63.6c-1.8-0.2-3.8,0.4-5.5-0.1c-0.2-0.1-0.5-0.3-0.5-0.6c0.1-0.3,0-0.7,0-1c0-0.7-0.1-1.4,0-2.1
						c0-0.3,0.2-0.8,0.6-0.7c1.8,0.2,3.7-0.4,5.5,0.1c0.2,0.1,0.5,0.3,0.5,0.6c-0.1,0.3,0,0.7,0,1c0,0.7,0.1,1.4,0,2.1
						C33,63.2,32.8,63.6,32.4,63.6L32.4,63.6z M32.4,63.6c0.4,0,0.6-0.4,0.6-0.7c0.1-0.7,0-1.4,0-2.1c-0.1-0.8,0.3-1.3-0.5-1.5
						c-1.7-0.5-3.8,0.1-5.5-0.1c-0.4,0-0.5,0.4-0.6,0.7c-0.1,0.7,0,1.4,0,2.1c0.1,0.7-0.3,1.3,0.5,1.5
						C28.7,63.9,30.6,63.3,32.4,63.6L32.4,63.6z"/>
					<path class="st0" d="M27.1,59.4c-0.4,0-0.4,0.5-0.4,0.7c-0.1,0.5,0,1.3,0,1.9c0,0.3,0.1,0.7,0,1c0,0.2,0.3,0.3,0.5,0.3
						c1.7,0.3,3.5,0,5.2,0.1c0.3,0,0.3-0.4,0.4-0.7c0.1-0.5,0-1.3,0-1.9c0-0.3,0-0.7,0-1c0-0.2-0.3-0.3-0.5-0.3
						C30.6,59.2,28.7,59.5,27.1,59.4L27.1,59.4z M27.1,59.3c1.8,0.1,3.8-0.4,5.6,0.1c0.1,0,0.3,0.2,0.2,0.3c0,0.3,0,0.6,0,0.9
						c0,0.7,0.1,1.7-0.1,2.4c0,0.1-0.2,0.3-0.4,0.3c-1.8-0.2-3.8,0.3-5.6-0.1c-0.1,0-0.3-0.2-0.2-0.3c0-0.3,0-0.6,0-0.9
						c0-0.7-0.1-1.7,0.1-2.4C26.8,59.5,26.9,59.3,27.1,59.3L27.1,59.3z"/>
				</g>
			</g>
			<g>
				<g>
					<path class="st0" d="M68.1,63.6c-1.8-0.2-3.8,0.4-5.5-0.1c-0.2-0.1-0.5-0.3-0.5-0.6c0.1-0.3,0-0.7,0-1c0-0.7-0.1-1.4,0-2.1
						c0-0.3,0.2-0.8,0.6-0.7c1.8,0.2,3.7-0.4,5.5,0.1c0.2,0.1,0.6,0.3,0.5,0.6c-0.1,0.3,0,0.7,0,1c0,0.7,0.1,1.4,0,2.1
						C68.6,63.2,68.4,63.6,68.1,63.6L68.1,63.6z M68.1,63.6c0.4,0,0.6-0.4,0.6-0.7c0.1-0.7,0-1.4,0-2.1c-0.1-0.8,0.3-1.3-0.4-1.5
						c-1.7-0.5-3.8,0.1-5.5-0.1c-0.4,0-0.5,0.4-0.6,0.7c-0.1,0.7,0,1.4,0,2.1c0.1,0.7-0.3,1.3,0.5,1.5
						C64.3,63.9,66.3,63.3,68.1,63.6L68.1,63.6z"/>
					<path class="st0" d="M62.7,59.4c-0.3,0-0.4,0.5-0.4,0.7c-0.1,0.5,0,1.3,0,1.9c0,0.3,0.1,0.7,0,1c0,0.2,0.3,0.3,0.5,0.3
						c1.7,0.3,3.5,0,5.2,0.1c0.3,0,0.3-0.4,0.4-0.7c0.1-0.5,0-1.3,0-1.9c0-0.3-0.1-0.7,0-1c0-0.2-0.3-0.3-0.5-0.3
						C66.2,59.2,64.4,59.5,62.7,59.4L62.7,59.4z M62.7,59.3c1.8,0.1,3.8-0.4,5.6,0.1c0.1,0,0.3,0.2,0.2,0.3c-0.1,0.3,0,0.6,0,0.9
						c0,0.7,0.1,1.7-0.1,2.4c-0.1,0.1-0.2,0.3-0.4,0.3c-1.8-0.2-3.8,0.3-5.6-0.1c-0.1,0-0.3-0.2-0.2-0.3c0-0.3,0-0.6,0-0.9
						c0-0.7-0.1-1.7,0.1-2.4C62.4,59.5,62.5,59.3,62.7,59.3L62.7,59.3z"/>
				</g>
			</g>
			<g>
				<g>
					<path class="st0" d="M73.1,58.6c-3.3,0-6.6,0.1-9.9,0c-0.8,0-0.7-1.3-0.7-1.9c0-1.5,0.1-3.1,0.1-4.6c0.2-0.2,0.5-0.3,0.8-0.3
						c1.8-0.3,3.6-0.2,5.4-0.2c1.2,0,3.1,0.2,4.3,0.1c0.3-0.1,0.6,0.3,0.6,0.5c0.3,1.3,0.1,2.8,0.1,4.1c0,0.5-0.1,1.1,0,1.6
						C73.7,58.2,73.4,58.6,73.1,58.6L73.1,58.6z M73.1,58.5c0.3,0,0.6-0.3,0.6-0.6c-0.1-0.5,0-1.1,0-1.6c0-1.3,0.2-2.8-0.1-4.1
						c-0.1-0.3-0.3-0.5-0.4-0.5c-1.3,0.2-3.1,0-4.4,0c-2,0-4-0.3-5.9,0.3c-0.2,0.1-0.3,0.2-0.2,0.4c0.1,1.8-0.3,3.6,0,5.4
						c0.1,0.3,0.2,0.8,0.6,0.8C66.4,58.5,69.7,58.5,73.1,58.5L73.1,58.5z"/>
					<path class="st0" d="M63.2,51.9c-0.3,0-0.3,0.4-0.4,0.6c-0.2,1.2,0,2.7,0,3.9c0,0.5,0.1,1.1,0,1.5c0,0.2,0.2,0.4,0.4,0.4
						c1.4-0.1,3.7,0.1,5.2,0.1c1.6,0,3.3,0.1,4.9-0.2c0.1,0,0.2-0.1,0.2-0.2c-0.2-1.8,0.2-3.7-0.1-5.4c0-0.2-0.1-0.6-0.3-0.6
						C69.9,51.9,66.4,51.9,63.2,51.9L63.2,51.9z M63.2,51.9c3.3,0,6.6,0,9.9,0c0.2,0,0.3,0.1,0.3,0.2c0.1,0.4,0.2,0.8,0.2,1.2
						c0.1,1.5-0.2,3.2-0.1,4.6c0.1,0.2-0.1,0.2-0.2,0.3c-1.6,0.4-3.3,0.2-4.9,0.2c-1.5,0-3.8-0.2-5.2,0c-0.2,0-0.5-0.2-0.5-0.5
						c0.1-0.5,0-1,0-1.5c0-1.2-0.1-2.7,0-3.9C62.8,52.3,62.8,51.9,63.2,51.9L63.2,51.9z"/>
				</g>
			</g>
			<g>
				<g>
					<path class="st0" d="M73.1,46.1c-3.3,0-6.6,0.1-9.9,0c-0.8,0-0.7-1.3-0.7-1.9c0-1.5,0.1-3.1,0.1-4.6c0.2-0.2,0.5-0.3,0.8-0.3
						c1.8-0.3,3.6-0.2,5.4-0.2c1.2,0,3.1,0.2,4.3,0.1c0.3-0.1,0.6,0.3,0.6,0.5c0.3,1.3,0.1,2.8,0.1,4.1c0,0.5-0.1,1.1,0,1.6
						C73.7,45.7,73.4,46.1,73.1,46.1L73.1,46.1z M73.1,46c0.3,0,0.6-0.3,0.6-0.6c-0.1-0.5,0-1.1,0-1.6c0-1.3,0.2-2.8-0.1-4.1
						c-0.1-0.3-0.3-0.5-0.4-0.5c-1.3,0.2-3.1,0-4.4,0c-2,0-4-0.3-5.9,0.3c-0.2,0.1-0.3,0.2-0.2,0.4c0.1,1.8-0.3,3.6,0,5.4
						c0.1,0.3,0.2,0.8,0.6,0.8C66.4,46,69.7,46,73.1,46L73.1,46z"/>
					<path class="st0" d="M63.2,39.4c-0.3,0-0.3,0.4-0.4,0.6c-0.2,1.2,0,2.7,0,3.9c0,0.5,0.1,1.1,0,1.5c0,0.2,0.2,0.4,0.4,0.4
						c1.4-0.1,3.7,0.1,5.2,0.1c1.6,0,3.3,0.1,4.9-0.2c0.1,0,0.2-0.1,0.2-0.2c-0.2-1.8,0.2-3.7-0.1-5.4c0-0.2-0.1-0.6-0.3-0.6
						C69.9,39.4,66.4,39.4,63.2,39.4L63.2,39.4z M63.2,39.4c3.3,0,6.6,0,9.9,0c0.2,0,0.3,0.1,0.3,0.2c0.1,0.4,0.2,0.8,0.2,1.2
						c0.1,1.5-0.2,3.2-0.1,4.6c0.1,0.2-0.1,0.2-0.2,0.3c-1.6,0.4-3.3,0.2-4.9,0.2c-1.5,0-3.8-0.2-5.2,0c-0.2,0-0.5-0.2-0.5-0.5
						c0.1-0.5,0-1,0-1.5c0-1.2-0.1-2.7,0-3.9C62.8,39.8,62.8,39.4,63.2,39.4L63.2,39.4z"/>
				</g>
			</g>
			<g>
				<g>
					<path class="st0" d="M32,58.6c-3.3,0-6.6,0.1-9.9,0c-0.8,0-0.7-1.3-0.7-1.9c0-1.5,0.1-3.1,0.1-4.6c0.2-0.2,0.5-0.3,0.8-0.3
						c1.8-0.3,3.6-0.2,5.4-0.2c1.2,0,3.1,0.2,4.3,0.1c0.3-0.1,0.5,0.3,0.6,0.5c0.3,1.3,0.1,2.8,0.1,4.1c0,0.5-0.1,1.1,0,1.6
						C32.6,58.2,32.3,58.6,32,58.6L32,58.6z M32,58.5c0.3,0,0.6-0.3,0.6-0.6c-0.1-0.5,0-1.1,0-1.6c0-1.3,0.2-2.8-0.1-4.1
						c-0.1-0.3-0.3-0.5-0.5-0.5c-1.3,0.2-3.1,0-4.4,0c-2,0-4-0.3-5.9,0.3c-0.2,0.1-0.3,0.2-0.2,0.4c0.1,1.8-0.3,3.6,0,5.4
						c0.1,0.3,0.2,0.8,0.6,0.8C25.4,58.5,28.7,58.5,32,58.5L32,58.5z"/>
					<path class="st0" d="M22.1,51.9c-0.3,0-0.3,0.4-0.4,0.6c-0.2,1.2,0,2.7,0,3.9c0,0.5,0.1,1.1,0,1.5c0,0.2,0.2,0.4,0.4,0.4
						c1.4-0.1,3.7,0.1,5.2,0.1c1.6,0,3.3,0.1,4.9-0.2c0.1,0,0.2-0.1,0.2-0.2c-0.2-1.8,0.2-3.7,0-5.4c0-0.2-0.1-0.6-0.3-0.6
						C28.8,51.9,25.3,51.9,22.1,51.9L22.1,51.9z M22.1,51.9c3.3,0,6.6,0,9.9,0c0.2,0,0.3,0.1,0.3,0.2c0.1,0.4,0.2,0.8,0.2,1.2
						c0.1,1.5-0.2,3.2,0,4.6c0.1,0.2-0.1,0.2-0.2,0.3c-1.6,0.4-3.3,0.2-4.9,0.2c-1.5,0-3.8-0.2-5.2,0c-0.2,0-0.5-0.2-0.5-0.5
						c0.1-0.5,0-1,0-1.5c0-1.2-0.1-2.7,0.1-3.9C21.7,52.3,21.8,51.9,22.1,51.9L22.1,51.9z"/>
				</g>
			</g>
			<g>
				<g>
					<path class="st0" d="M32,46.1c-3.3,0-6.6,0.1-9.9,0c-0.8,0-0.7-1.3-0.7-1.9c0-1.5,0.1-3.1,0.1-4.6c0.2-0.2,0.5-0.3,0.8-0.3
						c1.8-0.3,3.6-0.2,5.4-0.2c1.2,0,3.1,0.2,4.3,0.1c0.3-0.1,0.5,0.3,0.6,0.5c0.3,1.3,0.1,2.8,0.1,4.1c0,0.5-0.1,1.1,0,1.6
						C32.6,45.7,32.3,46.1,32,46.1L32,46.1z M32,46c0.3,0,0.6-0.3,0.6-0.6c-0.1-0.5,0-1.1,0-1.6c0-1.3,0.2-2.8-0.1-4.1
						c-0.1-0.3-0.3-0.5-0.5-0.5c-1.3,0.2-3.1,0-4.4,0c-2,0-4-0.3-5.9,0.3c-0.2,0.1-0.3,0.2-0.2,0.4c0.1,1.8-0.3,3.6,0,5.4
						c0.1,0.3,0.2,0.8,0.6,0.8C25.4,46,28.7,46,32,46L32,46z"/>
					<path class="st0" d="M22.1,39.4c-0.3,0-0.3,0.4-0.4,0.6c-0.2,1.2,0,2.7,0,3.9c0,0.5,0.1,1.1,0,1.5c0,0.2,0.2,0.4,0.4,0.4
						c1.4-0.1,3.7,0.1,5.2,0.1c1.6,0,3.3,0.1,4.9-0.2c0.1,0,0.2-0.1,0.2-0.2c-0.2-1.5,0.1-3.2,0-4.7c0-0.3,0-1.2-0.4-1.3
						C28.8,39.4,25.3,39.4,22.1,39.4L22.1,39.4z M22.1,39.4c3.3,0,6.6,0,9.9,0c0.2,0,0.3,0.1,0.3,0.2c0.1,0.4,0.2,0.8,0.2,1.2
						c0.1,1.5-0.2,3.2,0,4.6c0.1,0.2-0.1,0.2-0.2,0.3c-1.6,0.4-3.3,0.2-4.9,0.2c-1.5,0-3.8-0.2-5.2,0c-0.2,0-0.5-0.2-0.5-0.5
						c0.1-0.5,0-1,0-1.5c0-1.2-0.1-2.7,0.1-3.9C21.7,39.8,21.8,39.4,22.1,39.4L22.1,39.4z"/>
				</g>
			</g>
			<g>
				<g>
					<path class="st0" d="M32.4,34.9c-1.5-0.7-11.3-1.8-10.9-3.4c0.8-2.2,2.3-6.8,3-9c0.1-0.2,0.3-0.5,0.5-0.5
						c0.4-0.1,1,0.4,1.4,0.5c2.4,1.2,6.8,3.3,9.2,4.5c0.5,0.1,0.9,0.7,0.5,1.2C34.1,30,34.1,33,32.4,34.9L32.4,34.9z M32.4,34.9
						c1.7-2,1.7-5,3.6-6.8c0.3-0.4,0-0.9-0.4-1c-2.4-1.2-6.8-3.3-9.2-4.5c-1.2-0.6-1.6-1-2,0.6c-0.6,1.8-2.2,6.5-2.8,8.3
						c-0.1,0.2,0.1,0.4,0.3,0.5C25.1,33.7,29,33.8,32.4,34.9L32.4,34.9z"/>
					<path class="st0" d="M25.2,22.2c-0.5,0-0.5,0.7-0.6,1c-0.3,0.8-0.9,2.8-1.2,3.6l-1.6,4.8c-0.1,0.1,0,0.2,0.1,0.2
						c2.3,1.1,5.2,1.5,7.7,2.1c0.8,0.2,2,0.4,2.7,0.7c0.8-1,1.2-2.2,1.6-3.4c0.5-1.2,1-2.4,1.9-3.3c0.2-0.2,0.1-0.5-0.1-0.6
						C32.3,25.8,28.6,23.8,25.2,22.2L25.2,22.2z M25.2,22.2c3.5,1.5,7.2,3.5,10.6,5.1c0.3,0.1,0.3,0.5,0.2,0.7
						c-0.9,0.9-1.5,2.1-1.9,3.2c-0.5,1.2-0.9,2.4-1.7,3.5c-0.8-0.3-1.8-0.5-2.7-0.7c-2.5-0.7-5.4-1-7.7-2.1c-0.1,0-0.2-0.2-0.1-0.3
						l1.6-4.8c0.3-0.8,0.9-2.8,1.2-3.6C24.7,22.9,24.7,22.2,25.2,22.2L25.2,22.2z"/>
				</g>
			</g>
			<g>
				<g>
					<path class="st0" d="M62.7,34.9C61,33,61,30,59,28.2c-0.4-0.5,0-1.1,0.5-1.2l1.4-0.7l2.8-1.3l5.5-2.7c0.3-0.1,0.7-0.5,1.1-0.2
						c1.2,2.4,1.9,5,2.8,7.5c0.2,0.7,0.4,1.5,0.6,2.2c0.1,0.3-0.2,0.5-0.4,0.6C70.1,33.1,65.7,34.3,62.7,34.9L62.7,34.9z M62.7,34.9
						c3.4-0.8,7-1.8,10.4-2.6c0.6-0.1,0.3-0.8,0.2-1.2c-0.9-3-1.7-6.1-3.1-9c-0.3-0.2-0.7,0.1-1,0.2L63.7,25L61,26.3L59.6,27
						c-0.5,0.2-0.8,0.6-0.5,1.1C61.1,29.9,61,32.9,62.7,34.9L62.7,34.9z"/>
					<path class="st0" d="M69.9,22.2c-3.5,1.5-7.1,3.5-10.6,5.1c-0.2,0.1-0.3,0.4-0.1,0.6c1,0.9,1.5,2.1,1.9,3.3
						c0.4,1.2,1,2.5,1.6,3.4c0.9-0.4,1.8-0.5,2.7-0.7c2.4-0.6,5.2-1,7.4-2c0.2-0.1,0.5-0.2,0.4-0.4l-1.6-4.8
						c-0.3-0.8-0.9-2.8-1.2-3.6C70.4,23,70.4,22.2,69.9,22.2L69.9,22.2z M69.9,22.2c0.4,0,0.5,0.7,0.6,1c0.3,0.7,0.9,2.8,1.2,3.6
						l1.6,4.8c0.1,0.2-0.1,0.3-0.1,0.4c-2.3,1.2-5.2,1.5-7.7,2.1c-0.9,0.2-1.9,0.4-2.7,0.7c-0.8-1-1.2-2.3-1.7-3.5
						c-0.5-1.2-1-2.4-1.9-3.2c-0.2-0.2-0.1-0.6,0.2-0.7C62.8,25.7,66.5,23.7,69.9,22.2L69.9,22.2z"/>
				</g>
			</g>
			<g>
				<g>
					<path class="st0" d="M40.8,24.2c-0.1,0.1-0.2-0.1-0.3-0.2c-0.2-0.3-0.3-0.7-0.5-1c-0.8-2.2-1.4-5-2-7.3c-0.3-1-0.5-2-0.8-2.9
						c-0.1-0.4,0.2-0.9,0.7-0.9c2.8,0.1,7.1,0,10,0c1.7,0,5.8-0.1,7.5,0c0.7,0.1,2-0.1,2.5,0.3C53.8,33.9,54.8,17.6,40.8,24.2
						L40.8,24.2z M40.8,24.1c14.2-6.7,12.9,9.6,17-12c-1.5-0.4-3.3-0.2-4.9-0.3c-2.9,0-7.1,0.1-10,0.1c-1.7,0-3.4,0.1-5,0
						c-0.4,0-0.7,0.5-0.6,0.8c0.9,2.8,1.4,6,2.3,8.8c0.3,0.8,0.5,1.7,0.9,2.5C40.5,24.1,40.6,24.2,40.8,24.1L40.8,24.1z"/>
					<path class="st0" d="M37.8,12.2c-0.1,0-0.2,0.1-0.2,0.2c0,0.4,0,0.8,0.1,1.1c0.4,2.3,1.3,5,2,7.2c0.2,0.9,0.7,2,0.8,2.9l0-0.1
						c1.2,0.1,2.4-0.4,3.6-0.8c1.1-0.4,2.4-0.8,3.6-0.5c1.2-0.2,2.5,0.2,3.6,0.6c1.2,0.4,2.3,0.9,3.6,0.8c0.1-0.8,0.5-1.9,0.7-2.8
						c0.4-1.4,1.2-4.2,1.6-5.6c0.2-0.8,0.6-2.1,0.6-2.8c-1.3-0.2-3.5-0.1-4.9-0.2C48.1,12.1,42.4,12.3,37.8,12.2L37.8,12.2z
						 M37.8,12.2c5.5,0.1,11.8-0.2,17.3-0.1l1.2,0c0.4,0.1,0.9,0,1.3,0.2c0,0.2,0,0.5,0,0.8c-0.1,0.4-0.4,1.7-0.5,2.1
						c-0.7,2.6-1.7,5.9-2.4,8.4c-2.5,0.2-4.7-1.8-7.2-1.3c-2.5-0.5-4.7,1.5-7.2,1.3h0l0-0.1c-0.6-2.7-1.8-5.9-2.4-8.6
						c-0.2-0.9-0.4-1.7-0.4-2.6C37.6,12.3,37.7,12.1,37.8,12.2L37.8,12.2z"/>
				</g>
			</g>
			<g>
				<g>
					<path class="st0" d="M33,38.6c-2-0.2-4.1,0.4-6-0.1c-0.3-0.1-0.6-0.2-0.6-0.6c0-0.3,0-0.6,0-0.9c0-0.5-0.1-1.3,0-1.8
						c0-0.3,0-0.6,0.3-0.9l0,0c0.1-0.2,0.3-0.1,0.4-0.1c0.9,0.1,1.8,0.3,2.7,0.5c0.9,0.2,2.1,0.6,3,0.8c0.3,0.1,0.5,0.4,0.5,0.7
						C33.3,37,32.9,37.8,33,38.6L33,38.6z M33,38.6c-0.2-0.8,0.2-1.6,0.1-2.4c0-0.2-0.3-0.5-0.4-0.6c-0.9-0.2-2.1-0.5-3-0.8
						c-0.9-0.2-1.7-0.5-2.6-0.6c-0.1,0-0.3,0-0.3,0.1c-0.4,0.4-0.2,1.2-0.2,1.7c0,0.5,0.1,1.3,0,1.8c0,0.6,0.9,0.6,1.4,0.7
						C29.5,38.8,31.4,38.4,33,38.6L33,38.6z"/>
					<path class="st0" d="M27.1,34.5c-0.2,0-0.3,0.2-0.4,0.4c-0.1,0.6,0,1.2,0,1.9c0,0.4,0.1,0.8,0,1.2c0,0.2,0.3,0.2,0.5,0.2
						c1.9,0.3,3.8,0,5.6,0.1l-0.1,0c-0.2-0.8,0.5-1.9-0.2-2.5C30.9,35.5,28.9,34.9,27.1,34.5L27.1,34.5z M27.1,34.5
						c1.9,0.4,3.7,0.8,5.6,1.3c0.7,0.7,0,1.8,0.2,2.6c0,0.1,0,0-0.1,0c-1.8-0.1-3.8,0.2-5.6,0c-0.2-0.1-0.5,0-0.6-0.3
						c0.1-0.4,0-0.8,0-1.3c0-0.6-0.1-1.3,0.1-1.9C26.7,34.7,26.8,34.4,27.1,34.5L27.1,34.5z"/>
				</g>
			</g>
			<g>
				<g>
					<path class="st0" d="M68.1,51.1c-1.8-0.2-3.8,0.4-5.5-0.1c-0.2-0.1-0.5-0.3-0.5-0.6c0.1-0.3,0-0.7,0-1c0-0.7-0.1-1.4,0-2.1
						c0-0.3,0.2-0.8,0.6-0.7c1.8,0.2,3.7-0.4,5.5,0.1c0.2,0.1,0.6,0.3,0.5,0.6c-0.1,0.3,0,0.7,0,1c0,0.7,0.1,1.4,0,2.1
						C68.6,50.7,68.4,51.1,68.1,51.1L68.1,51.1z M68.1,51.1c0.4,0,0.6-0.4,0.6-0.7c0.1-0.7,0-1.4,0-2.1c-0.1-0.8,0.3-1.3-0.4-1.5
						c-1.7-0.5-3.8,0.1-5.5-0.1c-0.4,0-0.5,0.3-0.6,0.7c-0.1,0.7,0,1.4,0,2.1c0.1,0.7-0.3,1.3,0.5,1.5
						C64.3,51.4,66.3,50.8,68.1,51.1L68.1,51.1z"/>
					<path class="st0" d="M62.7,46.9c-0.3,0-0.4,0.5-0.4,0.7c-0.1,0.5,0,1.3,0,1.9c0,0.3,0.1,0.7,0,1c0,0.2,0.3,0.3,0.5,0.3
						c1.7,0.3,3.5,0,5.2,0.1c0.3,0,0.3-0.4,0.4-0.7c0.1-0.5,0-1.3,0-1.9c0-0.3-0.1-0.7,0-1c0-0.2-0.3-0.3-0.5-0.3
						C66.2,46.7,64.4,47,62.7,46.9L62.7,46.9z M62.7,46.8c1.8,0.1,3.8-0.4,5.6,0.1c0.1,0,0.3,0.2,0.2,0.3c-0.1,0.3,0,0.6,0,0.9
						c0,0.7,0.1,1.7-0.1,2.4c-0.1,0.1-0.2,0.3-0.4,0.3c-1.8-0.2-3.8,0.3-5.6-0.1c-0.1,0-0.3-0.2-0.2-0.3c0-0.3,0-0.6,0-0.9
						c0-0.7-0.1-1.7,0.1-2.4C62.4,47,62.5,46.8,62.7,46.8L62.7,46.8z"/>
				</g>
			</g>
			<g>
				<g>
					<path class="st0" d="M32.4,51.1c-1.8-0.2-3.8,0.4-5.5-0.1c-0.2-0.1-0.5-0.3-0.5-0.6c0.1-0.3,0-0.7,0-1c0-0.7-0.1-1.4,0-2.1
						c0-0.3,0.2-0.8,0.6-0.7c1.8,0.2,3.7-0.4,5.5,0.1c0.2,0.1,0.5,0.3,0.5,0.6c-0.1,0.3,0,0.7,0,1c0,0.7,0.1,1.4,0,2.1
						C33,50.7,32.8,51.1,32.4,51.1L32.4,51.1z M32.4,51.1c0.4,0,0.6-0.4,0.6-0.7c0.1-0.7,0-1.4,0-2.1c-0.1-0.8,0.3-1.3-0.5-1.5
						c-1.7-0.5-3.8,0.1-5.5-0.1c-0.4,0-0.5,0.3-0.6,0.7c-0.1,0.7,0,1.4,0,2.1c0.1,0.7-0.3,1.3,0.5,1.5
						C28.7,51.4,30.6,50.8,32.4,51.1L32.4,51.1z"/>
					<path class="st0" d="M27.1,46.9c-0.4,0-0.4,0.5-0.4,0.7c-0.1,0.5,0,1.3,0,1.9c0,0.3,0.1,0.7,0,1c0,0.2,0.3,0.3,0.5,0.3
						c1.7,0.3,3.5,0,5.2,0.1c0.3,0,0.3-0.4,0.4-0.7c0.1-0.5,0-1.3,0-1.9c0-0.3,0-0.7,0-1c0-0.2-0.3-0.3-0.5-0.3
						C30.6,46.7,28.7,47,27.1,46.9L27.1,46.9z M27.1,46.8c1.8,0.1,3.8-0.4,5.6,0.1c0.1,0,0.3,0.2,0.2,0.3c0,0.3,0,0.6,0,0.9
						c0,0.7,0.1,1.7-0.1,2.4c0,0.1-0.2,0.3-0.4,0.3c-1.8-0.2-3.8,0.3-5.6-0.1c-0.1,0-0.3-0.2-0.2-0.3c0-0.3,0-0.6,0-0.9
						c0-0.7-0.1-1.7,0.1-2.4C26.8,47,26.9,46.8,27.1,46.8L27.1,46.8z"/>
				</g>
			</g>
			<g>
				<g>
					<path class="st0" d="M57.8,27.2c-0.9-0.7-2.3-1.2-2.6-2.4c0.6-1.7,0.9-3.5,1.3-5.3c0.5-1.6,0.8-3.4,1.7-4.8
						c0.1-0.1,0.2-0.2,0.3-0.1c1.9,0.3,4.6-0.1,6,1.6c1,1.9,1.4,4,2.4,5.9c0.1,0.3-0.1,0.5-0.2,0.6C64.1,24.7,60.7,25.7,57.8,27.2
						L57.8,27.2z M57.8,27.1c2.9-1.5,6.3-2.5,8.8-4.5c0.2-0.1,0.3-0.4,0.2-0.5c-0.9-1.9-1.4-4.1-2.3-5.9c-1.3-1.7-4.1-1.3-6-1.6
						c-0.2-0.1-0.4,0.2-0.5,0.4c-0.7,1.4-1,3-1.4,4.5c-0.4,1.6-0.8,3.8-1.4,5.3C55.5,25.9,56.9,26.5,57.8,27.1L57.8,27.1z"/>
					<path class="st0" d="M58.5,14.8c-0.1,0-0.2,0.1-0.2,0.2c-0.3,0.7-0.6,1.5-0.8,2.3c-0.6,2-1.2,4.6-1.7,6.7c0,0.3-0.2,1-0.1,1.3
						c0.5,0.2,0.8,0.6,1.1,0.9c0.3,0.3,0.8,0.7,1.2,0.7l8.5-4.2c0.1,0,0.1-0.2,0.1-0.4c-0.5-2.3-1.8-4.4-2.5-6.6
						c-0.3-0.2-0.9-0.3-1.3-0.4C61.4,15.1,59.8,15.1,58.5,14.8L58.5,14.8z M58.5,14.8c1.6,0.2,3.4,0.3,5,0.6
						c0.2,0.1,0.6,0.1,0.7,0.3c0.6,1.7,1.6,3.6,2.1,5.2c0.2,0.5,0.4,1.1,0.4,1.6c0,0.1-0.1,0.2-0.2,0.2h0L58,26.9
						c-0.5,0-0.9-0.4-1.2-0.7c-0.3-0.3-0.8-0.7-1.1-0.9c-0.1,0-0.1-0.1-0.1-0.2c0-0.1,0-0.4,0-0.5c0.5-2.9,1.3-5.8,2.3-8.6
						c0.1-0.3,0.2-0.6,0.4-1C58.3,14.9,58.3,14.8,58.5,14.8L58.5,14.8z"/>
				</g>
			</g>
			<g>
				<g>
					<path class="st0" d="M37.3,27.2c-2.3-1.1-5-2.1-7.2-3.3c-0.6-0.3-1.2-0.6-1.6-1.1c-0.1-0.1-0.3-0.4-0.2-0.6
						c1-2.1,1.8-4.5,2.9-6.5c0.1-0.1,0.2-0.4,0.5-0.4c1.1-0.1,3.8-0.5,4.9-0.6c0.2-0.1,0.4,0.2,0.5,0.4c1.4,3.1,1.8,6.6,2.8,9.8
						C39.7,26,38.2,26.5,37.3,27.2L37.3,27.2z M37.3,27.1c0.9-0.6,2.3-1.3,2.5-2.4c-0.5-1.5-1-3.7-1.4-5.2C38.1,18,37.7,16.5,37,15
						c-0.1-0.2-0.3-0.4-0.4-0.3c-1.1,0.1-3.8,0.4-4.8,0.6c-0.2,0-0.3,0-0.3,0.1c-1.4,2.1-2,4.6-3.1,6.9c-0.1,0.2,0.1,0.4,0.2,0.5
						c0.5,0.5,1.1,0.8,1.6,1.1C32.4,25,35.1,26,37.3,27.1L37.3,27.1z"/>
					<path class="st0" d="M37.2,26.9c1-0.4,2-1.2,2.5-2c-1.1-3.1-1.4-7.1-3-10c-0.9,0.2-2.5,0.3-3.4,0.4c-0.6,0.1-1.4,0.1-1.9,0.4
						c0,0-2.8,6.6-2.8,6.6c-0.1,0.1,0.1,0.3,0.3,0.4c0.5,0.4,1,0.7,1.6,1C32.6,24.8,35.1,25.7,37.2,26.9L37.2,26.9z M37.2,26.9
						c-2.7-1.6-6.2-2.4-8.6-4.3c-0.1-0.1-0.1-0.3-0.1-0.3l2.8-6.5l0,0c0.1-0.2,0.3-0.2,0.4-0.3c0.5-0.1,1-0.2,1.5-0.2
						c0.9-0.1,2.6-0.2,3.5-0.4c0.6,0.6,0.7,1.5,1,2.3c0.8,2.5,1.3,5.2,2,7.7C39.2,25.8,38.2,26.5,37.2,26.9L37.2,26.9z"/>
				</g>
			</g>
			<g>
				<g>
					<path class="st0" d="M68.7,38.2c-2,0.1-4.1,0.4-6,0.4c0.2-1-0.8-2.3,0.2-3c1.1-0.3,3.8-1.3,4.8-1.6c0.3-0.1,0.5-0.2,0.8-0.2
						c0.3,0.1,0.5,0.3,0.6,0.6c0,0.3,0,0.7,0.1,1c0.1,0.7,0.2,1.3,0.1,2C69.3,37.8,69.1,38.2,68.7,38.2L68.7,38.2z M68.7,38.2
						c0.4,0,0.5-0.4,0.6-0.7c0.1-1-0.3-2.1-0.2-3c-0.1-0.8-0.7-0.6-1.3-0.4l-1.6,0.5c0,0-3.3,1-3.2,1c-1,0.7,0,2-0.2,3
						C64.6,38.3,66.8,38.3,68.7,38.2L68.7,38.2z"/>
					<path class="st0" d="M63,38.3c1.9-0.2,3.8-0.3,5.7-0.4c0.2,0,0.2-0.2,0.3-0.3c0.2-1.1,0-2.4-0.3-3.5c-0.8,0-2.1,0.6-2.8,0.8
						c-0.8,0.3-2.1,0.8-2.8,0.9C62.4,36.5,63.2,37.5,63,38.3L63,38.3z M63,38.3c0.1-0.8-0.7-1.9,0-2.6c0.8-0.2,2-0.7,2.8-1
						c0.8-0.2,1.9-0.7,2.7-0.8c0.1,0,0.1,0,0.2,0.1l0,0c0.3,1.1,0.4,2.3,0.3,3.5c-0.1,0.2-0.1,0.4-0.3,0.4
						C66.8,38.1,64.9,38.2,63,38.3L63,38.3z"/>
				</g>
			</g>
		</g>
	</g>
	<polygon class="st1" points="55.8,58.4 34,58.7 34,62.8 55.8,61.8 	"/>
	<path class="st0" d="M52.3,51.7c0.3,2.9,3.2-0.2,1.1-1.1c-0.1,0.1-0.2,0-0.3,0C52.6,50.6,52.3,51.1,52.3,51.7z M53.5,50.1
		C53.5,50.1,53.5,50.2,53.5,50.1c1.3,0.5,1.1,3.2-0.3,3.2c-1.4,0-1.8-2.8-0.3-3.1C52.8,49.5,53.6,49.4,53.5,50.1z"/>
	<g>
		<path class="st0" d="M39.1,60.2c-1.7,0-3.4-0.1-5-0.2c0,0.4,0,1.3,0,1.6c1.7-0.2,3.4-0.4,5.1-0.5c0.1,0.1,0.3,0.3,0.4,0.1
			C39.8,60.8,39.7,59.5,39.1,60.2c0.7-0.9,1,1.3,0.2,1.1c-0.1,0-0.3-0.2-0.2-0.2c-1.7,0.2-3.4,0.3-5.1,0.5c0-0.6,0-1.1,0-1.7
			C35.7,60,37.4,60,39.1,60.2L39.1,60.2z"/>
	</g>
	<g>
		<path class="st1" d="M55.8,41.7L34,38.6c0,0.2,0,3.9,0,4l21.8,2.4C55.8,44.9,55.8,41.9,55.8,41.7"/>
		<path class="st1" d="M55.8,61.8v5.5l-2.6,0.2v-5.6 M55.8,41.8L55.8,41.8C55.8,41.8,55.8,41.8,55.8,41.8z M55.8,41.8
			C55.8,41.8,55.8,41.8,55.8,41.8C55.8,41.8,55.8,41.8,55.8,41.8z M55.8,45.1v13.3l-2.6,0V44.8L55.8,45.1z M55.8,41.8
			C55.8,41.8,55.8,41.7,55.8,41.8l-2.6-0.5V32C54.8,34.8,55.8,38.2,55.8,41.8z"/>
		<path class="st2" d="M53.2,61.9v5.6l-2.8,0.3V62 M53.2,44.8v13.7l-2.8,0v-14L53.2,44.8z M53.2,32v9.3l-2.8-0.4V28.5
			C51.5,29.5,52.4,30.7,53.2,32z"/>
		<path class="st1" d="M53.2,61.9v5.6l-2.8,0.3V62L53.2,61.9z M53.2,44.8v13.7l-2.8,0v-14L53.2,44.8z M53.2,32v9.3l-2.8-0.4V28.5
			C51.5,29.5,52.4,30.7,53.2,32z"/>
		<path class="st1" d="M47.4,62.2V68l-3.1,0.3v-6 M47.4,44.2v14.4l-3.1,0V43.8L47.4,44.2z M45.9,26c0.5,0.1,1,0.3,1.5,0.5v14
			l-3.1-0.4V25.7C44.8,25.7,45.4,25.8,45.9,26z"/>
		<path class="st1" d="M47.4,62.2V68l-3.1,0.3v-6L47.4,62.2z M47.4,44.2v14.4l-3.1,0V43.8L47.4,44.2z M45.9,26
			c0.5,0.1,1,0.3,1.5,0.5v14l-3.1-0.4V25.7C44.8,25.7,45.4,25.8,45.9,26z"/>
		<path class="st1" d="M44.3,62.3v6L41,68.7v-6.2 M44.3,43.8v14.8l-3.3,0V43.4L44.3,43.8z M44.3,25.7v14.4L41,39.6V26.2
			C42,25.8,43.1,25.6,44.3,25.7z"/>
		<path class="st1" d="M44.3,62.3v6L41,68.7v-6.2L44.3,62.3z M44.3,43.8v14.8l-3.3,0V43.4L44.3,43.8z M44.3,25.7v14.4L41,39.6V26.2
			C42,25.8,43.1,25.6,44.3,25.7z"/>
		<path class="st1" d="M41,62.5v6.2L37.5,69v-6.4 M41,43.4v15.2l-3.5,0V43L41,43.4z M41,26.2v13.4l-3.5-0.5V28.6
			C38.5,27.5,39.7,26.7,41,26.2z"/>
		<path class="st1" d="M41,62.5v6.2L37.5,69v-6.4L41,62.5z M41,43.4v15.2l-3.5,0V43L41,43.4z M41,26.2v13.4l-3.5-0.5V28.6
			C38.5,27.5,39.7,26.7,41,26.2z"/>
		<path class="st1" d="M34,38.7L34,38.7C34,38.8,34,38.8,34,38.7 M34,38.7L34,38.7C34,38.7,34,38.7,34,38.7z M34,38.6
			C34,38.6,34,38.7,34,38.6c0-4.1,1.3-7.6,3.5-10v10.5L34,38.6z M34,58.7v-16l3.5,0.4v15.6L34,58.7z M34,69.3v-6.5l3.5-0.2V69
			L34,69.3z"/>
		<path class="st1" d="M50.4,62v5.7l-3,0.3v-5.9 M50.4,44.5v14l-3,0V44.2L50.4,44.5z M50.4,28.5v12.4l-3-0.4v-14
			C48.5,27,49.5,27.6,50.4,28.5z"/>
		<path class="st3" d="M53.2,61.9v5.6l-2.8,0.3V62 M53.2,44.8v13.7l-2.8,0v-14L53.2,44.8z M53.2,32v9.3l-2.8-0.4V28.5
			C51.5,29.5,52.4,30.7,53.2,32z"/>
		<path class="st4" d="M53.2,61.9v5.6l-2.8,0.3V62L53.2,61.9z M53.2,44.8v13.7l-2.8,0v-14L53.2,44.8z M53.2,32v9.3l-2.8-0.4V28.5
			C51.5,29.5,52.4,30.7,53.2,32z"/>
		<path class="st4" d="M47.4,62.2V68l-3.1,0.3v-6 M47.4,44.2v14.4l-3.1,0V43.8L47.4,44.2z M45.9,26c0.5,0.1,1,0.3,1.5,0.5v14
			l-3.1-0.4V25.7C44.8,25.7,45.4,25.8,45.9,26z"/>
		<path class="st4" d="M47.4,62.2V68l-3.1,0.3v-6L47.4,62.2z M47.4,44.2v14.4l-3.1,0V43.8L47.4,44.2z M45.9,26
			c0.5,0.1,1,0.3,1.5,0.5v14l-3.1-0.4V25.7C44.8,25.7,45.4,25.8,45.9,26z"/>
		<path class="st4" d="M44.3,62.3v6L41,68.7v-6.2 M44.3,43.8v14.8l-3.3,0V43.4L44.3,43.8z M44.3,25.7v14.4L41,39.6V26.2
			C42,25.8,43.1,25.6,44.3,25.7z"/>
		<path class="st4" d="M44.3,62.3v6L41,68.7v-6.2L44.3,62.3z M44.3,43.8v14.8l-3.3,0V43.4L44.3,43.8z M44.3,25.7v14.4L41,39.6V26.2
			C42,25.8,43.1,25.6,44.3,25.7z"/>
		<path class="st4" d="M41,62.5v6.2L37.5,69v-6.4 M41,43.4v15.2l-3.5,0V43L41,43.4z M41,26.2v13.4l-3.5-0.5V28.6
			C38.5,27.5,39.7,26.7,41,26.2z"/>
		<path class="st4" d="M41,62.5v6.2L37.5,69v-6.4L41,62.5z M41,43.4v15.2l-3.5,0V43L41,43.4z M41,26.2v13.4l-3.5-0.5V28.6
			C38.5,27.5,39.7,26.7,41,26.2z"/>
		<path class="st4" d="M34,38.7L34,38.7C34,38.8,34,38.8,34,38.7 M34,38.7L34,38.7C34,38.7,34,38.7,34,38.7z M34,38.6
			C34,38.6,34,38.7,34,38.6c0-4.1,1.3-7.6,3.5-10v10.5L34,38.6z M34,58.7v-16l3.5,0.4v15.6L34,58.7z M34,69.3v-6.5l3.5-0.2V69
			L34,69.3z"/>
		<path class="st4" d="M50.4,62v5.7l-3,0.3v-5.9 M50.4,44.5v14l-3,0V44.2L50.4,44.5z M50.4,28.5v12.4l-3-0.4v-14
			C48.5,27,49.5,27.6,50.4,28.5z"/>
		<path class="st1" d="M55.8,58.4c-6.4,0.1-13.6,0.2-21.8,0.3v4c8.2-0.4,15.4-0.7,21.8-1C55.8,60.7,55.8,59.5,55.8,58.4z"/>
		<g>
			<g>
				<g>
					<defs>
						<polygon id="SVGID_1_" points="40,41.9 34.2,42.1 34.1,39.6 40,39.3 						"/>
					</defs>
					<clipPath id="SVGID_00000095314864445134325050000017458246859824551089_">
						<use xlink:href="#SVGID_1_"  style="overflow:visible;"/>
					</clipPath>
					<g style="clip-path:url(#SVGID_00000095314864445134325050000017458246859824551089_);">
						<path class="st0" d="M38.9,41.6c-1.6,0-3.3,0-4.9,0c0-0.6,0.1-1.1,0.1-1.7c1.6,0.2,3.2,0.5,4.9,0.7c-0.1,0,0.2-0.2,0.2-0.2
							C39.9,40.4,39.5,42.5,38.9,41.6c0.6,0.6,0.8-0.6,0.5-0.9c-0.1-0.2-0.3,0-0.4,0.1c-1.6-0.2-3.3-0.5-4.9-0.7
							c0,0.4,0,1.2-0.1,1.6C35.6,41.6,37.3,41.5,38.9,41.6L38.9,41.6z"/>
					</g>
				</g>
			</g>
		</g>
	</g>
	<path class="st6" d="M52.5,50.9c0.1-0.2,0.3-0.4,0.6-0.4c0.1,0.1,0.2,0.1,0.3,0c0.2,0.1,0.4,0.2,0.6,0.5
		C53.6,51.7,52.8,51.6,52.5,50.9 M54.1,50.2c0,0.2,0,0.3-0.1,0.5c-0.2-0.2-0.3-0.3-0.5-0.4c0.1-0.8-0.8-0.8-0.7,0
		c-0.2,0.1-0.4,0.2-0.5,0.4C51.8,48.5,54.1,47.9,54.1,50.2z"/>
</g>
</svg>
